<svg xmlns="http://www.w3.org/2000/svg" xmlns:xlink="http://www.w3.org/1999/xlink" width="350" height="150" xmlns:v="https://vecta.io/nano"><path fill="#f2f3f6" d="M221.87 67.4l-86.23-40.33v3.28l24.64 36.55z"/><path d="M341.17 80.02c-3.18-5.17-11.03-6.75-13.61-8.34-2.09-1.19-11.72-11.32-32.98-11.42l-82.15-.6-63.77-32.48-13.01-.1 21.75 32.19-18.58-.1h0l-60.4-.5L29.85 3.23l-19.17-.1 18.77 55.23-21.95-.1 5.36 12.32c2.28 1.99 18.87 9.74 35.56 16.89l90.3.6 57.62.4c156.65 14.2 145.23-7.06 144.83-8.45zM224.35 91.34c-2.68-.5-5.56-.7-8.54-.7-11.23-.1-25.63 2.19-30 4.17l-.1 7.15v7.15c4.37 1.99 18.77 4.47 29.9 4.57 3.08 0 5.96-.2 8.54-.6l.1-10.83h0l.1-10.91z" fill="#fff"/><g fill="#bfc5d0"><use xlink:href="#B"/><path d="M263.89 80.41c0 .5.4.89.79.89h1.79c.5 0 .89-.4.89-.89v-2.78c0-.5-.4-.89-.89-.89h-1.69c-.5 0-.89.4-.89.89v2.78zm-8.35 0c0 .5.4.89.79.89h1.89c.5 0 .89-.4.89-.89v-2.68c0-.5-.4-.89-.89-.89h-1.79c-.5 0-.89.4-.89.89v2.68z"/><use xlink:href="#B" x="-24.93" y="-0.2"/><path d="M238.95 80.31c0 .5.4.89.79.89h1.79c.5 0 .89-.4.89-.89v-2.68c0-.5-.4-.89-.89-.89h-1.79c-.5 0-.89.4-.89.89l.1 2.68zm-8.24-.09c0 .5.4.89.89.89h1.79c.5 0 .89-.4.89-.79v-2.78c0-.5-.4-.89-.79-.89h-1.89c-.5 0-.89.4-.89.79v2.78z"/><use xlink:href="#B" x="-49.86" y="-0.39"/><use xlink:href="#B" x="-58.11" y="-0.39"/><path d="M205.78 80.02c0 .5.4.89.89.89h1.79c.5 0 .79-.4.89-.89v-2.78c0-.5-.4-.89-.89-.89h-1.79c-.5 0-.89.4-.89.89v2.78z"/><use xlink:href="#C"/><use xlink:href="#C" x="-8.34" y="-0.1"/><path d="M180.94 79.92c0 .5.4.89.79.89h1.89c.5 0 .89-.4.89-.89v-2.78c0-.5-.4-.89-.89-.89h-1.79c-.5 0-.89.4-.89.89v2.78zm-8.34-.1c0 .5.4.89.89.89h1.79c.5 0 .89-.4.89-.79v-2.78c0-.5-.4-.89-.79-.89h-1.79c-.5 0-.89.4-.89.89l-.1 2.68zm-8.35 0c0 .5.4.89.89.89h1.89c.5 0 .89-.4.89-.79v-2.78c0-.5-.4-.89-.89-.89h-1.89c-.5 0-.89.4-.89.89v2.68z"/><use xlink:href="#C" x="-41.52" y="-0.3"/><use xlink:href="#B" x="-124.57" y="-0.89"/><use xlink:href="#B" x="-132.81" y="-0.89"/><path d="M131.07 79.52c0 .5.4.89.79.89h1.79c.5 0 .89-.4.89-.89v-2.78c0-.5-.4-.89-.89-.89h-1.89c-.5 0-.89.4-.89.89l.2 2.78z"/><use xlink:href="#C" x="-74.7" y="-0.6"/><path d="M114.49 79.42c0 .5.4.89.89.89h1.79c.5 0 .89-.4.89-.89v-2.78c0-.5-.4-.89-.79-.89h-1.89c-.5 0-.89.4-.89.89v2.78zm-8.25-.1c0 .5.4.89.89.89h1.79c.5 0 .79-.4.79-.89v-2.78c0-.5-.4-.89-.89-.89h-1.89c-.5 0-.89.4-.89.89l.2 2.78z"/><use xlink:href="#B" x="-174.33" y="-1.19"/><use xlink:href="#B" x="-182.58" y="-1.29"/><path d="M281.37 85.18c0 .5.4.89.89.99h5.66c.5 0 .99-.4.99-.99l.1-11.32c0-.5-.4-.99-.89-.99h-5.66c-.5 0-.99.4-.99.89l-.1 11.42z"/></g><path fill="#6c7484" d="M219.58 113.39l4.67-.5.2-21.56-4.67-.6-.2 22.66z"/><path fill="#f2f3f6" d="M341.17 80.02s1.19 8.34-67.35 9.14c-19.37.2-48.58-.3-77.58-.5l-54.44-.5h0-.4l-9.34-.1h0l-66.56-.5 8.44-12.91-5.07 2.68-29.6-.6L13.86 97.8v2.38l16.49.2 20.86-11.62 9.83 4.07.89.4h0c10.63 4.27 19.47 7.55 21.75 7.55l54.93.4 153.77 1.09c34.79.2 55.75-13.61 48.79-22.25z"/><path d="M326.77 71.77s-5.86-4.57-8.34-5.66h-3.48l6.26 6.16s4.86 0 5.56-.5zm-13.21-5.66l5.36 6.16h-7.65l-1.39-6.16z" fill="#6c7484"/><path fill="#f2f3f6" d="M210.15 90.74l-11.13 21.36s-10.93-1.39-15.1-3.58l23.64-17.68 2.59-.1z"/><path fill="#fff" d="M216.5 83.79l-58.8-.4-31 63.28 16.69.2z"/><path fill="#f2f3f6" d="M208.16 88.66l-64.77 58.21h3.38l65.56-58.21z"/><path fill="#fff" d="M73.96 74.65L30.55 98l-16.69-.2 26.22-23.45z"/><defs ><path id="B" d="M272.23 80.51c0 .5.4.89.89.89h1.79c.5 0 .89-.4.89-.89v-2.78c0-.5-.4-.89-.89-.89h-1.79c-.5 0-.89.4-.89.89v2.78z"/><path id="C" d="M197.53 80.02c0 .5.4.89.89.89h1.79c.5 0 .89-.4.89-.79v-2.78c0-.5-.4-.89-.89-.89h-1.79c-.5 0-.89.4-.89.89v2.68z"/></defs></svg>