<svg xmlns="http://www.w3.org/2000/svg" xmlns:xlink="http://www.w3.org/1999/xlink" viewBox="0 0 300 325">
  <defs/>
  <path fill="#FFF" d="M4.32 169.52c-3.98-13.45 22.81-24.5 33.26-27.09 5.58 6.37 10.86 12.95 13.84 21.11.9-9.96 2.29-19.72.3-29.58 4.18-2.59 8.96-3.29 13.64-4.28 12.85 10.86 39.64 10.96 52.39-.1 4.58 1.1 9.36 1.79 13.54 4.28-1.99 9.66-.7 19.22.1 29.98 2.49-4.68 3.69-8.76 6.57-11.85.9 5.18 2.29 11.75 8.96 11.95-.7 1.89-.8 3.69.2 5.48-2.09 5.38-3.09 10.56 1.29 15.34v1.69c-7.67-2.79-12.15-8.76-16.13-15.54 3.69 12.55 1.2 26.39-.4 39.24-26.59-.3-53.68-.4-80.17-.3 1.29-7.47 2.89-15.04-1.2-22.21.8-5.58.2-11.15-.1-16.73 1-1.29 1.49-2.59.4-4.28-12.65 5.68-26.39-9.06-38.05 2.09-3.16 2.59-5.35 3.19-8.44.8z"/>
  <path fill="#005F6F" d="M191.06 112.15c10.76-16.53 56.27-14.44 73.7-14.14 10.86-1.69 8.17-40.34 6.47-49.3 59.96-3.19-7.47 24.3 7.87 37.75 3.49 5.68 19.22 18.13 16.63 24-1.2 2.29-3.59 2.49-5.78 2.29-31.56-2.59-67.32 2.49-98.89-.6z"/>
  <path fill="#FFF" d="M102.62 244.92c-.2-1.49-.3-3.09-.5-4.58 2.09-9.16-10.56-14.34-17.13-9.26-5.98 2.99-4.18 8.96-5.18 14.44l-28.48-.3c-.2-7.67-.9-15.34-.2-23.01 26.59 0 53.28.2 80.27 0 .4 7.77.4 15.54 0 23.31-9.56-.51-19.22.59-28.78-.6z"/>
  <path fill="#FFF" d="M4.22 169.52c3.09 2.29 5.38 1.79 8.37-.8 11.65-11.15 25.4 3.59 38.05-2.09 1.1 1.69.6 3.09-.4 4.28-1.39 1.49-4.88 0-4.88 3.19-2.59 18.62 12.55 6.47 6.27 35.75-1.39.9-.7 2.59-1.39 3.78-.7 0-.4 0 .1-.1.7 1.79.5 5.58-.3 7.37-6.57.7-7.07-6.87-14.94-5.48-14.24.6-2.79-7.17-7.67-11.35-6.17-2.79-6.47-11.45-7.37-10.96-5.78-.2-10.36-3.09-14.74-6.27-4.08-3.09-.4-7.47 1-10.96 3.18-1.78-2.7-3.57-2.1-6.36zM79.81 253.48c.2 17.43-1 34.76-1.49 52.19-7.27.7-14.64 1.29-21.91 1.99 1.2-9.46-7.47-14.14-10.56-21.51 7.97-2.69 4.58-9.36 4.68-14.44.1-6.08.5-12.15.5-18.23h28.78z" opacity=".8"/>
  <path fill="#2C3E50" d="M45.95 286.15c3.09 7.37 11.65 12.05 10.56 21.51-10.16.5-20.32 0-30.48-1-2.49-16.73 4.78-19.52 19.92-20.51zM49.14 133.37c1-.1 1.79.2 2.49.7 1.99 9.86.6 19.62-.3 29.58-2.99-8.17-8.27-14.74-13.84-21.11.2-3.39 2.89-5.58 4.18-8.37 1.39 0 2.59-.5 3.69-1.29 1.29-.11 2.58.29 3.78.49z"/>
  <path fill="#4B4E4E" d="M26.03 306.56c17.43 2.19 34.96.9 52.39-.9 3.49 8.76-37.75 5.58-43.62 5.78-3.39-.49-11.46 1.1-8.77-4.88z"/>
  <path fill="#2C3E50" d="M79.81 253.48H51.13c-.3-2.79-.5-5.58.2-8.37l28.48.3v8.07z"/>
  <path fill="#FFF" d="M103.22 262.34c0-.9-.1-7.37-.1-8.37 9.26-1.59 18.92-.1 28.38-.6.3 8.57.5 17.13.8 25.6.1 2.69-.6 5.78 3.59 6.17.9.1 1.69 1.2 1.99 2.19-6.37 5.18-10.96 11.55-11.75 20.02-7.17-.3-14.34-1-21.41-1.89-1.2-12.84-.81-34.95-1.5-43.12zM141.56 129.68c2.69-.8 4.98-1.59 6.77-3.39 1 3.98 3.49 1.69 4.28-1.69 12.65 1.79 13.54 18.03 12.45 25.1-2.09 11.65-7.47 15.14-18.23 14.44-14.94-.9-5.48-28.09-9.76-31.17 1.2-3.39 4.69-3.78 4.49-3.29zM152.72 187.85c-.7-2.59 1.39-8.76-2.09-9.16-3.29.1-1.79 4.18-2.19 6.27-4.38-4.78-3.39-9.96-1.29-15.34 13.54 1.89 14.44-.1 21.51-10.46 9.06 6.77 13.64 19.22 3.49 27.29h.1c-6.49 2.19-12.96 2.99-19.53 1.4z" opacity=".8"/>
  <path fill="#2C3E50" d="M131.5 253.38c-9.36.5-19.12-1-28.38.6-1.2-2.99-.5-6.08-.5-9.16 9.56 1.2 19.12.2 28.68.6.1 2.68.1 5.37.2 7.96z"/>
  <path fill="#4B4E4E" d="M148.33 307.36v3.98c-5.68-.1-47.31 3.19-43.62-5.78 14.44 2 28.98 2.8 43.62 1.8z"/>
  <path fill="#2C3E50" d="M168.55 159.16c-7.07 10.36-8.07 12.35-21.51 10.46-1-1.79-1-3.59-.2-5.48 8.86.1 14.54-.6 17.43-11.15 1.39 2.09 2.89 4.08 4.28 6.17zM80.61 241.03c-3.49-14.94 24.3-15.94 21.61-.7-6.27-7.37-14.64-8.76-21.61.7zM152.62 307.06c0-5.58 0-12.45.1-18.03 5.88 2.49 7.17 12.55 4.48 17.73-1.6 0-3.09.2-4.58.3z"/>
  <path fill="#4B4E4E" d="M152.62 192.03c0-1.2 0-2.29.1-3.49 6.57 2.19 12.95 2.49 19.22-.8-3.19 7.58-12.95 5.78-19.32 4.29z"/>
  <path fill="#FFF" d="M171.94 187.75c-6.27 3.29-12.75 2.99-19.22.8v-.7c6.57 1.59 13.05.9 19.42-1.39-.1.39-.2.89-.2 1.29z"/>
  <path fill="#4B4E4E" d="M152.62 307.06c1.49-.1 2.99-.2 4.48-.4 1.29 4.38-1.59 4.48-4.48 4.38v-3.98z"/>
  <path fill="#2C3E50" d="M93.26 210.06c0-.1 0-.1 0 0-13.64-.1-27.39-.1-41.13-.1-1.79.9-.9 2.59-1.79 3.78-.2 2.49 1.49 4.88-.2 7.27.4.4.9.7 1.29 1.1h40.73v.1c13.05 0 26.09-.1 39.14-.1.7-3.88.3-7.97.6-11.95-12.95 0-25.8-.1-38.64-.1zM57.9 132.07c1-2.49 4.58-.7 5.58-3.39 15.24 11.55 39.84 10.96 55.97.9 1.39 1.49 5.48.6 6.47 2.29-6.47 5.58-21.01 11.55-34.96 11.45-13.74.01-26.78-5.87-33.06-11.25z"/>
  <path fill="#4B4E4E" d="M131.6 221.01c0-1.69.1-3.29.1-4.98 9.66-2.79 4.78-15.04 5.98-22.41 1.59-8.37-3.59-14.74-5.38-22.61 3.88 6.77 8.47 12.75 16.13 15.54 0 1.2-.1 2.39-.1 3.59-2.49.1-4.18-2.19-6.97-2.29-1.89 10.26 6.08 33.46-9.76 33.16z"/>
  <path fill="#2C3E50" d="M136.98 132.97c1.1.6 1.79 1.49 1.49 2.79-1.2 5.48-.4 10.96-.6 16.43-2.89 3.09-4.08 7.17-6.57 11.85-.8-10.76-2.09-20.32-.1-29.98 1.9-.59 3.79-1.29 5.78-1.09z"/>
  <path fill="#EBF0F0" d="M134.09 177.99c4.08 4.58 3.69 10.16 3.59 15.64-1.2 7.37 3.69 19.62-5.98 22.41.8-12.66 2.69-25.3 2.39-38.05z"/>
  <path fill="#2C3E50" d="M45.25 178.68c-1.1-.2-2.19-.3-3.29-.4.8-3.39 1.2-9.46.4-10.36-.7-.9-5.48-1.59-5.88-.4-.3.9 1.89 7.77 2.69 10.76-9.06.3-17.83 5.18-18.92 15.04 1 1.2 2.99 1.79 4.38 2.29 8.77-17.62 25.5-7.66 20.62-16.93zM137.78 287.44c3.49-.4 7.07-1.39 10.56.1v19.82c-7.37.4-14.84.7-22.21.1.69-8.46 5.27-14.74 11.65-20.02z"/>
  <g fill="#CCD1D9">
    <path d="M116.56 21.42h4.18v19.02h-4.18zM62.48 21.42h4.18v19.02h-4.18z"/>
  </g>
  <path fill="#00A7C0" d="M123.93 19.13h-18.82l-5.78 11.55L85.29 2.5l-8.27 16.63H59.2v4.18h20.42l5.78-11.45 14.04 28.19 8.27-16.63h16.33v-4.28h-.11v-.01z"/>
  <path fill="#E6E9ED" d="M124.93 42.04c.2-3.69-8.57-1.49-10.36-2.09-1.2 0-2.09.9-2.09 2.09v20.52c-.2 3.69 8.57 1.49 10.36 2.09 1.2 0 2.09-.9 2.09-2.09V42.04zM124.93 21.22c.1 8.07-12.65 8.07-12.45 0-.2-8.06 12.55-8.06 12.45 0zM70.75 42.04c.2-3.69-8.57-1.49-10.36-2.09-1.2 0-2.09.9-2.09 2.09v20.52c-.2 3.78 8.57 1.59 10.36 2.19 1.2 0 2.09-.9 2.09-2.09V42.04zM70.75 21.22c.1 8.07-12.65 8.07-12.45 0-.1-8.06 12.55-8.06 12.45 0z"/>
  <path fill="#FFF" d="M138.77 92.14c-1.49 62.84-95.01 62.15-95.71-.7 1.49-62.85 95.01-62.15 95.71.7z"/>
  <path fill="#005F6F" d="M129.91 92.04c-1.2 51.29-77.49 50.69-77.98-.6 1.19-51.19 77.48-50.7 77.98.6z"/>
  <path fill="#00A7C0" d="M124.33 91.24c-1.2 47.61-72.01 47.11-72.51-.5.6-47.41 72.71-46.91 72.51.5z"/>
  <path fill="#196F7D" d="M124.33 91.24c-1.2 47.61-72.01 47.11-72.51-.5.6-47.41 72.71-46.91 72.51.5z"/>
  <defs>
    <path id="a" d="M124.33 91.24c-1.2 47.61-72.01 47.11-72.51-.5.6-47.41 72.71-46.91 72.51.5z"/>
  </defs>
  <clipPath id="b">
    <use overflow="visible" xlink:href="#a"/>
  </clipPath>
  <g clip-path="url(#b)">
    <path fill="#FFF" d="M102.42 117.93c1.79-2.49 7.17-9.56 7.37-12.75l1.89 1c1.39-3.49 7.47-5.88 7.77-9.96-1.49-5.78-3.49-7.07-8.76-9.46-1.2-1.79-5.78-6.57-7.37-8.27l-6.17-1.89-6.57 4.68-7.77-3.29-6.17 1.2-3.69 5.18-1.89 4.68-3.49-1.1-2.89 1-2.79 2.19-1.29 3.19-.1 2.79 1.29 2.89 2.39 2.59 1.69.3 1.69 2.19 2.79-1.2c4.98 12.85 19.12 23.9 32.07 14.04z"/>
    <path d="M72.24 118.03c-2.29-3.69-3.19-7.67-3.09-12.05h-.3c-.2.5-.5 1-.7 1.39-2.99-4.48 2.69-9.06 1.69-13.64-.8-1.2-.3-4.68-2.09-4.58-7.07 1.89-8.07 8.66-2.49 13.15 1.29 1.1.7 2.49 1.1 4.18-8.96-5.78-9.36-18.63 2.1-21.02 1 0 1-.1 1.29-1.1 2.69-11.85 13.05-20.72 25-22.21-.3.4-.7.9-1.1 1.59.9-.1 1.59-.1 2.39-.2-2.09 2.99 1.39 4.08 3.59 4.98.2.2.5.1.4-.3 1.29.2 2.39 1.69 3.59 2.59.1-.4.1-.7.2-.9 3.49 4.18 6.87 8.96 7.17 14.54 0 .7.3 1 1 1.1 11.06 3.39 9.66 15.34 1.49 21.01-.5-6.47 13.05-12.05-2.19-17.53-5.48 12.25 4.08 7.67.4 19.02-.3-.8-.6-1.29-.8-1.79.3 4.38 0 8.57-3.59 11.95-.1-1 .1-1.89-.6-2.89 0 3.98-1.69 6.77-5.38 8.27-.2-.8-.4-1.59-.7-2.39-1 2.99-2.99 5.58-6.37 5.58.2-.6.4-1.2.7-1.99-4.48 1.1-5.78 4.68-9.76-.2-.2.8-.5 1.39-.8 2.39-1.39-2.69-3.29-4.58-5.88-6.37.2 1 .2.9.6 1.79-2.99-1.39-4.98-3.59-6.57-6.47-.1.91-.2 1.5-.3 2.1zm12.15-22.11c-3.09 1.79-8.66 4.18-8.57 8.17 9.06-3.09 19.32-1.99 28.48-.6-.2-3.98-5.98-6.57-9.46-7.97.1.4.1.6.2.8-3.09-2.39-7.07-2.79-10.06 0-.1-.1-.2-.2-.4-.2l.2-.2h-.39zm11.85-.4c-.1-.1-.2-.2-.3-.2 5.28 3.29 7.47 3.69 10.86-2.19 3.49-10.46-7.77-17.23-15.74-9.06-1.49 1.49-5.38-3.69-8.47-3.49-9.56-1.39-13.35 14.04-4.18 17.43 1.99-.1 3.98-1.69 5.88-2.59-3.78.3-10.46-2.99-6.87-7.27-.4-.3-.8-.6-1.2-1 1-.8 1.89-1.49 2.79-2.29 2.99 2.39 5.88 4.58 8.66 6.87.1 0 .2-.1.2-.1-.2-1.2-.4-2.39-.6-3.69 1.29 1.49 1 4.78 2.89 5.28 1.89 0 1.49-3.98 2.99-5.18-.2 1.2-.4 2.49-.6 3.98 2.89-2.29 5.38-4.28 8.17-6.57 1.1-1.1 2.39 1.29 3.49 1.79-.5.3-.9.6-1.2.8 3.39 4.49-2.98 7.58-6.77 7.48zm-5.97 7.07c-16.13.3-18.82 5.88-5.38 15.64 7.97 4.98 16.73-2.79 19.62-10.16-.3-5.68-9.96-4.88-14.24-5.48zm-3.89-9.76c-2.39-1.2-5.18-3.69-7.67-3.69-2.18 3.59 5.38 6.18 7.67 3.69zm7.67 0c2.29 2.39 9.56 0 7.87-3.59-2.39-.49-5.58 2.6-7.87 3.59z"/>
    <path d="M113.38 100.5c-.3-2.19-2.19-3.39-2.49-5.28.9-5.28 7.47-.4 4.98 3.29-.1-1 .3-2.19-1.1-2.89-.6 1.69-.4 3.29-1.39 4.88zM66.47 100c-.9-1.2-.6-2.79-1.2-4.18-.9.3-1 1.1-1.2 1.79-.69-5.57 9.27-7.76 2.4 2.39zM94.85 62.16v-.1h-.1zM103.71 69.83v.1zM72.24 118.03l.1.1-.1-.1zM93.16 88.05c0-.1.1-.2.1-.3.1.1-.1.1-.1.3zM95.35 97.61c-1 .1-1.89 0-2.79.5-3.19-1.19 1.1-4.18 2.79-.5zM85.09 96.32c1.59-1.1 4.68-.1 2.39 1.69-1.1-.1-1.79-.7-2.99-.3.2-.59.4-.99.6-1.39zM95.05 96.32v.1-.1z"/>
    <path fill="#00A7C0" d="M83.8 93.83c-6.97-.2-8.96-9.36 2.69-1-.8.8-1.8.9-2.69 1zM95.15 93.53c-.5-.1-.7-.3-1.1-.7 12.55-9.06 9.17 2.39 1.1.7z"/>
  </g>
  <path fill="#00A7C0" d="M55.21 85.16c-.1-4.48 1.39-10.66 7.97-18.03C67.86 61.96 82.2 54.59 83 59.27c.1.5-.1 1.29-2.29 1.79-5.98 1.1-10.56 3.29-14.84 7.67-4.58 4.58-6.97 9.56-7.57 15.94-.3 3.68-2.99 2.29-3.09.49zM88.28 58.17c0 2.19-3.49 2.19-3.49 0s3.49-2.19 3.49 0z"/>
  <g>
    <path fill="#4B4E4E" d="M100.93 224.9H83.2c-1.59 0-2.79-1.29-2.79-2.79v-12.65c0-1.59 1.29-2.79 2.79-2.79h17.73c1.59 0 2.79 1.29 2.79 2.79v12.65c-.01 1.49-1.2 2.79-2.79 2.79z"/>
    <path fill="#FFF" d="M98.14 222.51H86.48c-1.59 0-2.79-1.29-2.79-2.79v-7.87c0-1.59 1.29-2.79 2.79-2.79h11.55c1.59 0 2.79 1.29 2.79 2.79v7.87c.11 1.59-1.19 2.79-2.68 2.79z"/>
  </g>
  <g>
    <path fill="#4B4E4E" d="M109.49 199.2H72.64c-1.59 0-2.79-1.29-2.79-2.79V149.7c0-1.59 1.29-2.79 2.79-2.79h36.85c1.59 0 2.79 1.29 2.79 2.79v46.71c.1 1.6-1.2 2.79-2.79 2.79z"/>
    <path fill="#EBF0F0" d="M106.6 187.45H75.43c-1.59 0-2.79-1.29-2.79-2.79v-17.93c0-1.59 1.29-2.79 2.79-2.79h31.17c1.59 0 2.79 1.29 2.79 2.79v17.93c0 1.59-1.29 2.79-2.79 2.79zM75.13 154.48h8.37v5.78h-8.37zM98.14 154.38h8.37v5.78h-8.37z"/>
    <path fill="#00EBF9" d="M80.41 195.22c-1.39 0-2.49-1.1-2.49-2.49 0-1.39 1.1-2.49 2.49-2.49 1.39 0 2.49 1.1 2.49 2.49 0 1.39-1.1 2.49-2.49 2.49zM91.86 195.22c-1.39 0-2.49-1.1-2.49-2.49 0-1.39 1.1-2.49 2.49-2.49 1.39 0 2.49 1.1 2.49 2.49 0 1.39-1.09 2.49-2.49 2.49zM103.12 195.22c-1.39 0-2.49-1.1-2.49-2.49 0-1.39 1.1-2.49 2.49-2.49 1.39 0 2.49 1.1 2.49 2.49-.1 1.39-1.2 2.49-2.49 2.49z"/>
  </g>
  <path fill="#4B4E4E" d="M150.82 136.46c-1.39 0-2.59-1.2-2.59-2.59V40.74c0-1.39 1.2-2.59 2.59-2.59s2.59 1.2 2.59 2.59v93.12c.1 1.4-1.09 2.6-2.59 2.6zM150.42 322.5c-1.39 0-2.59-1.2-2.59-2.59V166.14c0-1.39 1.2-2.59 2.59-2.59s2.59 1.2 2.59 2.59v153.78c0 1.38-1.19 2.58-2.59 2.58z"/>
  <path fill="#00A7C0" d="M191.06 111.96c-2.99-3.59 7.57-10.16 11.06-10.86 7.57-1.49 6.08-8.47-1.49-7.27-16.13 2.39-40.44 4.88-51.89 10.36-1.2-20.32-.3-40.83-.4-61.25 0-1.69-.9-2.79-1.79-3.98-1.89-2.79-1.29-5.98 1.29-7.57 7.87-4.18 5.78 7.47 12.15 4.68 15.04-2.69 112.54-17.63 110.45 7.17 2.89 17.43 4.58 35.85-1.69 52.79-.8 1.99-1.79 2.69-3.88 2.39-11.65-1.79-22.81.4-33.46 5.08-4.2 1.88-38.36 3.48-40.35 8.46z"/>
  <g fill="#FFF">
    <path d="M161.66 60.01l-.2-8.14-2.86.34-.19-3.99 8.99.07.07 2.84-3.3.4.71 7.91-3.22.57z"/>
    <path d="M174.01 59.29L172 55.22c-.39.25-.85.45-1.2.59l.5 3.09-3.23.68-.88-11.38c1.02-.29 2.15-.47 3.24-.53 2.84-.15 5.47.61 5.59 3 .07 1.25-.64 2.33-1.91 3.29l2.97 3.53-3.07 1.8zm-3.68-6.08c1.5-.32 2.68-1.08 2.63-2.02-.04-.87-.72-1.09-1.46-1.05-.58.03-1.22.21-1.64.37l.47 2.7z"/>
    <path d="M183.43 58.42l-.85-2.7-2.88.25-.32 2.4-3.41.36 2.47-11.44 3.84-.52 4.62 11.3-3.47.35zm-2.76-8.11l-.67 3.57 1.96-.1-1.29-3.47zM193.91 58.19l-4.41-6.12.59 6.02-3.21-.16-.8-10.1 3.45-.84 3.25 5.47-.52-5.68 3.74-.4-.41 11.37-1.68.44zM197.38 53.78c1.11.69 2.27.96 3.21.91 1.15-.06 1.94-.6 1.9-1.42-.1-1.88-6.19-.11-6.38-3.72-.15-2.78 2.5-3.63 5.04-3.77 1-.05 1.98.02 2.76.11l.05 2.74c-.52-.2-1.68-.41-2.69-.35-.89.05-1.64.31-1.61.97.08 1.52 6.36-.98 6.62 4.04.15 2.84-2.47 4.23-5.22 4.38-2.02.11-4.08-.46-5.19-1.63l1.51-2.26zM207.22 57.47l-1.44-11.24c1.1-.49 2.39-.77 3.6-.83 3.96-.21 6.19 1.28 6.34 4.08.11 2.05-1.73 4.15-5.69 4.37l.65 3.2-3.46.42zm2.28-6.24c1.27-.32 2.55-.97 2.5-2.02-.05-.96-.82-1.29-1.7-1.24-.46.02-.95.16-1.37.36l.57 2.9zM222.2 56.39l-.85-2.7-2.88.25-.32 2.4-3.41.36 2.47-11.43 3.84-.52 4.62 11.3-3.47.34zm-2.76-8.11l-.67 3.57 1.96-.1-1.29-3.47z"/>
    <path d="M231.44 56.28l-2.01-4.07c-.39.25-.85.45-1.2.59l.5 3.09-3.23.68-.88-11.38c1.02-.29 2.15-.47 3.24-.53 2.84-.15 5.47.61 5.59 3 .07 1.25-.64 2.33-1.91 3.29l2.97 3.53-3.07 1.8zm-3.68-6.08c1.5-.32 2.68-1.08 2.63-2.02-.04-.87-.71-1.09-1.46-1.05-.58.03-1.22.21-1.64.37l.47 2.7z"/>
    <path d="M234.65 55.56l-1.42-10.89 6.99-1.21.33 2.57-4.08.69.23 1.52 3.2-.41.36 2.36-3.14.43.31 1.6 4.01-.61.4 3.66-7.19.29zM249.13 55.29l-4.41-6.12.59 6.02-3.21-.16-.8-10.1 3.45-.84 3.25 5.47-.52-5.68 3.74-.4-.41 11.37-1.68.44z"/>
    <path d="M254.38 55.15l-.2-8.14-2.86.34-.19-3.99 8.99.07.07 2.84-3.3.4.71 7.91-3.22.57z"/>
    <g>
      <path d="M183.64 86.14c-5.65.3-10.63-3.92-10.94-9.9-.32-6.16 3.39-11.47 10.17-11.83 6.92-.36 11.04 4.77 11.34 10.5.34 6.55-4.69 10.92-10.57 11.23zm4.03-10.63c-.12-2.2-1.68-4.47-4.39-4.33-2.74.14-4.41 2.24-4.26 5.18.12 2.37 1.69 4.61 4.79 4.45 2.52-.13 4.02-2.31 3.86-5.3zM194.23 65.12c1.18-.15 2.37-.27 3.55-.33 8.5-.45 14.94 2.58 15.29 9.16s-7.32 11.57-15.57 12c-.79.04-1.58.03-2.38-.02l-.89-20.81zm5.96 14.21c4.23-.25 6.22-2.79 6.1-5.16-.12-2.2-2.06-4.25-5.68-4.06-.14.01-.31.04-.48.05l.06 9.17zM213.18 64.12c1.18-.15 2.36-.27 3.55-.33 8.5-.45 14.94 2.59 15.29 9.17s-7.32 11.57-15.57 12c-.79.04-1.58.03-2.38-.02l-.89-20.82zm5.95 14.21c4.23-.25 6.22-2.79 6.1-5.16-.12-2.2-2.06-4.25-5.68-4.06-.14.01-.31.04-.48.05l.06 9.17z"/>
      <path d="M234.07 76.17c2.11 1.3 4.29 1.81 6.06 1.72 2.17-.11 3.68-1.13 3.6-2.68-.19-3.56-11.7-.21-12.06-7.04-.28-5.25 4.74-6.87 9.54-7.12 1.89-.1 3.74.03 5.22.21l.1 5.18c-.98-.37-3.18-.77-5.08-.67-1.69.09-3.11.59-3.05 1.83.15 2.88 12.02-1.85 12.52 7.64.28 5.37-4.68 8-9.87 8.28-3.81.2-7.72-.87-9.82-3.08l2.84-4.27z"/>
    </g>
  </g>
</svg>
