<svg xmlns="http://www.w3.org/2000/svg" width="140" height="235"  xmlns:v="https://vecta.io/nano"><path fill="#f3b723" d="M123.81 200.54c-.8-1.43-1.35.17-2.9-1.05-1.6-1.22-2.9-3.45-3.58-5.22-.67-1.72-4.59-4.71-4.59-4.71-8.33-16.62-6.77-39.08-14.22-60.16 2.44-23.73 1.43-47.87-2.52-71.01-1.35-15.23-20.61-24.06-15.61-39.84 4.08-7.11-2.23-9.17-8.33-9.76-9.38-1.22 4.16 14.51-14.39 24.86-22.51 13.76-23.56 62.6-17.84 102.06-5.3 19.14-4.75 38.87-12.28 53.89 0 0-3.91 2.94-4.59 4.71-.67 1.72-2.02 4-3.58 5.22-1.6 1.22-2.15-.38-2.9 1.05-.63 5.01 7.15-4.21 7.28-4.88.63-1.01-1.6 4-3.45 6.14-1.85 2.15-1.98 1.14-2.61 2.31-.67 1.18 1.6 1.85 2.65.25 1.09-1.6 2.69-4.25 3.53-6.14.84-1.85.17 4.08-.17 4.92s-1.26 1.22-1.22 2.02c.04.76 2.99 1.22 2.99-1.05s.93-6.48 2.65-9.26c4.08-9.42 7.19-11.82 12.03-28.48.84-4.42 1.01-8.29 2.02-13.55 1.22 5.97 2.82 11.36 4.25 16.24.17 3.16.59 5.38.88 8.88 5.05 56.37-22.17 48.51-22.17 48.51.34-3.37-4.75-.93-2.94 1.26.88.97 7.7-.17 10.39 0s-6.06 2.06-7.95 2.44-1.09-1.39-2.82-.76c-1.72.63-1.98 3.91 3.83 2.78 5.81-1.14 11.61-3.53 14.98-7.03 2.61-2.69 11.65-19.18 16.49-31.93 2.48 4.04 5.38 7.19 8.2 6.44 2.73-1.14 5.55-1.26 8.5-.04 3.62 1.51 4.92.88 6.73-2.52.76-1.64 1.47-3.32 2.19-4.96 4.71 12.83 14.22 30.25 16.91 33.02 3.37 3.45 9.17 5.89 14.98 7.03s5.55-2.15 3.83-2.78-.88 1.14-2.82.76c-1.89-.34-10.64-2.23-7.95-2.44 2.69-.17 9.51.97 10.39 0 1.81-2.19-3.24-4.63-2.94-1.26 0 0-27.22 7.87-22.17-48.46.72-8.04 1.05-15.23 1.14-21.71.8-3.53 1.51-7.11 2.1-10.73 2.06 7.36 2.65 14.72 3.87 20.82 4.84 16.7 7.95 19.01 12.03 28.48 1.72 2.78 2.69 6.94 2.65 9.26-.04 2.57 5.09 2.31 1.77-.93-.34-.84-1.01-6.82-.17-4.92.84 1.85 2.48 4.54 3.53 6.14 1.09 1.6 3.32.88 2.69-.25-.67-1.18-.76-.13-2.61-2.27-1.89-2.19-4.12-7.19-3.45-6.18.13.58 7.87 9.79 7.29 4.79h0z"/><path fill="#fee549" d="M95.2 155.98v-.08.08z"/><path d="M58.6 34.15C39.75 53.97 42.57 79.92 38.45 105c1.01-23.86-2.36-55.79 20.15-70.85zm-2.31 7.91c-.25-2.19 5.55-9.13 6.86-5.22 2.31 3.5-6.23 11.2-6.86 5.22z" fill="#fefefe"/><path fill="#342525" d="M61.71 87.46c12.41 14.6-1.77 26.71-14.26 12.24-12.41-14.6 1.77-26.76 14.26-12.24h0z"/><path fill="#695e5e" d="M56.08 85.65c-.5 1.47-6.35-.97-5.68-2.4.54-1.47 6.39.97 5.68 2.4z"/><path fill="#342525" d="M75.51 87.03c-12.41 14.6 1.77 26.71 14.26 12.24 12.41-14.63-1.76-26.75-14.26-12.24h0z"/><path fill="#695e5e" d="M86.2 82.66c.93 1.26-4.38 4.71-5.17 3.32-.93-1.26 4.41-4.71 5.17-3.32z"/><path fill="#342525" d="M50.14 38.4c2.27-2.57 5.13-4.92 8.96-7.32 8.25-4.12 7.95-12.2 7.74-18.64-.13-4.16-.25-7.74 1.98-9.26 2.15-1.47 6.31-.76 13.17 2.19 2.99 1.81 3.58 3.83 2.15 7.15-6.94 11.36-1.43 19.23 4.42 27.55 3.66 5.22 7.45 10.64 8.54 17.25 5.93 27.98 5.43 59.36-1.64 98.65-.97 5.26-3.7 18.68-8.37 30.33-4.71 11.78-9.93 18.13-15.48 18.89-.38.08-.76.08-1.18.08h0c-5.89 0-12.03-6.31-18.26-18.8-8.5-18.72-14.77-47.41-16.32-74.76C34 79.49 38.88 53.66 49.52 38.97l.62-.57zm.38 1.6C38.74 55.53 38.2 75.3 37.82 94.65l-.29 11.19c1.22 32.69 5.01 66.55 24.02 92.59 1.47 1.81 3.45 1.26 5.68.67 2.1-.55 4.5-1.18 6.69.34 3.41 1.43 4.67.93 6.44-2.44 18.3-40.05 23.77-89.27 15.36-138.53-.67-6.48-4.63-12.03-8.46-17.42-5.76-8.12-11.57-15.69-6.23-25.96.59-1.22.72-2.06-.5-2.99-2.15-1.85-8.46-4.25-11.06-2.73-.97.59-1.3 1.68-1.01 3.28 2.19 11.82-1.98 14.85-10.18 20.91-2.73 1.51-5.38 3.58-6.77 5.26L50.52 40z"/><path fill="#fefefe" d="M71.89 5.59c.04 1.26-2.31 1.98-2.73.88-.25-1.34 2.35-2.31 2.73-.88z"/></svg>