<svg xmlns="http://www.w3.org/2000/svg" viewBox="0 0 380 380"  xmlns:v="https://vecta.io/nano"><path fill="#ee9500" d="M216.04 302.98c0 35.88-26.04 72.36-26.04 72.36s-26.04-36.48-26.04-72.36c0-13.26 11.66-28.75 26.04-28.75s26.04 15.49 26.04 28.75z"/><path fill="#f8c060" d="M206.66 294.9c0 24.92-16.66 53.29-16.66 53.29s-16.66-28.37-16.66-53.29c0-8.59 7.46-15.56 16.66-15.56s16.66 6.97 16.66 15.56z"/><path fill="#533505" d="M261.9 184.84c-8.24-10.31-24.31-16.46-43.01-16.46l-1.54.02h-.15c.88-17.45 2.6-55.88 2.6-91.27 0-49.68-25.6-70.58-26.69-71.45L190 3.2l-3.11 2.47c-1.09.87-26.69 21.77-26.69 71.45 0 35.78 1.75 74.67 2.63 91.84-12.07.83-21.14 5.48-26.97 13.85-11.44 16.43-5.45 40.06-3.35 46.91 6.37 20.72 19.14 53.22 19.22 53.44 2.98 8.93 12.6 14.77 7.19-2.81-13.68-55.15-6.35-67.35 7.72-73.55a1363 1363 0 0 0-.03 8.82c0 19.89 2.77 78.2 11.5 78.2 4.12 0 2.3-18.56 3.69-19.88 1.5 4.21 7.12 14.77 7.12 14.77l4.99-6.24c17.41-21.79 21.15-47.8 22.46-68.03.19-2.91.28-5.63.3-8.21 3.19.23 11.84 1.56 17.79 9.25 16.2 20.95.47 52.46-3.59 72.59-1.57 5.41.22 8.61 3.54 5.3 7.4-7.12 14.56-27.36 20.24-40.15 4.45-10.02 8.7-23.96 12.65-41.42 2.32-10.32.45-19.64-5.4-26.96z"/><path fill="#f3b723" d="M215.39 201.17s41.27-.61 28.94 59.68c-.79 1.38 8.15-6.22 18.08-50.17 6.15-27.23-21.75-37.74-44.96-37.29l-2.06 27.78zm-48.75.21l-2.86-27.48c-32.43 1.83-32.89 33.53-26.49 54.35s14.53 42.73 14.53 42.73c-8.37-41.67-5.52-60.79 14.82-69.6z"/><path fill="#fff" d="M190 9.59s-24.8 19.7-24.8 67.53 3.1 100.56 3.1 100.56 7.15-15.97 21.7-10.91c14.54-5.05 21.7 10.91 21.7 10.91s3.1-52.72 3.1-100.56S190 9.59 190 9.59z"/><g fill="#533505"><circle cx="190" cy="53.38" r="10.99"/><ellipse cx="201.41" cy="129.04" rx="1.84" ry="1.62"/><ellipse cx="202.41" cy="136.81" rx="1.84" ry="1.62"/><ellipse cx="195.97" cy="134.37" rx="1.17" ry="1.03"/></g><path fill="#fee16a" d="M189.3 174.48s1.94-5.94 7.72-4.81 16.61 9.72 14.36 44.45-11.46 52.82-21.38 65.23c-9.34-19.62-10.96-29.74-9.17-52.91-3.8 30.41-2.52 37.99-5.3 37.99s-5.07-21.45-4.92-48.62c.15-28.12.61-43.44 11.21-46.21 4.64-1.21 7.48 4.88 7.48 4.88z"/><path fill="#533505" d="M193.05 181.92c-4.64 19.13-6.56 38.42-5.1 57.93-4.07-19.67-2.83-39.01 5.1-57.93z"/></svg>