<svg xmlns="http://www.w3.org/2000/svg" width="1080" height="1080"  xmlns:v="https://vecta.io/nano"><g fill="#161616"><circle opacity=".31" cx="540" cy="540" r="534.5"/><circle opacity=".37" cx="540.01" cy="539.98" r="443.62"/></g><path opacity=".9" fill="#101b21" d="M896.27 540c0 196.73-159.54 356.27-356.27 356.27S183.73 736.73 183.73 540 343.27 183.73 540 183.73 896.27 343.17 896.27 540z"/><path opacity=".47" fill="#0c0c0c" d="M797.4 540c0 142.15-115.26 257.5-257.5 257.5-142.15 0-257.5-115.26-257.5-257.5s115.26-257.5 257.5-257.5c142.25 0 257.5 115.25 257.5 257.5z"/><path fill="#0a0a0a" d="M703.44 540c0 90.27-73.17 163.54-163.54 163.54-90.27 0-163.54-73.17-163.54-163.54s73.17-163.44 163.54-163.44c90.37-.1 163.54 73.07 163.54 163.44z"/></svg>