<?xml version="1.0" encoding="iso-8859-1"?>
<!DOCTYPE svg PUBLIC "-//W3C//DTD SVG 1.1//EN" "http://www.w3.org/Graphics/SVG/1.1/DTD/svg11.dtd">
<svg version="1.1" id="Layer_1" xmlns="http://www.w3.org/2000/svg" xmlns:xlink="http://www.w3.org/1999/xlink" x="0px" y="0px"
	 viewBox="0 0 350 80" enable-background="new 0 0 350 80" xml:space="preserve">
<rect fill="none" width="350" height="80"/>
<g>
	<path fill="#E6E6E6" d="M335.65,29.19c-2.76-6.59-8.18-12.01-14.77-14.77c-3.43-1.45-7.06-2.18-10.81-2.18h-197.6
		c-30.06,0.25-38.46,41.35-10.81,53.34c3.43,1.45,7.06,2.18,10.81,2.18h197.6C329.3,68.36,343.67,46.66,335.65,29.19z"/>
	<g>
		<path fill="#333333" d="M327.95,22.53c-4.64-4.64-10.82-7.2-17.39-7.2h-197.6c-32.27,0.49-32.34,48.67,0,49.18
			c0,0,197.6,0,197.6,0C331.93,65.04,343.49,37.29,327.95,22.53z"/>
		<path fill="#CCCCCC" d="M310.56,18.5h-197.6c-28.11,0.47-28.18,42.35,0,42.83c0,0,197.6,0,197.6,0
			C338.66,60.87,338.76,18.98,310.56,18.5z"/>
		<g>
			<path opacity="0.6" fill="#EBEBEB" d="M112.97,18.5c-0.12,0-0.23,0.01-0.34,0.01L93.58,48.75c2.87,6.96,9.33,12.41,19.39,12.58
				c0,0,35.42,0,76.27,0l26.98-42.83H112.97z"/>
			<path opacity="0.6" fill="#EBEBEB" d="M310.56,18.5h-51.7l-26.98,42.83c28.87,0,55.35,0,51.53,0L310.56,18.5z"/>
		</g>
	</g>
</g>
<g>
	<g>
		<g>
			<path fill="#E6E6E6" d="M76.69,40.18C76.1-2.84,12.13-4.24,10.33,39.55C10,83.8,76.66,83.47,76.69,40.18z"/>
		</g>
		<g>
			<path fill="#333333" d="M73,40.18C72.47,1.94,15.62,0.7,14.02,39.62C13.73,78.94,72.98,78.65,73,40.18z"/>
		</g>
		<g>
			<g>
				<path fill="#196F7D" d="M70.12,40.38C69.65,5.87,18.34,4.75,16.9,39.87C16.63,75.36,70.1,75.1,70.12,40.38z"/>
				<path fill="#E6E6E6" d="M33.91,38.78c1.43,0.75,2.51,1.92,4.15,1.83c-4.59-2.24-2.1-7.16,1.98-8.05
					c1.82-0.41,2.43,1.99,3.46,3.07c1.04-1.24,1.86-3.8,3.87-2.98c3.82,1.17,5.97,5.61,1.75,7.91c0.58,0.3,1.88-0.3,3.86-1.82
					c4.72,2.59,8.39,10.67,4.48,14.83c-3.6-1.61-7.52-2.1-11.41-2.44C40.99,50.75,35.8,51.31,31,53.03c-0.62,0.05-1.59,1-1.99,0.29
					C26.41,48.03,29.17,41.76,33.91,38.78z M48.48,35.34c-2.71-1.36-4.78,2.37-3.93,4.47c2.23,0.82,6.21-2.79,3.12-4.39
					C47.97,35.39,48.17,35.37,48.48,35.34z M39.34,35.42c-2.95,1.67,0.52,4.68,2.78,4.52c1.9-0.5-0.87-6.46-3.51-4.6
					C38.85,35.37,39.04,35.39,39.34,35.42z"/>
				<path fill="#E6E6E6" d="M30.33,55.5c8.48-3.21,17.86-3.1,26.41-0.01C50.62,63.54,36.52,63.69,30.33,55.5z"/>
				<path fill="#E6E6E6" d="M52.05,33.99c5.44,1.11,6.96-6.69,1.22-7.04c-6.44-0.02-12.89,0.01-19.33,0
					c-5.81,0.03-4.5,8.21,1.02,7.06c-0.98,1.28-1.17,3.69-3.17,2.69c-2.57-0.84-4.15-2.62-4.56-5.27c-0.71-3.88,2.62-7.5,6.58-7.4
					c6.49,0.01,12.98,0.01,19.47,0c3.04-0.01,5.61,1.96,6.36,4.77c1.07,3.77-1.62,7.73-5.55,8.1
					C53.02,36.51,52.81,34.96,52.05,33.99z"/>
				<path fill="#196F7D" d="M48.48,35.34c-0.32,0.03-0.51,0.05-0.81,0.08c3.09,1.6-0.9,5.21-3.12,4.39
					C43.7,37.7,45.78,33.98,48.48,35.34z"/>
				<path fill="#196F7D" d="M39.34,35.42c-0.3-0.03-0.49-0.05-0.73-0.07c2.64-1.86,5.41,4.09,3.51,4.6
					C39.87,40.1,36.4,37.09,39.34,35.42z"/>
			</g>
			<path fill="#F3B723" d="M53.59,30.59H33.7c-0.3,0-0.55-0.25-0.55-0.55s0.25-0.55,0.55-0.55h19.89
				C54.3,29.48,54.31,30.6,53.59,30.59z"/>
		</g>
	</g>
</g>
<g>
	<g>
		<path fill="#A3A3A3" d="M105.49,54.55c-0.18-0.18-0.27-0.4-0.27-0.66V34.28c0-0.24,0.09-0.45,0.27-0.64s0.4-0.29,0.66-0.29h16.04
			c0.24,0,0.45,0.1,0.64,0.29s0.29,0.41,0.29,0.64v1.74c0,0.24,0.09,0.45,0.27,0.63s0.4,0.27,0.66,0.27h1.71
			c0.24,0,0.45,0.1,0.64,0.29c0.19,0.19,0.29,0.41,0.29,0.64v1.72c0,0.23-0.1,0.45-0.29,0.64s-0.41,0.29-0.64,0.29h-1.71
			c-0.26,0-0.48,0.09-0.66,0.28s-0.27,0.4-0.27,0.63v1.75c0,0.24,0.09,0.46,0.27,0.65s0.4,0.29,0.66,0.29h1.71
			c0.24,0,0.45,0.09,0.64,0.27c0.19,0.18,0.29,0.4,0.29,0.66v5.28c0,0.26-0.1,0.48-0.29,0.66s-0.41,0.27-0.64,0.27h-1.71
			c-0.26,0-0.48,0.09-0.66,0.27c-0.18,0.18-0.27,0.4-0.27,0.66v1.71c0,0.26-0.1,0.48-0.29,0.66s-0.41,0.27-0.64,0.27h-16.04
			C105.9,54.83,105.68,54.74,105.49,54.55z M118.62,40.5c0.24,0,0.45-0.1,0.64-0.29s0.29-0.4,0.29-0.64v-1.72
			c0-0.23-0.1-0.45-0.29-0.64c-0.19-0.19-0.41-0.29-0.64-0.29h-5.31c-0.24,0-0.45,0.1-0.64,0.29c-0.19,0.19-0.29,0.41-0.29,0.64
			v1.72c0,0.23,0.1,0.45,0.29,0.64c0.19,0.19,0.41,0.29,0.64,0.29H118.62z M118.62,51.25c0.24,0,0.45-0.09,0.64-0.27
			s0.29-0.4,0.29-0.66v-5.28c0-0.26-0.1-0.48-0.29-0.66c-0.19-0.18-0.41-0.27-0.64-0.27h-5.31c-0.24,0-0.45,0.09-0.64,0.27
			c-0.19,0.18-0.29,0.4-0.29,0.66v5.28c0,0.26,0.1,0.48,0.29,0.66c0.19,0.18,0.41,0.27,0.64,0.27H118.62z"/>
		<path fill="#A3A3A3" d="M134.49,54.55c-0.19-0.18-0.29-0.4-0.29-0.66v-1.71c0-0.26-0.09-0.48-0.27-0.66
			c-0.18-0.18-0.4-0.27-0.66-0.27h-1.71c-0.26,0-0.48-0.09-0.66-0.27s-0.27-0.4-0.27-0.66V34.28c0-0.24,0.09-0.45,0.27-0.64
			s0.4-0.29,0.66-0.29h5.28c0.26,0,0.48,0.1,0.66,0.29c0.18,0.19,0.27,0.41,0.27,0.64v16.04c0,0.26,0.1,0.48,0.29,0.66
			s0.41,0.27,0.64,0.27h5.31c0.24,0,0.45-0.09,0.64-0.27s0.29-0.4,0.29-0.66V34.28c0-0.24,0.09-0.45,0.27-0.64s0.39-0.29,0.63-0.29
			h5.31c0.24,0,0.45,0.1,0.64,0.29s0.29,0.41,0.29,0.64v16.04c0,0.26-0.1,0.48-0.29,0.66s-0.41,0.27-0.64,0.27h-1.71
			c-0.26,0-0.48,0.09-0.66,0.27c-0.18,0.18-0.27,0.4-0.27,0.66v1.71c0,0.26-0.1,0.48-0.29,0.66s-0.41,0.27-0.64,0.27h-12.46
			C134.9,54.83,134.68,54.74,134.49,54.55z"/>
		<path fill="#A3A3A3" d="M156.3,54.55c-0.18-0.18-0.27-0.4-0.27-0.66v-1.71c0-0.26,0.09-0.48,0.27-0.66
			c0.18-0.18,0.4-0.27,0.66-0.27h8.91c0.24,0,0.45-0.09,0.63-0.27c0.18-0.18,0.27-0.41,0.27-0.66V48.6c0-0.26-0.09-0.48-0.27-0.66
			c-0.18-0.18-0.39-0.27-0.63-0.27h-5.33c-0.24,0-0.45-0.1-0.65-0.29c-0.19-0.19-0.29-0.41-0.29-0.65v-1.71
			c0-0.26-0.09-0.48-0.28-0.66c-0.18-0.18-0.4-0.28-0.66-0.28l-1.71,0.03c-0.26,0-0.48-0.1-0.66-0.29
			c-0.18-0.19-0.27-0.41-0.27-0.64v-5.31c0-0.24,0.09-0.45,0.27-0.64s0.4-0.29,0.66-0.29h1.71c0.26,0,0.48-0.09,0.66-0.27
			c0.18-0.18,0.27-0.39,0.27-0.63v-1.74c0-0.24,0.1-0.45,0.29-0.64s0.41-0.29,0.64-0.29H173c0.24,0,0.45,0.1,0.64,0.29
			s0.29,0.41,0.29,0.64v1.74c0,0.24-0.1,0.45-0.29,0.63s-0.41,0.27-0.64,0.27h-8.89c-0.24,0-0.45,0.1-0.64,0.29
			c-0.19,0.19-0.29,0.41-0.29,0.64v1.72c0,0.23,0.1,0.45,0.29,0.64s0.41,0.29,0.64,0.29h5.31c0.24,0,0.45,0.09,0.64,0.27
			c0.19,0.18,0.29,0.39,0.29,0.63v1.74c0,0.24,0.09,0.45,0.27,0.64s0.39,0.29,0.63,0.29H173c0.24,0,0.45,0.09,0.64,0.28
			c0.19,0.18,0.29,0.4,0.29,0.66v5.31c0,0.26-0.1,0.48-0.29,0.66c-0.19,0.18-0.41,0.27-0.64,0.27h-1.74c-0.24,0-0.45,0.09-0.63,0.27
			c-0.18,0.18-0.27,0.4-0.27,0.66v1.71c0,0.26-0.1,0.48-0.29,0.66s-0.41,0.27-0.64,0.27h-12.46
			C156.71,54.83,156.49,54.74,156.3,54.55z"/>
		<path fill="#A3A3A3" d="M181.73,54.55c-0.19-0.18-0.29-0.4-0.29-0.66V37.86c0-0.24-0.09-0.45-0.27-0.64
			c-0.18-0.19-0.4-0.29-0.66-0.29h-5.28c-0.26,0-0.48-0.09-0.66-0.27s-0.27-0.39-0.27-0.63v-1.74c0-0.24,0.09-0.45,0.27-0.64
			s0.4-0.29,0.66-0.29h19.61c0.24,0,0.45,0.1,0.64,0.29s0.29,0.41,0.29,0.64v1.74c0,0.24-0.1,0.45-0.29,0.63s-0.41,0.27-0.64,0.27
			h-5.31c-0.24,0-0.45,0.1-0.64,0.29s-0.29,0.41-0.29,0.64v16.04c0,0.26-0.09,0.48-0.27,0.66c-0.18,0.18-0.39,0.27-0.63,0.27h-5.31
			C182.13,54.83,181.92,54.74,181.73,54.55z"/>
		<path fill="#A3A3A3" d="M203.9,54.55c-0.18-0.18-0.27-0.4-0.27-0.66V37.86c0-0.24,0.09-0.45,0.27-0.64s0.4-0.29,0.66-0.29h1.71
			c0.26,0,0.48-0.09,0.66-0.27c0.18-0.18,0.27-0.39,0.27-0.63v-1.74c0-0.24,0.1-0.45,0.29-0.64s0.41-0.29,0.64-0.29h12.46
			c0.24,0,0.45,0.1,0.64,0.29s0.29,0.41,0.29,0.64v1.74c0,0.24,0.09,0.45,0.27,0.63s0.4,0.27,0.66,0.27h1.71
			c0.24,0,0.45,0.1,0.64,0.29s0.29,0.41,0.29,0.64v16.04c0,0.26-0.1,0.48-0.29,0.66s-0.41,0.27-0.64,0.27h-5.31
			c-0.24,0-0.45-0.09-0.63-0.27s-0.27-0.4-0.27-0.66v-5.28c0-0.26-0.1-0.48-0.29-0.66c-0.19-0.18-0.41-0.27-0.64-0.27h-5.31
			c-0.24,0-0.45,0.09-0.64,0.27c-0.19,0.18-0.29,0.4-0.29,0.66v5.28c0,0.26-0.09,0.48-0.27,0.66c-0.18,0.18-0.4,0.27-0.66,0.27
			h-5.28C204.3,54.83,204.08,54.74,203.9,54.55z M217.02,44.1c0.24,0,0.45-0.1,0.64-0.29s0.29-0.41,0.29-0.64v-5.31
			c0-0.24-0.1-0.45-0.29-0.64s-0.41-0.29-0.64-0.29h-5.31c-0.24,0-0.45,0.1-0.64,0.29s-0.29,0.41-0.29,0.64v5.31
			c0,0.24,0.1,0.45,0.29,0.64s0.41,0.29,0.64,0.29H217.02z"/>
		<path fill="#A3A3A3" d="M236.8,54.55c-0.18-0.18-0.27-0.4-0.27-0.66V34.28c0-0.24,0.09-0.45,0.27-0.64s0.4-0.29,0.66-0.29h16.04
			c0.24,0,0.45,0.1,0.64,0.29s0.29,0.41,0.29,0.64v1.74c0,0.24,0.09,0.45,0.27,0.63s0.4,0.27,0.66,0.27h1.71
			c0.24,0,0.45,0.1,0.64,0.29c0.19,0.19,0.29,0.41,0.29,0.64v1.72c0,0.23-0.1,0.45-0.29,0.64s-0.41,0.29-0.64,0.29h-1.71
			c-0.26,0-0.48,0.09-0.66,0.28s-0.27,0.4-0.27,0.63v1.75c0,0.24,0.09,0.46,0.27,0.65s0.4,0.29,0.66,0.29h1.71
			c0.24,0,0.45,0.09,0.64,0.27c0.19,0.18,0.29,0.4,0.29,0.66v5.28c0,0.26-0.1,0.48-0.29,0.66s-0.41,0.27-0.64,0.27h-1.71
			c-0.26,0-0.48,0.09-0.66,0.27c-0.18,0.18-0.27,0.4-0.27,0.66v1.71c0,0.26-0.1,0.48-0.29,0.66s-0.41,0.27-0.64,0.27h-16.04
			C237.21,54.83,236.99,54.74,236.8,54.55z M249.93,40.5c0.24,0,0.45-0.1,0.64-0.29s0.29-0.4,0.29-0.64v-1.72
			c0-0.23-0.1-0.45-0.29-0.64c-0.19-0.19-0.41-0.29-0.64-0.29h-5.31c-0.24,0-0.45,0.1-0.64,0.29c-0.19,0.19-0.29,0.41-0.29,0.64
			v1.72c0,0.23,0.1,0.45,0.29,0.64s0.41,0.29,0.64,0.29H249.93z M249.93,51.25c0.24,0,0.45-0.09,0.64-0.27s0.29-0.4,0.29-0.66v-5.28
			c0-0.26-0.1-0.48-0.29-0.66c-0.19-0.18-0.41-0.27-0.64-0.27h-5.31c-0.24,0-0.45,0.09-0.64,0.27c-0.19,0.18-0.29,0.4-0.29,0.66
			v5.28c0,0.26,0.1,0.48,0.29,0.66s0.41,0.27,0.64,0.27H249.93z"/>
		<path fill="#A3A3A3" d="M262.21,54.55c-0.18-0.18-0.27-0.4-0.27-0.66V34.28c0-0.24,0.09-0.45,0.27-0.64
			c0.18-0.19,0.4-0.29,0.66-0.29h8.87c0.24,0,0.44,0.1,0.63,0.29c0.18,0.19,0.27,0.41,0.27,0.64v5.29c0,0.24,0.1,0.45,0.29,0.64
			c0.19,0.19,0.41,0.29,0.64,0.29h1.74c0.24,0,0.45,0.09,0.64,0.28c0.19,0.18,0.29,0.39,0.29,0.63v5.34c0,0.24,0.09,0.45,0.28,0.65
			c0.18,0.19,0.39,0.29,0.63,0.29h1.75c0.24,0,0.46-0.1,0.65-0.29c0.19-0.19,0.29-0.41,0.29-0.64V34.28c0-0.24,0.09-0.45,0.27-0.64
			s0.4-0.29,0.66-0.29h1.71c0.24,0,0.45,0.1,0.64,0.29s0.29,0.41,0.29,0.64v19.61c0,0.26-0.1,0.48-0.29,0.66s-0.41,0.27-0.64,0.27
			h-8.89c-0.24,0-0.45-0.09-0.64-0.27s-0.29-0.4-0.29-0.66v-5.28c0-0.26-0.09-0.48-0.27-0.66c-0.18-0.18-0.39-0.27-0.63-0.27h-1.74
			c-0.24,0-0.45-0.1-0.64-0.29s-0.29-0.41-0.29-0.65V41.4c0-0.24-0.09-0.45-0.27-0.63c-0.18-0.18-0.4-0.28-0.66-0.28h-1.71
			c-0.24,0-0.45,0.09-0.64,0.27s-0.29,0.39-0.29,0.63v12.49c0,0.26-0.09,0.48-0.27,0.66c-0.18,0.18-0.4,0.27-0.66,0.27h-1.71
			C262.61,54.83,262.39,54.74,262.21,54.55z"/>
		<path fill="#A3A3A3" d="M287.61,54.55c-0.18-0.18-0.27-0.4-0.27-0.66V34.28c0-0.24,0.09-0.45,0.27-0.64s0.4-0.29,0.66-0.29h16.04
			c0.24,0,0.45,0.1,0.64,0.29s0.29,0.41,0.29,0.64v1.74c0,0.24,0.09,0.45,0.27,0.63s0.4,0.27,0.66,0.27h1.71
			c0.24,0,0.45,0.1,0.64,0.29c0.19,0.19,0.29,0.41,0.29,0.64v1.72c0,0.23-0.1,0.45-0.29,0.64s-0.41,0.29-0.64,0.29h-1.71
			c-0.26,0-0.48,0.09-0.66,0.28s-0.27,0.4-0.27,0.63v1.75c0,0.24,0.09,0.46,0.27,0.65s0.4,0.29,0.66,0.29h1.71
			c0.24,0,0.45,0.09,0.64,0.27c0.19,0.18,0.29,0.4,0.29,0.66v5.28c0,0.26-0.1,0.48-0.29,0.66s-0.41,0.27-0.64,0.27h-1.71
			c-0.26,0-0.48,0.09-0.66,0.27c-0.18,0.18-0.27,0.4-0.27,0.66v1.71c0,0.26-0.1,0.48-0.29,0.66s-0.41,0.27-0.64,0.27h-16.04
			C288.02,54.83,287.8,54.74,287.61,54.55z M300.74,40.5c0.24,0,0.45-0.1,0.64-0.29s0.29-0.4,0.29-0.64v-1.72
			c0-0.23-0.1-0.45-0.29-0.64c-0.19-0.19-0.41-0.29-0.64-0.29h-5.31c-0.24,0-0.45,0.1-0.64,0.29c-0.19,0.19-0.29,0.41-0.29,0.64
			v1.72c0,0.23,0.1,0.45,0.29,0.64s0.41,0.29,0.64,0.29H300.74z M300.74,51.25c0.24,0,0.45-0.09,0.64-0.27s0.29-0.4,0.29-0.66v-5.28
			c0-0.26-0.1-0.48-0.29-0.66c-0.19-0.18-0.41-0.27-0.64-0.27h-5.31c-0.24,0-0.45,0.09-0.64,0.27c-0.19,0.18-0.29,0.4-0.29,0.66
			v5.28c0,0.26,0.1,0.48,0.29,0.66s0.41,0.27,0.64,0.27H300.74z"/>
	</g>
</g>
<g>
	<g>
		<path fill="#666666" d="M108,51.93c-0.18-0.18-0.27-0.4-0.27-0.66V31.66c0-0.24,0.09-0.45,0.27-0.64s0.4-0.29,0.66-0.29h16.04
			c0.24,0,0.45,0.1,0.64,0.29s0.29,0.41,0.29,0.64v1.74c0,0.24,0.09,0.45,0.27,0.63s0.4,0.27,0.66,0.27h1.71
			c0.24,0,0.45,0.1,0.64,0.29c0.19,0.19,0.29,0.41,0.29,0.64v1.72c0,0.23-0.1,0.45-0.29,0.64s-0.41,0.29-0.64,0.29h-1.71
			c-0.26,0-0.48,0.09-0.66,0.28s-0.27,0.4-0.27,0.63v1.75c0,0.24,0.09,0.46,0.27,0.65c0.18,0.2,0.4,0.29,0.66,0.29h1.71
			c0.24,0,0.45,0.09,0.64,0.27c0.19,0.18,0.29,0.4,0.29,0.66v5.28c0,0.26-0.1,0.48-0.29,0.66s-0.41,0.27-0.64,0.27h-1.71
			c-0.26,0-0.48,0.09-0.66,0.27c-0.18,0.18-0.27,0.4-0.27,0.66v1.71c0,0.26-0.1,0.48-0.29,0.66s-0.41,0.27-0.64,0.27h-16.04
			C108.41,52.2,108.19,52.11,108,51.93z M121.13,37.88c0.24,0,0.45-0.1,0.64-0.29s0.29-0.4,0.29-0.64v-1.72
			c0-0.23-0.1-0.45-0.29-0.64c-0.19-0.19-0.41-0.29-0.64-0.29h-5.31c-0.24,0-0.45,0.1-0.64,0.29c-0.19,0.19-0.29,0.41-0.29,0.64
			v1.72c0,0.23,0.1,0.45,0.29,0.64c0.19,0.19,0.41,0.29,0.64,0.29H121.13z M121.13,48.63c0.24,0,0.45-0.09,0.64-0.27
			s0.29-0.4,0.29-0.66v-5.28c0-0.26-0.1-0.48-0.29-0.66c-0.19-0.18-0.41-0.27-0.64-0.27h-5.31c-0.24,0-0.45,0.09-0.64,0.27
			c-0.19,0.18-0.29,0.4-0.29,0.66v5.28c0,0.26,0.1,0.48,0.29,0.66c0.19,0.18,0.41,0.27,0.64,0.27H121.13z"/>
		<path fill="#666666" d="M137,51.93c-0.19-0.18-0.29-0.4-0.29-0.66v-1.71c0-0.26-0.09-0.48-0.27-0.66
			c-0.18-0.18-0.4-0.27-0.66-0.27h-1.71c-0.26,0-0.48-0.09-0.66-0.27s-0.27-0.4-0.27-0.66V31.66c0-0.24,0.09-0.45,0.27-0.64
			s0.4-0.29,0.66-0.29h5.28c0.26,0,0.48,0.1,0.66,0.29c0.18,0.19,0.27,0.41,0.27,0.64V47.7c0,0.26,0.1,0.48,0.29,0.66
			s0.41,0.27,0.64,0.27h5.31c0.24,0,0.45-0.09,0.64-0.27s0.29-0.4,0.29-0.66V31.66c0-0.24,0.09-0.45,0.27-0.64s0.39-0.29,0.63-0.29
			h5.31c0.24,0,0.45,0.1,0.64,0.29s0.29,0.41,0.29,0.64V47.7c0,0.26-0.1,0.48-0.29,0.66s-0.41,0.27-0.64,0.27h-1.71
			c-0.26,0-0.48,0.09-0.66,0.27c-0.18,0.18-0.27,0.4-0.27,0.66v1.71c0,0.26-0.1,0.48-0.29,0.66s-0.41,0.27-0.64,0.27h-12.46
			C137.41,52.2,137.19,52.11,137,51.93z"/>
		<path fill="#666666" d="M158.82,51.93c-0.18-0.18-0.27-0.4-0.27-0.66v-1.71c0-0.26,0.09-0.48,0.27-0.66
			c0.18-0.18,0.4-0.27,0.66-0.27h8.91c0.24,0,0.45-0.09,0.63-0.27c0.18-0.18,0.27-0.41,0.27-0.66v-1.71c0-0.26-0.09-0.48-0.27-0.66
			c-0.18-0.18-0.39-0.27-0.63-0.27h-5.33c-0.24,0-0.45-0.1-0.65-0.29c-0.19-0.19-0.29-0.41-0.29-0.65v-1.71
			c0-0.26-0.09-0.48-0.28-0.66c-0.18-0.18-0.4-0.28-0.66-0.28l-1.71,0.03c-0.26,0-0.48-0.1-0.66-0.29
			c-0.18-0.19-0.27-0.41-0.27-0.64v-5.31c0-0.24,0.09-0.45,0.27-0.64s0.4-0.29,0.66-0.29h1.71c0.26,0,0.48-0.09,0.66-0.27
			c0.18-0.18,0.27-0.39,0.27-0.63v-1.74c0-0.24,0.1-0.45,0.29-0.64s0.41-0.29,0.64-0.29h12.46c0.24,0,0.45,0.1,0.64,0.29
			s0.29,0.41,0.29,0.64v1.74c0,0.24-0.1,0.45-0.29,0.63s-0.41,0.27-0.64,0.27h-8.89c-0.24,0-0.45,0.1-0.64,0.29
			c-0.19,0.19-0.29,0.41-0.29,0.64v1.72c0,0.23,0.1,0.45,0.29,0.64s0.41,0.29,0.64,0.29h5.31c0.24,0,0.45,0.09,0.64,0.27
			c0.19,0.18,0.29,0.39,0.29,0.63v1.74c0,0.24,0.09,0.45,0.27,0.64c0.18,0.19,0.39,0.29,0.63,0.29h1.74c0.24,0,0.45,0.09,0.64,0.28
			c0.19,0.18,0.29,0.4,0.29,0.66v5.31c0,0.26-0.1,0.48-0.29,0.66c-0.19,0.18-0.41,0.27-0.64,0.27h-1.74c-0.24,0-0.45,0.09-0.63,0.27
			c-0.18,0.18-0.27,0.4-0.27,0.66v1.71c0,0.26-0.1,0.48-0.29,0.66s-0.41,0.27-0.64,0.27h-12.46C159.22,52.2,159,52.11,158.82,51.93z
			"/>
		<path fill="#666666" d="M184.24,51.93c-0.19-0.18-0.29-0.4-0.29-0.66V35.23c0-0.24-0.09-0.45-0.27-0.64
			c-0.18-0.19-0.4-0.29-0.66-0.29h-5.28c-0.26,0-0.48-0.09-0.66-0.27s-0.27-0.39-0.27-0.63v-1.74c0-0.24,0.09-0.45,0.27-0.64
			s0.4-0.29,0.66-0.29h19.61c0.24,0,0.45,0.1,0.64,0.29s0.29,0.41,0.29,0.64v1.74c0,0.24-0.1,0.45-0.29,0.63s-0.41,0.27-0.64,0.27
			h-5.31c-0.24,0-0.45,0.1-0.64,0.29s-0.29,0.41-0.29,0.64v16.04c0,0.26-0.09,0.48-0.27,0.66c-0.18,0.18-0.39,0.27-0.63,0.27h-5.31
			C184.65,52.2,184.43,52.11,184.24,51.93z"/>
		<path fill="#666666" d="M206.41,51.93c-0.18-0.18-0.27-0.4-0.27-0.66V35.23c0-0.24,0.09-0.45,0.27-0.64s0.4-0.29,0.66-0.29h1.71
			c0.26,0,0.48-0.09,0.66-0.27c0.18-0.18,0.27-0.39,0.27-0.63v-1.74c0-0.24,0.1-0.45,0.29-0.64s0.41-0.29,0.64-0.29h12.46
			c0.24,0,0.45,0.1,0.64,0.29s0.29,0.41,0.29,0.64v1.74c0,0.24,0.09,0.45,0.27,0.63s0.4,0.27,0.66,0.27h1.71
			c0.24,0,0.45,0.1,0.64,0.29s0.29,0.41,0.29,0.64v16.04c0,0.26-0.1,0.48-0.29,0.66s-0.41,0.27-0.64,0.27h-5.31
			c-0.24,0-0.45-0.09-0.63-0.27s-0.27-0.4-0.27-0.66v-5.28c0-0.26-0.1-0.48-0.29-0.66c-0.19-0.18-0.41-0.27-0.64-0.27h-5.31
			c-0.24,0-0.45,0.09-0.64,0.27c-0.19,0.18-0.29,0.4-0.29,0.66v5.28c0,0.26-0.09,0.48-0.27,0.66c-0.18,0.18-0.4,0.27-0.66,0.27
			h-5.28C206.81,52.2,206.59,52.11,206.41,51.93z M219.53,41.48c0.24,0,0.45-0.1,0.64-0.29c0.19-0.19,0.29-0.41,0.29-0.64v-5.31
			c0-0.24-0.1-0.45-0.29-0.64s-0.41-0.29-0.64-0.29h-5.31c-0.24,0-0.45,0.1-0.64,0.29s-0.29,0.41-0.29,0.64v5.31
			c0,0.24,0.1,0.45,0.29,0.64c0.19,0.19,0.41,0.29,0.64,0.29H219.53z"/>
		<path fill="#666666" d="M239.32,51.93c-0.18-0.18-0.27-0.4-0.27-0.66V31.66c0-0.24,0.09-0.45,0.27-0.64s0.4-0.29,0.66-0.29h16.04
			c0.24,0,0.45,0.1,0.64,0.29s0.29,0.41,0.29,0.64v1.74c0,0.24,0.09,0.45,0.27,0.63s0.4,0.27,0.66,0.27h1.71
			c0.24,0,0.45,0.1,0.64,0.29c0.19,0.19,0.29,0.41,0.29,0.64v1.72c0,0.23-0.1,0.45-0.29,0.64s-0.41,0.29-0.64,0.29h-1.71
			c-0.26,0-0.48,0.09-0.66,0.28s-0.27,0.4-0.27,0.63v1.75c0,0.24,0.09,0.46,0.27,0.65c0.18,0.2,0.4,0.29,0.66,0.29h1.71
			c0.24,0,0.45,0.09,0.64,0.27c0.19,0.18,0.29,0.4,0.29,0.66v5.28c0,0.26-0.1,0.48-0.29,0.66s-0.41,0.27-0.64,0.27h-1.71
			c-0.26,0-0.48,0.09-0.66,0.27c-0.18,0.18-0.27,0.4-0.27,0.66v1.71c0,0.26-0.1,0.48-0.29,0.66s-0.41,0.27-0.64,0.27h-16.04
			C239.72,52.2,239.5,52.11,239.32,51.93z M252.44,37.88c0.24,0,0.45-0.1,0.64-0.29s0.29-0.4,0.29-0.64v-1.72
			c0-0.23-0.1-0.45-0.29-0.64c-0.19-0.19-0.41-0.29-0.64-0.29h-5.31c-0.24,0-0.45,0.1-0.64,0.29c-0.19,0.19-0.29,0.41-0.29,0.64
			v1.72c0,0.23,0.1,0.45,0.29,0.64s0.41,0.29,0.64,0.29H252.44z M252.44,48.63c0.24,0,0.45-0.09,0.64-0.27s0.29-0.4,0.29-0.66v-5.28
			c0-0.26-0.1-0.48-0.29-0.66c-0.19-0.18-0.41-0.27-0.64-0.27h-5.31c-0.24,0-0.45,0.09-0.64,0.27c-0.19,0.18-0.29,0.4-0.29,0.66
			v5.28c0,0.26,0.1,0.48,0.29,0.66s0.41,0.27,0.64,0.27H252.44z"/>
		<path fill="#666666" d="M264.72,51.93c-0.18-0.18-0.27-0.4-0.27-0.66V31.66c0-0.24,0.09-0.45,0.27-0.64
			c0.18-0.19,0.4-0.29,0.66-0.29h8.87c0.24,0,0.44,0.1,0.63,0.29c0.18,0.19,0.27,0.41,0.27,0.64v5.29c0,0.24,0.1,0.45,0.29,0.64
			c0.19,0.19,0.41,0.29,0.64,0.29h1.74c0.24,0,0.45,0.09,0.64,0.28c0.19,0.18,0.29,0.39,0.29,0.63v5.34c0,0.24,0.09,0.45,0.28,0.65
			c0.18,0.19,0.39,0.29,0.63,0.29h1.75c0.24,0,0.46-0.1,0.65-0.29c0.19-0.19,0.29-0.41,0.29-0.64V31.66c0-0.24,0.09-0.45,0.27-0.64
			s0.4-0.29,0.66-0.29h1.71c0.24,0,0.45,0.1,0.64,0.29s0.29,0.41,0.29,0.64v19.61c0,0.26-0.1,0.48-0.29,0.66s-0.41,0.27-0.64,0.27
			h-8.89c-0.24,0-0.45-0.09-0.64-0.27s-0.29-0.4-0.29-0.66v-5.28c0-0.26-0.09-0.48-0.27-0.66c-0.18-0.18-0.39-0.27-0.63-0.27h-1.74
			c-0.24,0-0.45-0.1-0.64-0.29s-0.29-0.41-0.29-0.65v-5.34c0-0.24-0.09-0.45-0.27-0.63c-0.18-0.18-0.4-0.28-0.66-0.28h-1.71
			c-0.24,0-0.45,0.09-0.64,0.27s-0.29,0.39-0.29,0.63v12.49c0,0.26-0.09,0.48-0.27,0.66c-0.18,0.18-0.4,0.27-0.66,0.27h-1.71
			C265.12,52.2,264.9,52.11,264.72,51.93z"/>
		<path fill="#666666" d="M290.13,51.93c-0.18-0.18-0.27-0.4-0.27-0.66V31.66c0-0.24,0.09-0.45,0.27-0.64s0.4-0.29,0.66-0.29h16.04
			c0.24,0,0.45,0.1,0.64,0.29s0.29,0.41,0.29,0.64v1.74c0,0.24,0.09,0.45,0.27,0.63s0.4,0.27,0.66,0.27h1.71
			c0.24,0,0.45,0.1,0.64,0.29c0.19,0.19,0.29,0.41,0.29,0.64v1.72c0,0.23-0.1,0.45-0.29,0.64s-0.41,0.29-0.64,0.29h-1.71
			c-0.26,0-0.48,0.09-0.66,0.28s-0.27,0.4-0.27,0.63v1.75c0,0.24,0.09,0.46,0.27,0.65c0.18,0.2,0.4,0.29,0.66,0.29h1.71
			c0.24,0,0.45,0.09,0.64,0.27c0.19,0.18,0.29,0.4,0.29,0.66v5.28c0,0.26-0.1,0.48-0.29,0.66s-0.41,0.27-0.64,0.27h-1.71
			c-0.26,0-0.48,0.09-0.66,0.27c-0.18,0.18-0.27,0.4-0.27,0.66v1.71c0,0.26-0.1,0.48-0.29,0.66s-0.41,0.27-0.64,0.27h-16.04
			C290.53,52.2,290.31,52.11,290.13,51.93z M303.25,37.88c0.24,0,0.45-0.1,0.64-0.29s0.29-0.4,0.29-0.64v-1.72
			c0-0.23-0.1-0.45-0.29-0.64c-0.19-0.19-0.41-0.29-0.64-0.29h-5.31c-0.24,0-0.45,0.1-0.64,0.29c-0.19,0.19-0.29,0.41-0.29,0.64
			v1.72c0,0.23,0.1,0.45,0.29,0.64s0.41,0.29,0.64,0.29H303.25z M303.25,48.63c0.24,0,0.45-0.09,0.64-0.27s0.29-0.4,0.29-0.66v-5.28
			c0-0.26-0.1-0.48-0.29-0.66c-0.19-0.18-0.41-0.27-0.64-0.27h-5.31c-0.24,0-0.45,0.09-0.64,0.27c-0.19,0.18-0.29,0.4-0.29,0.66
			v5.28c0,0.26,0.1,0.48,0.29,0.66s0.41,0.27,0.64,0.27H303.25z"/>
	</g>
</g>
<g>
	<path fill="#333333" d="M110.52,49.31c-0.18-0.18-0.27-0.4-0.27-0.66V29.04c0-0.24,0.09-0.45,0.27-0.64s0.4-0.29,0.66-0.29h16.04
		c0.24,0,0.45,0.1,0.64,0.29s0.29,0.41,0.29,0.64v1.74c0,0.24,0.09,0.45,0.27,0.63s0.4,0.27,0.66,0.27h1.71
		c0.24,0,0.45,0.1,0.64,0.29c0.19,0.19,0.29,0.41,0.29,0.64v1.72c0,0.23-0.1,0.45-0.29,0.64s-0.41,0.29-0.64,0.29h-1.71
		c-0.26,0-0.48,0.09-0.66,0.28s-0.27,0.4-0.27,0.63v1.75c0,0.24,0.09,0.46,0.27,0.65s0.4,0.29,0.66,0.29h1.71
		c0.24,0,0.45,0.09,0.64,0.27c0.19,0.18,0.29,0.4,0.29,0.66v5.28c0,0.26-0.1,0.48-0.29,0.66s-0.41,0.27-0.64,0.27h-1.71
		c-0.26,0-0.48,0.09-0.66,0.27c-0.18,0.18-0.27,0.4-0.27,0.66v1.71c0,0.26-0.1,0.48-0.29,0.66s-0.41,0.27-0.64,0.27h-16.04
		C110.92,49.58,110.7,49.49,110.52,49.31z M123.64,35.25c0.24,0,0.45-0.1,0.64-0.29s0.29-0.4,0.29-0.64V32.6
		c0-0.23-0.1-0.45-0.29-0.64c-0.19-0.19-0.41-0.29-0.64-0.29h-5.31c-0.24,0-0.45,0.1-0.64,0.29c-0.19,0.19-0.29,0.41-0.29,0.64v1.72
		c0,0.23,0.1,0.45,0.29,0.64c0.19,0.19,0.41,0.29,0.64,0.29H123.64z M123.64,46.01c0.24,0,0.45-0.09,0.64-0.27s0.29-0.4,0.29-0.66
		v-5.28c0-0.26-0.1-0.48-0.29-0.66c-0.19-0.18-0.41-0.27-0.64-0.27h-5.31c-0.24,0-0.45,0.09-0.64,0.27
		c-0.19,0.18-0.29,0.4-0.29,0.66v5.28c0,0.26,0.1,0.48,0.29,0.66c0.19,0.18,0.41,0.27,0.64,0.27H123.64z"/>
	<path fill="#333333" d="M139.51,49.31c-0.19-0.18-0.29-0.4-0.29-0.66v-1.71c0-0.26-0.09-0.48-0.27-0.66
		c-0.18-0.18-0.4-0.27-0.66-0.27h-1.71c-0.26,0-0.48-0.09-0.66-0.27s-0.27-0.4-0.27-0.66V29.04c0-0.24,0.09-0.45,0.27-0.64
		s0.4-0.29,0.66-0.29h5.28c0.26,0,0.48,0.1,0.66,0.29c0.18,0.19,0.27,0.41,0.27,0.64v16.04c0,0.26,0.1,0.48,0.29,0.66
		s0.41,0.27,0.64,0.27h5.31c0.24,0,0.45-0.09,0.64-0.27s0.29-0.4,0.29-0.66V29.04c0-0.24,0.09-0.45,0.27-0.64s0.39-0.29,0.63-0.29
		h5.31c0.24,0,0.45,0.1,0.64,0.29s0.29,0.41,0.29,0.64v16.04c0,0.26-0.1,0.48-0.29,0.66s-0.41,0.27-0.64,0.27h-1.71
		c-0.26,0-0.48,0.09-0.66,0.27c-0.18,0.18-0.27,0.4-0.27,0.66v1.71c0,0.26-0.1,0.48-0.29,0.66s-0.41,0.27-0.64,0.27h-12.46
		C139.92,49.58,139.71,49.49,139.51,49.31z"/>
	<path fill="#333333" d="M161.33,49.31c-0.18-0.18-0.27-0.4-0.27-0.66v-1.71c0-0.26,0.09-0.48,0.27-0.66
		c0.18-0.18,0.4-0.27,0.66-0.27h8.91c0.24,0,0.45-0.09,0.63-0.27c0.18-0.18,0.27-0.41,0.27-0.66v-1.71c0-0.26-0.09-0.48-0.27-0.66
		c-0.18-0.18-0.39-0.27-0.63-0.27h-5.33c-0.24,0-0.45-0.1-0.65-0.29c-0.19-0.19-0.29-0.41-0.29-0.65v-1.71
		c0-0.26-0.09-0.48-0.28-0.66c-0.18-0.18-0.4-0.28-0.66-0.28l-1.71,0.03c-0.26,0-0.48-0.1-0.66-0.29c-0.18-0.19-0.27-0.41-0.27-0.64
		v-5.31c0-0.24,0.09-0.45,0.27-0.64s0.4-0.29,0.66-0.29h1.71c0.26,0,0.48-0.09,0.66-0.27c0.18-0.18,0.27-0.39,0.27-0.63v-1.74
		c0-0.24,0.1-0.45,0.29-0.64s0.41-0.29,0.64-0.29h12.46c0.24,0,0.45,0.1,0.64,0.29s0.29,0.41,0.29,0.64v1.74
		c0,0.24-0.1,0.45-0.29,0.63s-0.41,0.27-0.64,0.27h-8.89c-0.24,0-0.45,0.1-0.64,0.29c-0.19,0.19-0.29,0.41-0.29,0.64v1.72
		c0,0.23,0.1,0.45,0.29,0.64s0.41,0.29,0.64,0.29h5.31c0.24,0,0.45,0.09,0.64,0.27c0.19,0.18,0.29,0.39,0.29,0.63v1.74
		c0,0.24,0.09,0.45,0.27,0.64s0.39,0.29,0.63,0.29h1.74c0.24,0,0.45,0.09,0.64,0.28c0.19,0.18,0.29,0.4,0.29,0.66v5.31
		c0,0.26-0.1,0.48-0.29,0.66c-0.19,0.18-0.41,0.27-0.64,0.27h-1.74c-0.24,0-0.45,0.09-0.63,0.27c-0.18,0.18-0.27,0.4-0.27,0.66v1.71
		c0,0.26-0.1,0.48-0.29,0.66s-0.41,0.27-0.64,0.27h-12.46C161.73,49.58,161.51,49.49,161.33,49.31z"/>
	<path fill="#333333" d="M186.75,49.31c-0.19-0.18-0.29-0.4-0.29-0.66V32.61c0-0.24-0.09-0.45-0.27-0.64
		c-0.18-0.19-0.4-0.29-0.66-0.29h-5.28c-0.26,0-0.48-0.09-0.66-0.27s-0.27-0.39-0.27-0.63v-1.74c0-0.24,0.09-0.45,0.27-0.64
		s0.4-0.29,0.66-0.29h19.61c0.24,0,0.45,0.1,0.64,0.29s0.29,0.41,0.29,0.64v1.74c0,0.24-0.1,0.45-0.29,0.63s-0.41,0.27-0.64,0.27
		h-5.31c-0.24,0-0.45,0.1-0.64,0.29s-0.29,0.41-0.29,0.64v16.04c0,0.26-0.09,0.48-0.27,0.66c-0.18,0.18-0.39,0.27-0.63,0.27h-5.31
		C187.16,49.58,186.94,49.49,186.75,49.31z"/>
	<path fill="#333333" d="M208.92,49.31c-0.18-0.18-0.27-0.4-0.27-0.66V32.61c0-0.24,0.09-0.45,0.27-0.64s0.4-0.29,0.66-0.29h1.71
		c0.26,0,0.48-0.09,0.66-0.27c0.18-0.18,0.27-0.39,0.27-0.63v-1.74c0-0.24,0.1-0.45,0.29-0.64s0.41-0.29,0.64-0.29h12.46
		c0.24,0,0.45,0.1,0.64,0.29s0.29,0.41,0.29,0.64v1.74c0,0.24,0.09,0.45,0.27,0.63s0.4,0.27,0.66,0.27h1.71
		c0.24,0,0.45,0.1,0.64,0.29s0.29,0.41,0.29,0.64v16.04c0,0.26-0.1,0.48-0.29,0.66s-0.41,0.27-0.64,0.27h-5.31
		c-0.24,0-0.45-0.09-0.63-0.27s-0.27-0.4-0.27-0.66v-5.28c0-0.26-0.1-0.48-0.29-0.66c-0.19-0.18-0.41-0.27-0.64-0.27h-5.31
		c-0.24,0-0.45,0.09-0.64,0.27c-0.19,0.18-0.29,0.4-0.29,0.66v5.28c0,0.26-0.09,0.48-0.27,0.66c-0.18,0.18-0.4,0.27-0.66,0.27h-5.28
		C209.32,49.58,209.1,49.49,208.92,49.31z M222.04,38.86c0.24,0,0.45-0.1,0.64-0.29s0.29-0.41,0.29-0.64v-5.31
		c0-0.24-0.1-0.45-0.29-0.64s-0.41-0.29-0.64-0.29h-5.31c-0.24,0-0.45,0.1-0.64,0.29s-0.29,0.41-0.29,0.64v5.31
		c0,0.24,0.1,0.45,0.29,0.64s0.41,0.29,0.64,0.29H222.04z"/>
	<path fill="#333333" d="M241.83,49.31c-0.18-0.18-0.27-0.4-0.27-0.66V29.04c0-0.24,0.09-0.45,0.27-0.64s0.4-0.29,0.66-0.29h16.04
		c0.24,0,0.45,0.1,0.64,0.29s0.29,0.41,0.29,0.64v1.74c0,0.24,0.09,0.45,0.27,0.63s0.4,0.27,0.66,0.27h1.71
		c0.24,0,0.45,0.1,0.64,0.29c0.19,0.19,0.29,0.41,0.29,0.64v1.72c0,0.23-0.1,0.45-0.29,0.64s-0.41,0.29-0.64,0.29h-1.71
		c-0.26,0-0.48,0.09-0.66,0.28s-0.27,0.4-0.27,0.63v1.75c0,0.24,0.09,0.46,0.27,0.65s0.4,0.29,0.66,0.29h1.71
		c0.24,0,0.45,0.09,0.64,0.27c0.19,0.18,0.29,0.4,0.29,0.66v5.28c0,0.26-0.1,0.48-0.29,0.66s-0.41,0.27-0.64,0.27h-1.71
		c-0.26,0-0.48,0.09-0.66,0.27c-0.18,0.18-0.27,0.4-0.27,0.66v1.71c0,0.26-0.1,0.48-0.29,0.66s-0.41,0.27-0.64,0.27h-16.04
		C242.23,49.58,242.01,49.49,241.83,49.31z M254.95,35.25c0.24,0,0.45-0.1,0.64-0.29s0.29-0.4,0.29-0.64V32.6
		c0-0.23-0.1-0.45-0.29-0.64c-0.19-0.19-0.41-0.29-0.64-0.29h-5.31c-0.24,0-0.45,0.1-0.64,0.29c-0.19,0.19-0.29,0.41-0.29,0.64v1.72
		c0,0.23,0.1,0.45,0.29,0.64s0.41,0.29,0.64,0.29H254.95z M254.95,46.01c0.24,0,0.45-0.09,0.64-0.27s0.29-0.4,0.29-0.66v-5.28
		c0-0.26-0.1-0.48-0.29-0.66c-0.19-0.18-0.41-0.27-0.64-0.27h-5.31c-0.24,0-0.45,0.09-0.64,0.27c-0.19,0.18-0.29,0.4-0.29,0.66v5.28
		c0,0.26,0.1,0.48,0.29,0.66s0.41,0.27,0.64,0.27H254.95z"/>
	<path fill="#333333" d="M267.23,49.31c-0.18-0.18-0.27-0.4-0.27-0.66V29.04c0-0.24,0.09-0.45,0.27-0.64
		c0.18-0.19,0.4-0.29,0.66-0.29h8.87c0.24,0,0.44,0.1,0.63,0.29c0.18,0.19,0.27,0.41,0.27,0.64v5.29c0,0.24,0.1,0.45,0.29,0.64
		c0.19,0.19,0.41,0.29,0.64,0.29h1.74c0.24,0,0.45,0.09,0.64,0.28c0.19,0.18,0.29,0.39,0.29,0.63v5.34c0,0.24,0.09,0.45,0.28,0.65
		c0.18,0.19,0.39,0.29,0.63,0.29h1.75c0.24,0,0.46-0.1,0.65-0.29c0.19-0.19,0.29-0.41,0.29-0.64V29.04c0-0.24,0.09-0.45,0.27-0.64
		s0.4-0.29,0.66-0.29h1.71c0.24,0,0.45,0.1,0.64,0.29s0.29,0.41,0.29,0.64v19.61c0,0.26-0.1,0.48-0.29,0.66s-0.41,0.27-0.64,0.27
		h-8.89c-0.24,0-0.45-0.09-0.64-0.27s-0.29-0.4-0.29-0.66v-5.28c0-0.26-0.09-0.48-0.27-0.66c-0.18-0.18-0.39-0.27-0.63-0.27h-1.74
		c-0.24,0-0.45-0.1-0.64-0.29s-0.29-0.41-0.29-0.65v-5.34c0-0.24-0.09-0.45-0.27-0.63c-0.18-0.18-0.4-0.28-0.66-0.28h-1.71
		c-0.24,0-0.45,0.09-0.64,0.27s-0.29,0.39-0.29,0.63v12.49c0,0.26-0.09,0.48-0.27,0.66c-0.18,0.18-0.4,0.27-0.66,0.27h-1.71
		C267.63,49.58,267.42,49.49,267.23,49.31z"/>
	<path fill="#333333" d="M292.64,49.31c-0.18-0.18-0.27-0.4-0.27-0.66V29.04c0-0.24,0.09-0.45,0.27-0.64s0.4-0.29,0.66-0.29h16.04
		c0.24,0,0.45,0.1,0.64,0.29s0.29,0.41,0.29,0.64v1.74c0,0.24,0.09,0.45,0.27,0.63s0.4,0.27,0.66,0.27h1.71
		c0.24,0,0.45,0.1,0.64,0.29c0.19,0.19,0.29,0.41,0.29,0.64v1.72c0,0.23-0.1,0.45-0.29,0.64s-0.41,0.29-0.64,0.29h-1.71
		c-0.26,0-0.48,0.09-0.66,0.28s-0.27,0.4-0.27,0.63v1.75c0,0.24,0.09,0.46,0.27,0.65s0.4,0.29,0.66,0.29h1.71
		c0.24,0,0.45,0.09,0.64,0.27c0.19,0.18,0.29,0.4,0.29,0.66v5.28c0,0.26-0.1,0.48-0.29,0.66s-0.41,0.27-0.64,0.27h-1.71
		c-0.26,0-0.48,0.09-0.66,0.27c-0.18,0.18-0.27,0.4-0.27,0.66v1.71c0,0.26-0.1,0.48-0.29,0.66s-0.41,0.27-0.64,0.27H293.3
		C293.04,49.58,292.82,49.49,292.64,49.31z M305.76,35.25c0.24,0,0.45-0.1,0.64-0.29s0.29-0.4,0.29-0.64V32.6
		c0-0.23-0.1-0.45-0.29-0.64c-0.19-0.19-0.41-0.29-0.64-0.29h-5.31c-0.24,0-0.45,0.1-0.64,0.29c-0.19,0.19-0.29,0.41-0.29,0.64v1.72
		c0,0.23,0.1,0.45,0.29,0.64s0.41,0.29,0.64,0.29H305.76z M305.76,46.01c0.24,0,0.45-0.09,0.64-0.27s0.29-0.4,0.29-0.66v-5.28
		c0-0.26-0.1-0.48-0.29-0.66c-0.19-0.18-0.41-0.27-0.64-0.27h-5.31c-0.24,0-0.45,0.09-0.64,0.27c-0.19,0.18-0.29,0.4-0.29,0.66v5.28
		c0,0.26,0.1,0.48,0.29,0.66s0.41,0.27,0.64,0.27H305.76z"/>
</g>
<g>
	<path fill="#196F7D" d="M113.03,46.69c-0.18-0.18-0.27-0.4-0.27-0.66V26.42c0-0.24,0.09-0.45,0.27-0.64s0.4-0.29,0.66-0.29h16.04
		c0.24,0,0.45,0.1,0.64,0.29s0.29,0.41,0.29,0.64v1.74c0,0.24,0.09,0.45,0.27,0.63s0.4,0.27,0.66,0.27h1.71
		c0.24,0,0.45,0.1,0.64,0.29c0.19,0.19,0.29,0.41,0.29,0.64v1.72c0,0.23-0.1,0.45-0.29,0.64s-0.41,0.29-0.64,0.29h-1.71
		c-0.26,0-0.48,0.09-0.66,0.28s-0.27,0.4-0.27,0.63v1.75c0,0.24,0.09,0.46,0.27,0.65s0.4,0.29,0.66,0.29h1.71
		c0.24,0,0.45,0.09,0.64,0.27c0.19,0.18,0.29,0.4,0.29,0.66v5.28c0,0.26-0.1,0.48-0.29,0.66s-0.41,0.27-0.64,0.27h-1.71
		c-0.26,0-0.48,0.09-0.66,0.27c-0.18,0.18-0.27,0.4-0.27,0.66v1.71c0,0.26-0.1,0.48-0.29,0.66s-0.41,0.27-0.64,0.27h-16.04
		C113.43,46.96,113.21,46.87,113.03,46.69z M126.15,32.63c0.24,0,0.45-0.1,0.64-0.29s0.29-0.4,0.29-0.64v-1.72
		c0-0.23-0.1-0.45-0.29-0.64c-0.19-0.19-0.41-0.29-0.64-0.29h-5.31c-0.24,0-0.45,0.1-0.64,0.29c-0.19,0.19-0.29,0.41-0.29,0.64v1.72
		c0,0.23,0.1,0.45,0.29,0.64c0.19,0.19,0.41,0.29,0.64,0.29H126.15z M126.15,43.38c0.24,0,0.45-0.09,0.64-0.27s0.29-0.4,0.29-0.66
		v-5.28c0-0.26-0.1-0.48-0.29-0.66c-0.19-0.18-0.41-0.27-0.64-0.27h-5.31c-0.24,0-0.45,0.09-0.64,0.27
		c-0.19,0.18-0.29,0.4-0.29,0.66v5.28c0,0.26,0.1,0.48,0.29,0.66c0.19,0.18,0.41,0.27,0.64,0.27H126.15z"/>
	<path fill="#196F7D" d="M142.02,46.69c-0.19-0.18-0.29-0.4-0.29-0.66v-1.71c0-0.26-0.09-0.48-0.27-0.66
		c-0.18-0.18-0.4-0.27-0.66-0.27h-1.71c-0.26,0-0.48-0.09-0.66-0.27s-0.27-0.4-0.27-0.66V26.42c0-0.24,0.09-0.45,0.27-0.64
		s0.4-0.29,0.66-0.29h5.28c0.26,0,0.48,0.1,0.66,0.29c0.18,0.19,0.27,0.41,0.27,0.64v16.04c0,0.26,0.1,0.48,0.29,0.66
		s0.41,0.27,0.64,0.27h5.31c0.24,0,0.45-0.09,0.64-0.27s0.29-0.4,0.29-0.66V26.42c0-0.24,0.09-0.45,0.27-0.64s0.39-0.29,0.63-0.29
		h5.31c0.24,0,0.45,0.1,0.64,0.29s0.29,0.41,0.29,0.64v16.04c0,0.26-0.1,0.48-0.29,0.66s-0.41,0.27-0.64,0.27H157
		c-0.26,0-0.48,0.09-0.66,0.27c-0.18,0.18-0.27,0.4-0.27,0.66v1.71c0,0.26-0.1,0.48-0.29,0.66s-0.41,0.27-0.64,0.27h-12.46
		C142.43,46.96,142.22,46.87,142.02,46.69z"/>
	<path fill="#196F7D" d="M163.84,46.69c-0.18-0.18-0.27-0.4-0.27-0.66v-1.71c0-0.26,0.09-0.48,0.27-0.66
		c0.18-0.18,0.4-0.27,0.66-0.27h8.91c0.24,0,0.45-0.09,0.63-0.27c0.18-0.18,0.27-0.41,0.27-0.66v-1.71c0-0.26-0.09-0.48-0.27-0.66
		c-0.18-0.18-0.39-0.27-0.63-0.27h-5.33c-0.24,0-0.45-0.1-0.65-0.29c-0.19-0.19-0.29-0.41-0.29-0.65v-1.71
		c0-0.26-0.09-0.48-0.28-0.66c-0.18-0.18-0.4-0.28-0.66-0.28l-1.71,0.03c-0.26,0-0.48-0.1-0.66-0.29c-0.18-0.19-0.27-0.41-0.27-0.64
		v-5.31c0-0.24,0.09-0.45,0.27-0.64s0.4-0.29,0.66-0.29h1.71c0.26,0,0.48-0.09,0.66-0.27c0.18-0.18,0.27-0.39,0.27-0.63v-1.74
		c0-0.24,0.1-0.45,0.29-0.64s0.41-0.29,0.64-0.29h12.46c0.24,0,0.45,0.1,0.64,0.29s0.29,0.41,0.29,0.64v1.74
		c0,0.24-0.1,0.45-0.29,0.63s-0.41,0.27-0.64,0.27h-8.89c-0.24,0-0.45,0.1-0.64,0.29c-0.19,0.19-0.29,0.41-0.29,0.64v1.72
		c0,0.23,0.1,0.45,0.29,0.64s0.41,0.29,0.64,0.29h5.31c0.24,0,0.45,0.09,0.64,0.27c0.19,0.18,0.29,0.39,0.29,0.63v1.74
		c0,0.24,0.09,0.45,0.27,0.64s0.39,0.29,0.63,0.29h1.74c0.24,0,0.45,0.09,0.64,0.28c0.19,0.18,0.29,0.4,0.29,0.66v5.31
		c0,0.26-0.1,0.48-0.29,0.66c-0.19,0.18-0.41,0.27-0.64,0.27h-1.74c-0.24,0-0.45,0.09-0.63,0.27c-0.18,0.18-0.27,0.4-0.27,0.66v1.71
		c0,0.26-0.1,0.48-0.29,0.66s-0.41,0.27-0.64,0.27H164.5C164.24,46.96,164.02,46.87,163.84,46.69z"/>
	<path fill="#196F7D" d="M189.26,46.69c-0.19-0.18-0.29-0.4-0.29-0.66V29.99c0-0.24-0.09-0.45-0.27-0.64
		c-0.18-0.19-0.4-0.29-0.66-0.29h-5.28c-0.26,0-0.48-0.09-0.66-0.27s-0.27-0.39-0.27-0.63v-1.74c0-0.24,0.09-0.45,0.27-0.64
		s0.4-0.29,0.66-0.29h19.61c0.24,0,0.45,0.1,0.64,0.29s0.29,0.41,0.29,0.64v1.74c0,0.24-0.1,0.45-0.29,0.63s-0.41,0.27-0.64,0.27
		h-5.31c-0.24,0-0.45,0.1-0.64,0.29s-0.29,0.41-0.29,0.64v16.04c0,0.26-0.09,0.48-0.27,0.66c-0.18,0.18-0.39,0.27-0.63,0.27h-5.31
		C189.67,46.96,189.46,46.87,189.26,46.69z"/>
	<path fill="#196F7D" d="M211.43,46.69c-0.18-0.18-0.27-0.4-0.27-0.66V29.99c0-0.24,0.09-0.45,0.27-0.64s0.4-0.29,0.66-0.29h1.71
		c0.26,0,0.48-0.09,0.66-0.27c0.18-0.18,0.27-0.39,0.27-0.63v-1.74c0-0.24,0.1-0.45,0.29-0.64s0.41-0.29,0.64-0.29h12.46
		c0.24,0,0.45,0.1,0.64,0.29s0.29,0.41,0.29,0.64v1.74c0,0.24,0.09,0.45,0.27,0.63s0.4,0.27,0.66,0.27h1.71
		c0.24,0,0.45,0.1,0.64,0.29s0.29,0.41,0.29,0.64v16.04c0,0.26-0.1,0.48-0.29,0.66s-0.41,0.27-0.64,0.27h-5.31
		c-0.24,0-0.45-0.09-0.63-0.27s-0.27-0.4-0.27-0.66v-5.28c0-0.26-0.1-0.48-0.29-0.66c-0.19-0.18-0.41-0.27-0.64-0.27h-5.31
		c-0.24,0-0.45,0.09-0.64,0.27c-0.19,0.18-0.29,0.4-0.29,0.66v5.28c0,0.26-0.09,0.48-0.27,0.66c-0.18,0.18-0.4,0.27-0.66,0.27h-5.28
		C211.83,46.96,211.61,46.87,211.43,46.69z M224.55,36.24c0.24,0,0.45-0.1,0.64-0.29s0.29-0.41,0.29-0.64v-5.31
		c0-0.24-0.1-0.45-0.29-0.64s-0.41-0.29-0.64-0.29h-5.31c-0.24,0-0.45,0.1-0.64,0.29s-0.29,0.41-0.29,0.64v5.31
		c0,0.24,0.1,0.45,0.29,0.64s0.41,0.29,0.64,0.29H224.55z"/>
	<path fill="#F3B723" d="M244.34,46.69c-0.18-0.18-0.27-0.4-0.27-0.66V26.42c0-0.24,0.09-0.45,0.27-0.64s0.4-0.29,0.66-0.29h16.04
		c0.24,0,0.45,0.1,0.64,0.29s0.29,0.41,0.29,0.64v1.74c0,0.24,0.09,0.45,0.27,0.63s0.4,0.27,0.66,0.27h1.71
		c0.24,0,0.45,0.1,0.64,0.29c0.19,0.19,0.29,0.41,0.29,0.64v1.72c0,0.23-0.1,0.45-0.29,0.64s-0.41,0.29-0.64,0.29h-1.71
		c-0.26,0-0.48,0.09-0.66,0.28s-0.27,0.4-0.27,0.63v1.75c0,0.24,0.09,0.46,0.27,0.65s0.4,0.29,0.66,0.29h1.71
		c0.24,0,0.45,0.09,0.64,0.27c0.19,0.18,0.29,0.4,0.29,0.66v5.28c0,0.26-0.1,0.48-0.29,0.66s-0.41,0.27-0.64,0.27h-1.71
		c-0.26,0-0.48,0.09-0.66,0.27c-0.18,0.18-0.27,0.4-0.27,0.66v1.71c0,0.26-0.1,0.48-0.29,0.66s-0.41,0.27-0.64,0.27H245
		C244.74,46.96,244.52,46.87,244.34,46.69z M257.46,32.63c0.24,0,0.45-0.1,0.64-0.29s0.29-0.4,0.29-0.64v-1.72
		c0-0.23-0.1-0.45-0.29-0.64c-0.19-0.19-0.41-0.29-0.64-0.29h-5.31c-0.24,0-0.45,0.1-0.64,0.29c-0.19,0.19-0.29,0.41-0.29,0.64v1.72
		c0,0.23,0.1,0.45,0.29,0.64s0.41,0.29,0.64,0.29H257.46z M257.46,43.38c0.24,0,0.45-0.09,0.64-0.27s0.29-0.4,0.29-0.66v-5.28
		c0-0.26-0.1-0.48-0.29-0.66c-0.19-0.18-0.41-0.27-0.64-0.27h-5.31c-0.24,0-0.45,0.09-0.64,0.27c-0.19,0.18-0.29,0.4-0.29,0.66v5.28
		c0,0.26,0.1,0.48,0.29,0.66s0.41,0.27,0.64,0.27H257.46z"/>
	<path fill="#F3B723" d="M269.74,46.69c-0.18-0.18-0.27-0.4-0.27-0.66V26.42c0-0.24,0.09-0.45,0.27-0.64
		c0.18-0.19,0.4-0.29,0.66-0.29h8.87c0.24,0,0.44,0.1,0.63,0.29c0.18,0.19,0.27,0.41,0.27,0.64v5.29c0,0.24,0.1,0.45,0.29,0.64
		c0.19,0.19,0.41,0.29,0.64,0.29h1.74c0.24,0,0.45,0.09,0.64,0.28c0.19,0.18,0.29,0.39,0.29,0.63v5.34c0,0.24,0.09,0.45,0.28,0.65
		c0.18,0.19,0.39,0.29,0.63,0.29h1.75c0.24,0,0.46-0.1,0.65-0.29c0.19-0.19,0.29-0.41,0.29-0.64V26.42c0-0.24,0.09-0.45,0.27-0.64
		s0.4-0.29,0.66-0.29h1.71c0.24,0,0.45,0.1,0.64,0.29s0.29,0.41,0.29,0.64v19.61c0,0.26-0.1,0.48-0.29,0.66s-0.41,0.27-0.64,0.27
		h-8.89c-0.24,0-0.45-0.09-0.64-0.27s-0.29-0.4-0.29-0.66v-5.28c0-0.26-0.09-0.48-0.27-0.66c-0.18-0.18-0.39-0.27-0.63-0.27h-1.74
		c-0.24,0-0.45-0.1-0.64-0.29s-0.29-0.41-0.29-0.65v-5.34c0-0.24-0.09-0.45-0.27-0.63c-0.18-0.18-0.4-0.28-0.66-0.28h-1.71
		c-0.24,0-0.45,0.09-0.64,0.27s-0.29,0.39-0.29,0.63v12.49c0,0.26-0.09,0.48-0.27,0.66c-0.18,0.18-0.4,0.27-0.66,0.27h-1.71
		C270.15,46.96,269.93,46.87,269.74,46.69z"/>
	<path fill="#F3B723" d="M295.15,46.69c-0.18-0.18-0.27-0.4-0.27-0.66V26.42c0-0.24,0.09-0.45,0.27-0.64s0.4-0.29,0.66-0.29h16.04
		c0.24,0,0.45,0.1,0.64,0.29s0.29,0.41,0.29,0.64v1.74c0,0.24,0.09,0.45,0.27,0.63s0.4,0.27,0.66,0.27h1.71
		c0.24,0,0.45,0.1,0.64,0.29c0.19,0.19,0.29,0.41,0.29,0.64v1.72c0,0.23-0.1,0.45-0.29,0.64s-0.41,0.29-0.64,0.29h-1.71
		c-0.26,0-0.48,0.09-0.66,0.28s-0.27,0.4-0.27,0.63v1.75c0,0.24,0.09,0.46,0.27,0.65s0.4,0.29,0.66,0.29h1.71
		c0.24,0,0.45,0.09,0.64,0.27c0.19,0.18,0.29,0.4,0.29,0.66v5.28c0,0.26-0.1,0.48-0.29,0.66s-0.41,0.27-0.64,0.27h-1.71
		c-0.26,0-0.48,0.09-0.66,0.27c-0.18,0.18-0.27,0.4-0.27,0.66v1.71c0,0.26-0.1,0.48-0.29,0.66s-0.41,0.27-0.64,0.27h-16.04
		C295.55,46.96,295.33,46.87,295.15,46.69z M308.27,32.63c0.24,0,0.45-0.1,0.64-0.29s0.29-0.4,0.29-0.64v-1.72
		c0-0.23-0.1-0.45-0.29-0.64c-0.19-0.19-0.41-0.29-0.64-0.29h-5.31c-0.24,0-0.45,0.1-0.64,0.29c-0.19,0.19-0.29,0.41-0.29,0.64v1.72
		c0,0.23,0.1,0.45,0.29,0.64s0.41,0.29,0.64,0.29H308.27z M308.27,43.38c0.24,0,0.45-0.09,0.64-0.27s0.29-0.4,0.29-0.66v-5.28
		c0-0.26-0.1-0.48-0.29-0.66c-0.19-0.18-0.41-0.27-0.64-0.27h-5.31c-0.24,0-0.45,0.09-0.64,0.27c-0.19,0.18-0.29,0.4-0.29,0.66v5.28
		c0,0.26,0.1,0.48,0.29,0.66s0.41,0.27,0.64,0.27H308.27z"/>
</g>
<defs>
	<polygon id="polyclip" points="51.45,7.31 110.61,7.31 65.4,72.69 6.24,72.69 "/>
</defs>
<clipPath id="clipper">
	<use xlink:href="#polyclip"  style="overflow:visible;"/>
</clipPath>
<g style="opacity:0.2;clip-path:url(#clipper);">
	<path style="fill:#FFFFFF;" d="M41.68,5.75H6.24v68.33c46.06,0,88.3,0,335.97,0L341.68,5.75z"/>
</g>
<animateTransform xlink:href="#polyclip" attributeName="transform" type="translate" from="-1000 0" to="2500 0" begin="0s" dur="4s" repeatCount="indefinite" />
</svg>