<svg xmlns="http://www.w3.org/2000/svg" xmlns:xlink="http://www.w3.org/1999/xlink" version="1.1" id="Layer_1" x="0px" y="0px" width="140px" height="40px" viewBox="0 0 140 40" enable-background="new 0 0 140 40" xml:space="preserve">
<g>
	<g>
		<g>
			<g>
				<g>
					<g>
						<path fill="#FFFFFF" d="M54.78,21.23c0.36,0.43,0.53,0.94,0.53,1.52c0,0.79-0.27,1.42-0.8,1.89s-1.3,0.7-2.32,0.7h-3.81v-9.56        h3.74c0.96,0,1.69,0.21,2.2,0.64c0.51,0.43,0.77,1.02,0.77,1.77c0,0.6-0.16,1.09-0.47,1.47c-0.32,0.38-0.73,0.63-1.25,0.75        C53.95,20.52,54.42,20.79,54.78,21.23z M49.94,19.89h1.91c0.54,0,0.95-0.13,1.24-0.38c0.28-0.25,0.43-0.6,0.43-1.06        c0-0.44-0.14-0.79-0.43-1.04c-0.28-0.25-0.72-0.38-1.29-0.38h-1.86V19.89z M53.25,23.66c0.32-0.27,0.48-0.64,0.48-1.12        c0-0.48-0.16-0.85-0.49-1.12c-0.33-0.27-0.78-0.41-1.37-0.41h-1.94v3.05h1.95C52.47,24.06,52.93,23.93,53.25,23.66z"/>
						<path fill="#FFFFFF" d="M58.24,15.77v5.67c0,0.85,0.19,1.48,0.56,1.9c0.37,0.42,0.9,0.62,1.58,0.62        c0.67,0,1.19-0.21,1.56-0.62c0.37-0.42,0.56-1.05,0.56-1.9v-5.67h1.54v5.67c0,1.31-0.34,2.3-1.02,2.97s-1.57,1.01-2.68,1.01        c-1.1,0-1.99-0.34-2.65-1.01c-0.67-0.67-1-1.66-1-2.97v-5.67H58.24z"/>
						<path fill="#FFFFFF" d="M71.8,24.09c-0.23,0.4-0.57,0.72-1.03,0.97s-1.02,0.37-1.69,0.37c-0.65,0-1.23-0.12-1.75-0.34        c-0.51-0.23-0.93-0.55-1.23-0.97s-0.48-0.89-0.53-1.44h1.65c0.05,0.42,0.22,0.77,0.54,1.07s0.73,0.45,1.25,0.45        c0.47,0,0.83-0.13,1.09-0.38s0.39-0.58,0.39-0.98c0-0.34-0.09-0.62-0.28-0.85c-0.19-0.22-0.42-0.4-0.7-0.52        c-0.28-0.13-0.66-0.27-1.15-0.43c-0.6-0.19-1.08-0.38-1.46-0.57c-0.38-0.19-0.69-0.46-0.96-0.83        c-0.26-0.36-0.39-0.84-0.39-1.42c0-0.51,0.13-0.97,0.38-1.35c0.25-0.39,0.61-0.69,1.08-0.9c0.47-0.21,1.01-0.32,1.63-0.32        c0.98,0,1.75,0.24,2.32,0.71c0.57,0.47,0.9,1.08,0.98,1.84h-1.67c-0.06-0.36-0.23-0.67-0.51-0.93        c-0.28-0.26-0.65-0.39-1.13-0.39c-0.43,0-0.78,0.11-1.04,0.33c-0.26,0.22-0.39,0.54-0.39,0.96c0,0.33,0.09,0.59,0.27,0.81        c0.18,0.21,0.41,0.38,0.68,0.5s0.65,0.26,1.13,0.43c0.6,0.19,1.1,0.38,1.48,0.58c0.38,0.19,0.71,0.48,0.98,0.85        c0.27,0.37,0.4,0.86,0.4,1.46C72.13,23.26,72.02,23.69,71.8,24.09z"/>
						<path fill="#FFFFFF" d="M79.83,15.77v1.25h-2.67v8.32H75.6v-8.32h-2.65v-1.25H79.83z"/>
						<path fill="#FFFFFF" d="M85.7,18.28c0.48,0.33,0.82,0.78,1.02,1.33v-1.73h1.54v7.46h-1.54V23.6c-0.2,0.55-0.54,0.99-1.02,1.33        s-1.06,0.5-1.73,0.5c-0.65,0-1.23-0.15-1.74-0.46s-0.91-0.75-1.2-1.33c-0.29-0.58-0.43-1.26-0.43-2.04        c0-0.78,0.14-1.45,0.43-2.03c0.29-0.58,0.69-1.02,1.2-1.33c0.51-0.31,1.09-0.46,1.74-0.46C84.65,17.78,85.23,17.94,85.7,18.28        z M82.8,19.79c-0.41,0.44-0.62,1.04-0.62,1.81s0.21,1.37,0.62,1.81c0.41,0.44,0.96,0.66,1.65,0.66c0.43,0,0.82-0.1,1.17-0.3        s0.61-0.49,0.81-0.86c0.2-0.37,0.3-0.8,0.3-1.3c0-0.49-0.1-0.92-0.3-1.29c-0.2-0.37-0.47-0.66-0.81-0.87s-0.73-0.3-1.17-0.3        C83.76,19.13,83.21,19.35,82.8,19.79z"/>
						<path fill="#FFFFFF" d="M97.31,16.57c0.78,0.6,1.3,1.4,1.57,2.42h-1.64c-0.23-0.58-0.58-1.04-1.08-1.38s-1.09-0.51-1.81-0.51        c-0.57,0-1.08,0.14-1.52,0.42c-0.45,0.28-0.8,0.68-1.06,1.2c-0.26,0.52-0.39,1.13-0.39,1.82c0,0.69,0.13,1.29,0.39,1.81        c0.26,0.52,0.61,0.92,1.06,1.2c0.45,0.28,0.96,0.42,1.52,0.42c0.71,0,1.32-0.17,1.81-0.51c0.49-0.34,0.85-0.79,1.08-1.36h1.64        c-0.27,1.02-0.79,1.83-1.57,2.42c-0.78,0.59-1.75,0.89-2.92,0.89c-0.9,0-1.7-0.21-2.4-0.62c-0.7-0.41-1.23-0.98-1.61-1.72        c-0.38-0.74-0.57-1.58-0.57-2.53c0-0.95,0.19-1.79,0.57-2.53c0.38-0.74,0.92-1.31,1.61-1.73s1.49-0.62,2.4-0.62        C95.56,15.68,96.53,15.97,97.31,16.57z"/>
						<path fill="#FFFFFF" d="M105.45,25.33l-2.38-3.82h-1.1v3.82h-1.54v-9.56h3.37c1.09,0,1.92,0.27,2.49,0.8        c0.56,0.53,0.85,1.24,0.85,2.11c0,0.75-0.21,1.36-0.63,1.84s-1.03,0.79-1.82,0.92l2.51,3.89H105.45z M101.97,20.42h1.71        c1.25,0,1.87-0.55,1.87-1.65c0-0.52-0.15-0.93-0.45-1.23c-0.3-0.29-0.77-0.44-1.42-0.44h-1.71V20.42z"/>
						<path fill="#FFFFFF" d="M114.23,23.26h-4.04l-0.73,2.07h-1.65l3.52-9.41h1.77l3.51,9.41h-1.65L114.23,23.26z M113.79,22.07        l-1.58-4.47l-1.58,4.47H113.79z"/>
						<path fill="#FFFFFF" d="M123.71,24.09c-0.23,0.4-0.57,0.72-1.03,0.97c-0.46,0.24-1.03,0.37-1.69,0.37        c-0.65,0-1.23-0.12-1.75-0.34c-0.51-0.23-0.92-0.55-1.23-0.97c-0.31-0.42-0.48-0.89-0.53-1.44h1.65        c0.05,0.42,0.22,0.77,0.54,1.07s0.73,0.45,1.25,0.45c0.47,0,0.83-0.13,1.09-0.38c0.26-0.25,0.39-0.58,0.39-0.98        c0-0.34-0.09-0.62-0.29-0.85c-0.19-0.22-0.42-0.4-0.7-0.52c-0.28-0.13-0.66-0.27-1.15-0.43c-0.6-0.19-1.08-0.38-1.46-0.57        c-0.38-0.19-0.69-0.46-0.96-0.83c-0.26-0.36-0.39-0.84-0.39-1.42c0-0.51,0.13-0.97,0.38-1.35c0.25-0.39,0.61-0.69,1.08-0.9        c0.47-0.21,1.01-0.32,1.63-0.32c0.97,0,1.75,0.24,2.32,0.71c0.57,0.47,0.9,1.08,0.98,1.84h-1.67        c-0.06-0.36-0.23-0.67-0.51-0.93c-0.28-0.26-0.65-0.39-1.13-0.39c-0.43,0-0.78,0.11-1.04,0.33c-0.26,0.22-0.39,0.54-0.39,0.96        c0,0.33,0.09,0.59,0.27,0.81s0.41,0.38,0.68,0.5s0.65,0.26,1.13,0.43c0.61,0.19,1.1,0.38,1.48,0.58        c0.38,0.19,0.71,0.48,0.97,0.85c0.27,0.37,0.4,0.86,0.4,1.46C124.05,23.26,123.93,23.69,123.71,24.09z"/>
						<path fill="#FFFFFF" d="M133.19,15.77v9.56h-1.56v-4.29h-4.5v4.29h-1.54v-9.56h1.54v4.01h4.5v-4.01H133.19z"/>
					</g>
				</g>
			</g>
		</g>
	</g>
	<g>
		<g>
			<g>
				<g>
					<g>
						<path fill="#333333" d="M35.34,21.36C35.09,2.87,7.59,2.27,6.81,21.09C6.67,40.11,35.33,39.97,35.34,21.36z"/>
					</g>
					<g>
						<g>
							<linearGradient id="SVGID_1_" gradientUnits="userSpaceOnUse" x1="21.078" y1="38.3106" x2="21.078" y2="1.2194">
								<stop offset="3.159140e-04" style="stop-color:#55B0BE"/>
								<stop offset="0.3628" style="stop-color:#396273"/>
								<stop offset="0.7789" style="stop-color:#2C3E50"/>
							</linearGradient>
							<path fill="url(#SVGID_1_)" d="M33.95,21.46C33.72,4.77,8.9,4.23,8.21,21.21C8.08,38.38,33.94,38.25,33.95,21.46z"/>
						</g>
					</g>
				</g>
			</g>
		</g>
		<path fill="#EE9500" d="M15.39,31.43c-2.94,2.94-8.06,3.8-8.06,3.8s0.86-5.12,3.8-8.06c1.09-1.09,3.31-1.4,4.49-0.22    S16.48,30.34,15.39,31.43L15.39,31.43z"/>
		<path fill="#F8C060" d="M15.28,30c-2.04,2.04-5.73,3-5.73,3s0.96-3.69,3-5.73c0.7-0.7,1.89-0.66,2.64,0.09    C15.95,28.11,15.99,29.3,15.28,30z"/>
		<path fill="#533505" d="M28.83,25.51c0.17-1.52-0.64-3.34-2.18-4.87l-0.13-0.12l-0.01-0.01c1.5-1.36,4.79-4.37,7.69-7.27    c4.07-4.07,3.69-7.88,3.67-8.04l-0.05-0.46l-0.46-0.05c-0.16-0.02-3.97-0.4-8.04,3.67c-2.93,2.93-5.98,6.26-7.31,7.74    c-1.06-0.92-2.18-1.28-3.34-1.08c-2.28,0.41-3.73,2.84-4.12,3.57c-1.18,2.22-2.79,5.93-2.8,5.95c-0.49,0.98-0.18,2.24,0.82,0.36    c3.4-5.64,5-6.04,6.66-5.39c-0.24,0.24-0.48,0.48-0.73,0.72c-1.63,1.63-6.18,6.64-5.47,7.35c0.34,0.34,1.71-1.33,1.93-1.33    c-0.22,0.47-0.63,1.79-0.63,1.79l0.92-0.1c3.21-0.36,5.65-2.18,7.42-3.73c0.25-0.22,0.48-0.44,0.7-0.65    c0.24,0.28,0.84,1.1,0.7,2.22c-0.39,3.04-4.26,4.34-6.24,5.65c-0.57,0.31-0.69,0.72-0.14,0.72c1.19,0.02,3.44-1.05,4.95-1.63    c1.19-0.46,2.68-1.25,4.43-2.36C28.1,27.5,28.71,26.59,28.83,25.51z"/>
		<path fill="#F3B723" d="M23.68,23.03c0,0,3.43,3.33-2.52,7.26c-0.18,0.05,1.18,0.16,5.59-2.63c2.74-1.73,1.31-4.87-0.63-6.74    L23.68,23.03L23.68,23.03z M19.67,19.06l2.02-2.49c-2.81-2.51-5.44,0.05-6.62,2.28c-1.18,2.23-2.31,4.69-2.31,4.69    C15.48,19.44,17.28,18.11,19.67,19.06L19.67,19.06z"/>
		<path fill="#FFFFFF" d="M37.3,5.25c0,0-3.65-0.42-7.57,3.5s-7.99,8.49-7.99,8.49s1.89-0.72,2.67,0.88    c1.61,0.78,0.88,2.67,0.88,2.67s4.57-4.07,8.49-7.99S37.3,5.25,37.3,5.25z"/>
		<g>
			<circle fill="#533505" cx="33.71" cy="8.84" r="1.27"/>
			
				<ellipse transform="matrix(0.7071 -0.7071 0.7071 0.7071 -2.9668 24.7923)" fill="#533505" cx="28.44" cy="15.98" rx="0.19" ry="0.21"/>
			
				<ellipse transform="matrix(0.7071 -0.7071 0.7071 0.7071 -3.6375 24.6105)" fill="#533505" cx="27.89" cy="16.7" rx="0.19" ry="0.21"/>
			
				<ellipse transform="matrix(0.7071 -0.7071 0.7071 0.7071 -3.219 24.1656)" fill="#533505" cx="27.56" cy="15.97" rx="0.12" ry="0.14"/>
		</g>
		<path fill="#FEE16A" d="M23.73,18.71c0,0,0.65-0.33,1.03,0.24c0.38,0.57,0.56,2.16-2.47,4.82s-5.27,3.39-7.1,3.59    c0.84-2.37,1.54-3.34,3.58-5.09c-2.8,2.18-3.32,2.91-3.55,2.68c-0.23-0.23,1.34-2.17,3.58-4.39c2.32-2.29,3.61-3.51,4.71-2.87    C23.99,17.98,23.73,18.71,23.73,18.71L23.73,18.71z"/>
		<path fill="#533505" d="M23.43,19.63c-1.95,1.19-3.69,2.61-5.16,4.33C19.54,22.01,21.23,20.53,23.43,19.63L23.43,19.63z"/>
	</g>
</g>
</svg>