<svg xmlns="http://www.w3.org/2000/svg" width="790" height="150"  xmlns:v="https://vecta.io/nano"><path fill="#fff" d="M307.09 50.39H27.58C14 50.39 3 39.33 3 25.69S14 1 27.58 1h578.57 3.57v.26C621.6 3 630.73 13.27 630.73 25.69s-9.13 22.69-21.01 24.43v.27h-3.57H469c-13.58 0-24.58 11.05-24.58 24.69 0 12.66 9.49 23.09 21.72 24.52h296.28C776 99.6 787 110.66 787 124.29S776 149 762.42 149H47.6c-13.58 0-24.58-11.06-24.58-24.69s11.01-24.7 24.58-24.7h262.36c12.23-1.43 21.72-11.86 21.72-24.52 0-13.65-11-24.7-24.59-24.7z"/></svg>