<svg xmlns="http://www.w3.org/2000/svg" width="302" height="520"  fill="#fff" xmlns:v="https://vecta.io/nano"><path d="M67.56 297.95c.1 4.47-7.55 4.47-7.45 0-.1-4.47 7.55-4.47 7.45 0zm104.7 10.83c.1 4.47-7.55 4.47-7.45 0-.1-4.47 7.55-4.47 7.45 0zm-95.56-3.97c.1 2.78-4.77 2.78-4.67 0 0-2.78 4.77-2.78 4.67 0zM223.42 515.4c.1 4.47-7.55 4.47-7.45 0-.1-4.47 7.55-4.47 7.45 0zm28.61-49.27c.1 2.78-4.77 2.78-4.67 0-.1-2.88 4.67-2.88 4.67 0zM5.67 241.93c.1 2.78-4.77 2.78-4.67 0-.1-2.78 4.77-2.78 4.67 0z"/><path opacity=".9" d="M295.04 402.36L152.39 246.1c.7-1.09 1.09-2.28 1.09-3.77.1-4.67-3.48-7.05-7.05-7.05l8.05-71.52c1.89 0 3.77-1.09 3.68-3.38.1-2.48-2.28-3.58-4.47-3.28L120.8 14.94c2.68-.79 4.87-2.98 4.77-6.66.2-9.34-14.21-9.44-14.11 0-.1 5.46 4.67 7.65 8.74 6.75l32.98 142.15c-1.39.4-2.48 1.39-2.48 3.18 0 1.99 1.49 3.08 3.18 3.28l-8.05 71.72c-3.38.2-6.56 2.48-6.46 6.95 0 2.09.7 3.58 1.79 4.77L69.94 357.46c-4.17-2.28-10.73-.3-10.63 6.06-.2 9.44 14.21 9.34 14.11 0 .1-2.78-1.19-4.67-2.98-5.76l71.13-110.26c2.98 2.68 8.05 2.28 10.53-.89l142.55 156.16c-.7.6-1.09 1.39-1.09 2.38-.1 4.47 7.55 4.47 7.45 0-.01-3.19-3.79-4.09-5.97-2.79z"/></svg>