<svg xmlns="http://www.w3.org/2000/svg" xmlns:xlink="http://www.w3.org/1999/xlink" viewBox="0 0 40 60">
  <defs/>
  <path fill="#006458" d="M30.93 28.6c-.15-.14-.31-.27-.46-.41.15.14.3.28.46.41zM31.38 29.08c-.15-.15-.29-.31-.44-.46.15.15.3.3.44.46zM31.67 29.36c-.12-.12-.23-.24-.35-.36.12.11.23.24.35.36zM30.46 28.2c-.06-.02-.09-.06-.09-.12h.11l-.02.12zM31.9 29.65c-.1-.11-.21-.22-.31-.33.1.11.21.22.31.33z"/>
  <path fill="#4C4E4E" d="M8.65 40.07c-.15-6.62 5.11-12.12 11.7-12.23 6.32-.11 11.87 5.24 11.98 11.54.14 7.57-4.78 13.27-11.58 13.41-6.81.15-11.93-5.23-12.1-12.72zm21.63 1.46c-.01-1.41-.27-2.79-.73-4.12-.27-.78-.54-1.79-1.69-1.41-1.14.38-.76 1.26-.48 2.1 1.38 4.17.6 7.03-2.66 9.73-.65.54-.88 1.15-.37 1.81.5.64 1.16.44 1.75.03 2.83-1.98 4.12-4.74 4.18-8.14zm-2.64-7.44c-.01-.8-.38-1.28-1.16-1.31-.76-.03-1.23.39-1.27 1.17-.04.79.42 1.25 1.16 1.29.76.05 1.2-.39 1.27-1.15z"/>
  <path fill="#62C9DE" d="M27.64 34.09c-.07.75-.51 1.2-1.27 1.16-.74-.04-1.2-.5-1.16-1.29.04-.78.5-1.2 1.27-1.17.78.02 1.15.51 1.16 1.3z"/>
  <g fill="#CCD1D8">
    <path d="M29.91 10.12h1.68v7.68h-1.68zM8.06 10.12h1.68v7.68H8.06z"/>
  </g>
  <path fill="#00A6BF" d="M32.9 9.21h-7.62l-2.32 4.64-5.67-11.36-3.35 6.72H6.75v1.68h8.23l2.31-4.64 5.67 11.37 3.36-6.73h6.58z"/>
  <path fill="#E5E8EC" d="M33.28 18.46c0-.46-.38-.84-.84-.84h-3.36c-.47 0-.84.38-.84.84v8.3c0 .46.38.84.84.84h3.36c.47 0 .84-.38.84-.84v-8.3zM33.28 10.05c0 1.39-1.13 2.52-2.52 2.52-1.39 0-2.52-1.13-2.52-2.52s1.13-2.52 2.52-2.52c1.39 0 2.52 1.13 2.52 2.52zM11.42 18.46c0-.46-.38-.84-.84-.84H7.22c-.46 0-.84.38-.84.84v8.3c0 .46.38.84.84.84h3.36c.46 0 .84-.38.84-.84v-8.3zM11.42 10.05c0 1.39-1.13 2.52-2.52 2.52-1.39 0-2.52-1.13-2.52-2.52S7.5 7.53 8.9 7.53c1.39 0 2.52 1.13 2.52 2.52z"/>
  <path fill="#FFF" d="M39.31 38.26c-.08 10.67-8.79 19.25-19.45 19.18C9.19 57.36.61 48.65.69 37.99c.08-10.67 8.78-19.25 19.45-19.18 10.66.08 19.25 8.79 19.17 19.45z"/>
  <path fill="#00606F" d="M35.75 38.24c-.06 8.7-7.17 15.7-15.87 15.64-8.7-.06-15.7-7.16-15.64-15.87.06-8.7 7.17-15.7 15.87-15.64 8.7.06 15.71 7.17 15.64 15.87z"/>
  <path fill="#00A6BF" d="M33.52 37.9c-.06 8.08-6.66 14.59-14.74 14.53-8.08-.06-14.59-6.66-14.53-14.74.06-8.08 6.66-14.59 14.74-14.53 8.08.06 14.58 6.66 14.53 14.74z"/>
  <g>
    <defs>
      <path id="a" d="M33.52 37.9c-.06 8.08-6.66 14.59-14.74 14.53-8.08-.06-14.59-6.66-14.53-14.74.06-8.08 6.66-14.59 14.74-14.53 8.08.06 14.58 6.66 14.53 14.74z"/>
    </defs>
    <use fill="#1D6F7D" overflow="visible" xlink:href="#a"/>
    <clipPath id="b">
      <use overflow="visible" xlink:href="#a"/>
    </clipPath>
    <g clip-path="url(#b)">
      <path fill="#FFF" d="M24.64 48.69l2.49-3.57.5-1.58.77.39.24-.49.51-.58 1.98-1.75.39-1.22-.77-2.1-1.33-1-1.44-.69-.8-1.02-2.16-2.29-2.49-.77-2.68 1.85-3.15-1.3-2.46.47-1.49 2.07-.77 1.91-1.41-.44-1.16.41-1.13.88-.53 1.27-.03 1.11.53 1.16.97 1.05.67.11.7.86 1.12-.48.94 1.99 1.77 2.29 1.33 1.35s2.21 1.47 2.32 1.47 2.21.08 2.6.06c.39-.03 2.54-.47 2.76-.58.22-.09 1.21-.84 1.21-.84z"/>
      <path d="M12.47 48.72c-.91-1.48-1.29-3.11-1.24-4.85-.04 0-.07-.01-.11-.01-.09.19-.19.39-.28.58-.25-.34-.38-.98-.32-1.51.09-.79.32-1.54.72-2.23.34-.57.42-1.15.25-1.77-.15-.56-.3-1.12-.44-1.68-.06-.21-.18-.27-.38-.19-.67.24-1.32.53-1.84 1.04-.77.77-.93 1.63-.42 2.61.32.62.74 1.17 1.26 1.63.22.2.36.4.34.72-.01.27.06.55.11.95-.29-.25-.5-.41-.69-.6-.81-.79-1.52-1.65-1.93-2.73-.26-.68-.27-1.35-.03-2.03.38-1.05 1.03-1.9 1.94-2.55.46-.33.97-.54 1.56-.57.41-.02.41-.03.51-.43.53-2.14 1.57-4 3.11-5.57 1.6-1.63 3.57-2.63 5.78-3.15.4-.09.8-.16 1.21-.25l-.01-.01c-.14.21-.29.41-.47.67.36-.03.65-.06.95-.08-.01.06-.01.11-.03.13-.48.59-.16 1.05.32 1.35.36.22.77.37 1.16.55.13.06.22.04.2-.13 0 0 .12-.04.15-.02.31.24.61.48.92.73.11.09.22.19.37.32.03-.17.05-.27.07-.38l-.01.01c.87.99 1.61 2.06 2.18 3.25.4.83.71 1.69.71 2.63 0 .28.11.39.39.43 1.6.24 3.24 2.38 3.34 3.65.03.38 0 .79-.1 1.16-.13.44-.33.88-.56 1.28-.53.92-1.24 1.68-2.09 2.39.03-.4.04-.75.09-1.1.03-.15.15-.29.25-.41.34-.4.71-.77 1.02-1.19.21-.28.37-.61.51-.93.43-.99.06-1.82-.57-2.38-.6-.53-1.31-.84-2.12-1.06-.07.17-.14.31-.19.47-.27.78-.46 1.58-.56 2.39-.05.36.03.65.31.84.93.63.98 1.58.92 2.55-.03.44-.18.87-.3 1.41-.14-.32-.22-.51-.31-.71.12 1.78-.01 3.47-1.44 4.82-.04-.39.03-.77-.24-1.15-.02 1.62-.7 2.73-2.19 3.35-.11-.35-.2-.66-.3-.98-.23.59-.49 1.14-.91 1.58-.43.44-.99.65-1.65.68.09-.26.16-.47.27-.79-.26.06-.45.06-.6.14-.41.22-.83.44-1.2.71-.26.19-.5.26-.77.11-.32-.18-.64-.37-.95-.58-.15-.1-.26-.26-.43-.44-.1.3-.18.57-.3.95-.58-1.07-1.34-1.86-2.36-2.56.04.2.06.3.09.39.03.08.08.16.17.32-1.22-.57-2.01-1.45-2.66-2.62l-.17.83-.01.02zm4.92-8.92c-1.17.53-2.22 1.22-3.09 2.18-.19.22-.33.5-.45.77-.04.09.02.25.08.35.08.15.22.08.34.03 1.27-.47 2.58-.73 3.93-.85s2.69-.09 4.02.12c.9.15 1.8.34 2.69.53.2.04.36.07.51-.09.17-.18.06-.38-.03-.52-.25-.35-.5-.7-.81-.99-.79-.73-1.73-1.22-2.72-1.65-.07-.03-.16-.04-.25-.06.03.13.04.22.06.32h.01c-.35-.2-.69-.45-1.06-.61-1.12-.45-2.1-.13-2.98.61l.02-.02c-.07-.02-.14-.05-.21-.07.02-.03.04-.05.06-.08-.04.02-.08.03-.12.03zm4.75-.18c-.02-.02-.05-.04-.08-.06-.01-.01-.03.01-.04.01.04.01.08.03.12.05.01.02 0 .05.01.05.69.33 1.38.65 2.07.98.16.08.28.03.41-.07.74-.51 1.37-1.11 1.77-1.92.32-.63.46-1.29.26-2.01-.26-.94-.7-1.77-1.39-2.46-.39-.39-.87-.63-1.43-.71-.74-.1-1.43.06-2.06.4-.61.32-1.18.73-1.74 1.13-.38.27-.37.26-.7-.03-.8-.67-1.67-1.2-2.71-1.4-.97-.19-1.81.06-2.5.79-.75.79-1.11 1.76-1.38 2.78-.1.4-.09.78.05 1.16.39 1.08 1.23 1.76 2.16 2.34.15.1.28.02.41-.05.58-.29 1.17-.58 1.76-.87.06-.03.12-.08.19-.13-.39-.04-.75-.06-1.11-.13-.76-.15-1.42-.48-1.85-1.16-.29-.46-.35-.94-.02-1.42.06-.09.13-.17.2-.26-.16-.12-.31-.23-.5-.37.4-.32.76-.61 1.13-.91 1.19.95 2.35 1.87 3.52 2.79.03-.02.06-.04.1-.06-.08-.51-.17-1.01-.25-1.52.31.59.56 1.19.74 1.81.07.26.18.32.42.32.36-.01.34 0 .45-.33.2-.61.37-1.24.76-1.77l-.01-.01c-.08.51-.15 1.01-.25 1.63.46-.36.82-.65 1.18-.94.71-.57 1.42-1.15 2.13-1.72.1-.08.2-.25.38-.1.34.27.68.54 1.04.82-.21.14-.36.25-.51.35.6.83.53 1.5-.25 2.16-.43.37-.92.63-1.5.7-.32.05-.65.09-.98.14zm-2.4 2.86c-.93.09-1.86.15-2.79.28-.74.1-1.47.28-2.13.64-.24.13-.46.32-.66.51s-.28.44-.16.72c.14.32.27.65.44.96a8.096 8.096 0 003.12 3.21c1.46.84 2.95.85 4.42.01.99-.57 1.79-1.35 2.46-2.26.42-.57.82-1.16 1.03-1.85.11-.35.07-.68-.22-.92-.21-.17-.44-.35-.69-.45-1.53-.65-3.16-.8-4.82-.85zm-1.56-3.93c-.05-.05-.09-.1-.13-.13-.86-.46-1.71-.92-2.57-1.37-.13-.07-.28-.12-.41.01-.16.15-.29.33-.2.54.1.24.22.48.4.66.51.49 1.15.7 1.84.68.38-.02.77-.08 1.07-.39zm3.08 0c.08.07.13.12.19.16.08.05.17.09.26.11.98.25 1.85.04 2.57-.68.09-.09.17-.2.22-.32.15-.3.11-.52-.08-.72-.22-.23-.42-.07-.61.03-.81.43-1.61.87-2.41 1.31-.04.03-.08.06-.14.11z"/>
      <path d="M29.06 41.66c-.2-.69-.49-1.25-.92-1.73-.08-.09-.14-.28-.1-.4.26-.92.3-1.08 1.3-.79.54.16.85.6.88 1.16.02.45 0 .57-.18.97-.04-.42.12-.9-.43-1.16-.21.62-.13 1.31-.55 1.95zM10.13 41.45c-.35-.51-.25-1.15-.48-1.7-.37.13-.42.43-.47.72-.15-1.06.51-1.83 1.57-1.84.31 0 .34.02.36.35.04.48-.03.91-.35 1.31-.26.32-.41.74-.63 1.16zM21.58 26.14l.01-.02-.02.01zM25.19 29.27l-.04-.01.03.02zM12.46 48.72l.03.02-.02-.02zM20.92 36.6l.03-.13c0 .01.02.03.01.04-.02.03-.04.06-.06.08l.02.01zM21.79 40.46c-.4.04-.77-.01-1.11.19-.17.1-.33-.12-.39-.3-.07-.19-.06-.36.12-.5.2-.15.43-.15.64-.08.3.12.57.32.74.69zM17.64 39.95c.14-.05.27-.11.41-.14.18-.03.37-.07.54-.04.2.03.31.2.34.4.02.17-.16.45-.32.49-.06.02-.14-.01-.21-.03-.16-.05-.31-.13-.47-.16-.14-.02-.29.01-.51.03.09-.21.16-.38.23-.56l-.01.01zM21.67 39.96c.01.01.02.02.02.03 0-.01-.01-.02-.01-.03h-.01z"/>
      <path fill="#00A6BF" d="M17.11 38.93c-.69.02-1.33-.19-1.83-.67-.18-.17-.3-.42-.4-.65-.09-.21.05-.39.2-.54.14-.13.28-.08.41-.01.85.45 1.71.91 2.56 1.36.05.03.08.07.13.12-.3.32-.69.38-1.07.39zM21.72 38.82c-.09-.02-.17-.07-.25-.11-.06-.04-.11-.09-.19-.16.06-.04.09-.08.14-.11.8-.44 1.59-.88 2.4-1.3.19-.1.39-.26.6-.03.19.2.23.42.08.72-.06.11-.13.23-.22.32-.73.72-1.59.92-2.56.67z"/>
    </g>
  </g>
  <path fill="#00A6BF" d="M6.15 36.09c-.05 0-.1-.01-.15-.02a.599.599 0 01-.43-.74c.54-2.09 1.46-4.01 2.73-5.71 2.09-2.78 5.02-4.76 8.25-5.57.32-.08.65.12.73.44.08.32-.12.65-.44.73-2.97.74-5.66 2.56-7.58 5.12a14.97 14.97 0 00-2.53 5.29c-.07.28-.31.46-.58.46z"/>
  <circle cx="18.74" cy="24.26" r=".7" fill="#00A6BF"/>
</svg>
