<svg xmlns="http://www.w3.org/2000/svg" width="175" height="120"  xmlns:v="https://vecta.io/nano"><path fill="#002e41" d="M79.16 66.73h8.3v.95 20.95c-26.24.01-52.49-7.3-68.06-21.9h59.76z"/><path fill="#fff" d="M6.21 57.07h8.71 47.45H87.5v4.83 4.83H19.44 6.21c-2.04 0-3.74-2.18-3.74-4.83s1.7-4.83 3.74-4.83z"/><path fill="#002437" d="M95.77 66.73h-8.3v.95 20.95c26.24.01 52.49-7.3 68.06-21.9H95.77z"/><path fill="#c6c6c6" d="M168.79 57.07h-8.71-47.45H87.5v4.83 4.83h68.06 13.24c2.04 0 3.74-2.18 3.74-4.83s-1.71-4.83-3.75-4.83z"/><path fill="#ffcc34" d="M16.51 61.9c.07 3.81-5.92 3.81-5.85 0-.06-3.81 5.92-3.81 5.85 0zm15.38 0c.07 3.81-5.92 3.81-5.85 0-.07-3.81 5.92-3.81 5.85 0zm15.3 0c.07 3.81-5.92 3.81-5.92 0 .01-3.81 5.99-3.81 5.92 0zm17.9 0c.07 3.81-5.92 3.81-5.92 0s5.98-3.81 5.92 0zm15.37 0c.07 3.81-5.92 3.81-5.92 0-.07-3.81 5.92-3.81 5.92 0zm15.31 0c.07 3.81-5.92 3.81-5.85 0-.07-3.81 5.91-3.81 5.85 0zm20.34 0c.07 3.81-5.92 3.81-5.85 0-.14-3.81 5.91-3.81 5.85 0zm15.3 0c.07 3.81-5.92 3.81-5.85 0-.07-3.81 5.92-3.81 5.85 0zm15.38 0c.07 3.81-5.92 3.81-5.85 0-.14-3.81 5.85-3.81 5.85 0zm16.19 0c.07 3.81-5.92 3.81-5.85 0-.07-3.81 5.91-3.81 5.85 0z"/><path fill="#00a7c0" d="M130.12 36.59H44.88c-11.56 4.29-21.84 11.43-29.86 20.48h145.03c-8.09-9.05-18.3-16.19-29.93-20.48z"/><path fill="#009db6" d="M130.12 36.59h-9.39-33.26v20.48h25.13 47.45c-8.09-9.05-18.3-16.19-29.93-20.48z"/><path fill="#c6c6c6" d="M120.73 36.59l.07-1.77c-.34-21.92-16.84-32.87-33.33-32.85v34.62h33.26z"/><path fill="#e3eff1" d="M54.2 36.59l-.07-1.77C54.47 12.9 70.97 1.95 87.47 1.97v34.62H54.2z"/><path fill="#fff" d="M74.54 7.48s-13.4 9.25-12.38 15.78c.41 10.55 22.52-20.2 12.38-15.78z"/><path fill="#002437" d="M95.77 66.73h-8.3v.95 20.95c26.24.01 52.49-7.3 68.06-21.9H95.77z"/><path d="M85.9 88.62v24.5h.14c-1.43.34-2.59 1.09-2.45 2.38-.34 3.4 8.37 3.4 7.96 0 .14-1.29-.95-2.04-2.38-2.38h.07v-24.5l-1.77.01c-.53.01-1.05 0-1.57-.01zm-46.12 24.1c-2.72-.41-6.12.61-5.78 2.86-.48 3.95 9.73 3.88 9.18 0a1.95 1.95 0 0 0-.48-1.56l19.14-27.77-3.33-.68-18.73 27.15zm99.93-1.57l-18.46-26.77-3.25.81 18.78 27.25c-.34.41-.54.95-.48 1.56-.54 3.88 9.66 3.95 9.18 0 .35-2.3-3.05-3.26-5.77-2.85z" fill="#c6c6c6"/></svg>