<?xml version="1.0" encoding="utf-8"?>
<!-- Generator: Adobe Illustrator 25.2.1, SVG Export Plug-In . SVG Version: 6.00 Build 0)  -->
<svg version="1.1" id="Layer_1" xmlns="http://www.w3.org/2000/svg" xmlns:xlink="http://www.w3.org/1999/xlink" x="0px" y="0px"
	 width="1920px" height="382px" viewBox="0 0 1920 382" enable-background="new 0 0 1920 382" xml:space="preserve">
<rect x="0.12" y="205.36" fill="#005F6F" width="1919.88" height="176.93"/>
<rect x="0.12" y="205.36" fill="#196F7D" width="1919.88" height="126.42"/>
<path opacity="0.1" d="M1812.67,291.85c0.22,12.65-41.94,12.65-41.72,0C1770.73,279.19,1812.89,279.19,1812.67,291.85z"/>
<path opacity="0.1" d="M1065.61,261.75c0.22,12.65-41.94,12.65-41.72,0C1023.67,249.1,1065.84,249.11,1065.61,261.75z"/>
<path opacity="0.1" d="M1523.94,236.5c0.22,12.65-41.94,12.65-41.72,0C1482.01,223.85,1524.17,223.86,1523.94,236.5z"/>
<path opacity="0.1" d="M113.63,249.92c0.3,17.43-57.8,17.43-57.5,0C55.84,232.48,113.94,232.48,113.63,249.92z"/>
<path opacity="0.1" d="M1881.42,251.25c0.3,17.43-57.8,17.43-57.5,0C1823.63,233.81,1881.73,233.81,1881.42,251.25z"/>
<path opacity="0.1" d="M366.91,306.35c0.42,8.84-29.76,8.84-29.33,0C337.15,297.51,367.33,297.52,366.91,306.35z"/>
<path opacity="0.1" d="M1766.03,236.5c0.22,12.65-41.94,12.65-41.72,0C1724.1,223.85,1766.26,223.86,1766.03,236.5z"/>
<path opacity="0.1" d="M1898.26,307.8c0.42,8.84-29.76,8.84-29.33,0C1868.5,298.97,1898.68,298.97,1898.26,307.8z"/>
<path opacity="0.1" d="M874.11,272.26c0.22,12.65-41.94,12.65-41.72,0C832.17,259.6,874.33,259.6,874.11,272.26z"/>
<path opacity="0.1" d="M1021.35,306.35c0.42,8.84-29.76,8.84-29.33,0C991.59,297.51,1021.77,297.52,1021.35,306.35z"/>
<path opacity="0.1" d="M966.08,249.92c0.3,17.43-57.8,17.43-57.49,0C908.29,232.48,966.39,232.49,966.08,249.92z"/>
<g>
	<path fill="#005F6F" d="M47.29,211.75l25.55-107.38l28.45-8.15l31.61-78.67h17.89c0,0,14.05,77.82,14.05,86.82c0,9,0,58.62,0,58.62
		l19.16,5.32l10.12,59.21L47.29,211.75z"/>
	<path opacity="0.1" fill="#FFFFFF" d="M101.28,96.22l-28.45,8.15L47.29,211.75l40.07,4.3c-7.64-43.14-3.48-45.84,4.13-82.07
		c0,0,22.14-35.52,22.14-35.52l23.85-80.92h-4.6L101.28,96.22z"/>
</g>
<g>
	<path fill="#005F6F" d="M1682,205.98l20.22-71.79l22.51-5.45l25.01-52.6h14.15c0,0,11.12,52.03,11.12,58.05c0,6.02,0,39.19,0,39.19
		l15.16,3.55l8.01,39.59L1682,205.98z"/>
	<path opacity="0.1" fill="#FFFFFF" d="M1724.73,128.74l-22.51,5.45L1682,205.98l31.71,2.88c-6.04-28.84-2.76-30.65,3.27-54.87
		c0,0,17.52-23.75,17.52-23.75l18.87-54.1h-3.64L1724.73,128.74z"/>
</g>
<g>
	<path fill="#005F6F" d="M1156.13,211.95l41.36-71.21l34.59,2.29l13.38,56.97c25.73,13.52,20.38,8.15,36.36,32.57l-114.22,10.69
		l-19.83-16.7L1156.13,211.95z"/>
	<path opacity="0.1" fill="#FFFFFF" d="M1201.51,240.09L1201.51,240.09l-7.39-13.7l22.96-15.62l-22.96-32.65l15.32-36.58
		l-11.95-0.79c-6.18,10.67-44.68,76.8-49.71,85.82l19.83,16.7L1201.51,240.09z"/>
</g>
<g>
	<path fill="#005F6F" d="M1302.47,295.48l25.33-43.61l21.18,1.4l8.2,34.89c15.76,8.29,12.48,4.99,22.27,19.95l-69.95,6.55
		l-12.14-10.22L1302.47,295.48z"/>
	<path opacity="0.1" fill="#FFFFFF" d="M1330.26,312.72L1330.26,312.72l-4.53-8.39l14.06-9.56l-14.06-20l9.38-22.41l-7.32-0.48
		c-3.79,6.54-27.37,47.03-30.44,52.57l12.14,10.22L1330.26,312.72z"/>
</g>
<g>
	<path fill="#005F6F" d="M1061.11,218.06l25.33-43.61l21.18,1.4l8.2,34.89c15.76,8.29,12.48,4.99,22.27,19.95l-69.95,6.55
		l-12.14-10.22L1061.11,218.06z"/>
	<path opacity="0.1" fill="#FFFFFF" d="M1088.9,235.29L1088.9,235.29l-4.53-8.39l14.06-9.56l-14.06-20l9.38-22.41l-7.32-0.48
		c-3.79,6.54-27.37,47.03-30.44,52.57l12.14,10.22L1088.9,235.29z"/>
</g>
<g>
	<path fill="#005F6F" d="M534.86,197.47l25.33-43.62l21.18,1.4l8.2,34.9c15.76,8.28,12.48,4.99,22.27,19.94l-69.95,6.55
		l-12.14-10.23L534.86,197.47z"/>
	<path opacity="0.1" fill="#FFFFFF" d="M562.66,214.7L562.66,214.7l-4.53-8.39l14.06-9.56l-14.06-20l9.38-22.41l-7.32-0.48
		c-3.78,6.53-27.37,47.04-30.45,52.56l12.14,10.23L562.66,214.7z"/>
</g>
<g>
	<path fill="#005F6F" d="M1767.72,199.44l21.75-37.45l18.19,1.2l7.04,29.96c13.53,7.11,10.72,4.28,19.12,17.12l-60.06,5.62
		l-10.43-8.78L1767.72,199.44z"/>
	<path opacity="0.1" fill="#FFFFFF" d="M1791.58,214.23L1791.58,214.23l-3.89-7.21l12.07-8.21l-12.07-17.17l8.06-19.24l-6.28-0.42
		c-3.25,5.61-23.49,40.38-26.14,45.13l10.43,8.78L1791.58,214.23z"/>
</g>
</svg>
