<svg xmlns="http://www.w3.org/2000/svg" width="180" height="270"  xmlns:v="https://vecta.io/nano"><path fill="#002e41" d="M102.69 242.95v-13.33h-.8v13.23s-2.59 1.79-10.45 1.79c-7.66 0-12.04-1.69-12.34-1.79v-13.23h-.8v13.33c-3.48.3-6.17 2.49-6.17 5.27v11.24c0 2.98 3.08 5.37 6.96 5.37H102c3.78 0 6.96-2.39 6.96-5.37v-11.24c-.2-2.68-2.88-4.87-6.27-5.27z"/><path opacity=".1" d="M92.84 257.58c-5.77 2.19-14.03 4.18-20.3 3.68.9 2.09 3.48 3.58 6.57 3.58H102c3.78 0 6.96-2.39 6.96-5.37v-10.75c-1.79 1.59-7.26 5.47-16.12 8.86z"/><path d="M86.38 250.31c0-.5-.2-.9-.5-.9s-.5.4-.5.9c-1.29.4-2.29 2.49-2.29 3.88 0 1.49 1.19 2.79 2.69 2.79 1.49 0 2.69-1.19 2.69-2.79-.1-1.29-.9-3.28-2.09-3.88zm-7.27 0c0-.5-.3-.9-.5-.9-.3 0-.5.4-.5.9-1.29.4-2.29 2.59-2.29 3.88 0 1.49 1.19 2.79 2.69 2.79 1.49 0 2.69-1.19 2.69-2.79-.1-1.29-.99-3.28-2.09-3.88zm23.18 0c0-.5-.2-.9-.5-.9s-.5.4-.5.9c-1.29.4-2.29 2.49-2.29 3.88 0 1.49 1.19 2.79 2.69 2.79s2.69-1.19 2.69-2.79c-.1-1.29-.89-3.28-2.09-3.88zm-7.36 0c0-.5-.2-.9-.5-.9s-.5.4-.5.9c-1.29.4-2.29 2.59-2.29 3.88 0 1.49 1.19 2.79 2.69 2.79 1.49 0 2.69-1.19 2.69-2.79 0-1.29-.89-3.28-2.09-3.88z" fill="#ffcc34"/><path d="M77.92 198.97s-12.83-24.08-32.83-58.1c-.2-.3-.3-.6-.5-.9-8.06-13.63-14.53-27.66-18.7-41.29-4.28-13.63-6.27-27.06-5.47-39.5.4-6.67 1.69-13.03 3.88-19.1 2.49-6.87 5.87-12.14 9.55-16.02-2.79.3-18.21 3.48-28.65 34.82 0 .1-.1.2-.1.4C.61 72.62.61 86.05 3.5 98.68c3.68 15.92 11.94 30.54 22.09 42.19 2.29 2.69 4.78 5.17 7.26 7.56 21.79 20.69 41.39 53.23 41.39 53.23s3.38.2 5.07-1.79c-.89-.4-1.39-.9-1.39-.9zm97-139.78c0-.1-.1-.2-.1-.4-10.45-31.34-25.97-34.52-28.65-34.82 3.68 3.98 7.06 9.15 9.55 16.02 2.19 6.07 3.48 12.44 3.88 19.1.8 12.44-1.19 25.87-5.47 39.5-4.28 13.73-10.75 27.66-18.7 41.29-.2.3-.3.6-.5.9-20 34.03-32.83 58.1-32.83 58.1s-.5.5-1.19.9c1.59 1.99 5.77 1.79 5.77 1.79s18.8-32.53 40.59-53.23a130.73 130.73 0 0 0 7.26-7.56c10.05-11.64 18.41-26.27 22.09-42.19 2.78-12.54 2.68-25.97-1.7-39.4z" fill="#00a7c0"/><path d="M20.31 61.18v5.47l.1 2.69.4 5.57.3 2.69.9 5.17.3 1.49.2.99c.1.4.2.8.2 1.19l.6 2.69 2.59 9.55c4.28 13.73 10.75 27.66 18.7 41.29.2.3.3.6.5.9 20 34.03 32.83 58.1 32.83 58.1a6.45 6.45 0 0 0 1.19.9c1.09.6 2.49.9 2.98-1.29-.5-.4-.8-.7-.8-.7s-10.05-32.14-20-56.91l-2.59-6.27c-4.48-10.84-9.25-22.78-12.54-36.02-.1-.6-.3-1.19-.4-1.79l-.6-2.69-.3-1.39-.5-2.69c-.3-1.49-.6-3.08-.8-4.68h-.1-.1v-1.09c-.2-1.29-.3-2.59-.5-3.88v1.09l-.2-2.69c-.1-1.79-.3-3.68-.4-5.47l-.1-2.79c-.1-1.69-.1-3.28-.1-4.97v-2.69c0-1.29.1-2.49.1-3.78.4-6.87 1.39-14.03 3.08-21.39 3.08-13.03 8.16-20.69 13.73-25.17-2.59-.5-15.02.5-25.17 11.34-3.68 3.98-7.06 9.15-9.55 16.02-2.19 6.07-3.38 12.54-3.88 19.2m139.62.02c-.4-6.67-1.69-13.03-3.88-19.1-2.49-6.87-5.87-12.14-9.55-16.02-10.15-10.84-22.59-11.94-25.17-11.44 5.47 4.48 10.65 12.14 13.73 25.17 1.69 7.36 2.69 14.53 3.08 21.39.8 14.23-.9 27.46-3.88 39.5-3.28 13.23-8.06 25.27-12.54 35.92-.9 1.99-1.69 4.08-2.59 6.27-9.95 24.87-20 56.91-20 56.91s-.3.3-.8.7c.5 2.29 1.99 1.89 2.98 1.29.7-.4 1.19-.9 1.19-.9s12.83-24.08 32.83-58.1c.2-.3.3-.6.5-.9 8.06-13.63 14.53-27.66 18.7-41.29 4.21-13.54 6.2-26.97 5.4-39.4z" fill="#e2e2e2"/><path d="M85.58 196.69c-1.69-19.9-6.37-37.51-10.94-55.82-3.38-13.33-6.67-26.96-8.76-42.19-1.69-12.04-2.59-24.97-2.19-39.5 0-.8 0-1.49.1-2.29C65.08 24.26 73.94 12.03 81.8 7.55c-3.48-.8-13.63-2.29-22.68 4.97C53.54 17 48.47 24.66 45.38 37.69c-1.69 7.46-2.69 14.63-3.08 21.49-.8 14.23.9 27.36 3.88 39.5 3.28 13.23 8.06 25.27 12.54 35.92.9 1.99 1.69 4.08 2.59 6.27 9.95 24.87 20 56.91 20 56.91s.3.3.8.7c1.19.99 3.58 2.29 4.58-.1-.61-.8-1.11-1.69-1.11-1.69zm52.63-137.5c-.4-6.87-1.39-14.03-3.08-21.39-3.08-13.03-8.16-20.69-13.73-25.17-9.15-7.36-19.2-5.87-22.68-4.97 7.86 4.48 16.71 16.71 18.01 49.35 0 .8.1 1.49.1 2.29.4 14.53-.5 27.46-2.19 39.5-2.09 15.22-5.47 28.95-8.76 42.19-4.68 18.31-9.35 35.92-10.94 55.82 0 0-.4.9-1.19 1.69.99 2.39 3.38 1.09 4.58.1.5-.4.8-.7.8-.7s10.05-32.14 20-56.91l2.59-6.27c4.58-10.75 9.35-22.68 12.54-35.92 2.96-12.25 4.75-25.39 3.95-39.61z" fill="#00a7c0"/><path fill="#e2e2e2" d="M116.72 59.19l-.1-2.29c-1.29-32.63-10.15-44.87-18.01-49.35-1.49-.9-3.08-1.49-4.58-1.89v-.1s-1.49-.4-3.78-.4-3.78.4-3.78.4v.1c-1.49.4-3.08.99-4.68 1.89-7.86 4.48-16.81 16.71-18.01 49.35 0 .8-.1 1.49-.1 2.29-.4 14.53.5 27.46 2.19 39.5 2.09 15.22 5.47 28.95 8.76 42.19 4.68 18.31 9.35 35.92 10.94 55.82 0 0 .4.9 1.19 1.69.8.9 2.09 1.69 3.48.7 1.39.99 2.69.2 3.48-.7.7-.8 1.19-1.69 1.19-1.69 1.69-19.9 6.37-37.51 10.94-55.82 3.38-13.33 6.67-26.96 8.76-42.19 1.71-12.04 2.61-24.98 2.11-39.5z"/><path opacity=".1" fill="#999" d="M167.56 42.37s17.31 54.92-43.98 90.54C62.3 168.43 9.47 112.51 9.47 112.51s3.88 15.72 20.69 32.53 42.48 51.34 44.08 56.71c0 0 20.79-6.07 32.34-.4 0 0 20.5-31.94 41.19-53.73s44.67-60.08 19.79-105.25z"/><path fill="#00a7c0" d="M73.04 199.97s16.22-8.46 34.52-.2c0 0-3.28 5.97-4.38 11.34 0 0-14.92-2.79-25.87.99.01.11-.59-5.86-4.27-12.13z"/><g fill="#002e41"><path d="M102.99 211.61l.9-3.58-2.09-.5h0 0c-14.82-3.38-25.07.99-25.07.99l.6 3.68c.3-.1.5-.1.8-.2.5 3.28 1.19 9.35 1.39 17.91 0 .2.2.4.4.4h0c.2 0 .4-.2.4-.4-.2-8.76-.9-14.82-1.39-18.11a28.21 28.21 0 0 1 4.97-.99c.3 4.08.8 12.24.4 18.61 0 .2.2.4.4.4h0c.2 0 .4-.2.4-.4.4-6.47 0-14.63-.4-18.8 1.69-.2 3.38-.3 5.07-.3v18.41c0 .2.2.4.4.4s.4-.2.4-.4v-18.41c1.79 0 3.48.1 4.97.3-.6 4.28-1.19 12.44-.4 18.21 0 .2.2.4.4.4h.1c.2 0 .4-.2.4-.4-.8-5.87-.1-13.93.4-18.11 1.59.2 2.98.3 3.98.5-.4 3.48-.9 9.55-.2 17.51 0 .2.2.4.4.4h0c.2 0 .4-.2.4-.4-.6-7.96-.2-13.93.2-17.31a22.57 22.57 0 0 1 1.77.19z"/><path opacity=".5" d="M72.25 198.68s16.52-9.25 36.02.2l-.8 1.19s-16.42-8.46-34.33.1l-.89-1.49z"/></g><path fill="#00a7c0" d="M78.12 229.12s13.33-3.58 25.07-.3c0 0 2.09 1.69-.4 3.28 0 0-12.93-2.69-24.58.7.01.1-2.38-1.79-.09-3.68z"/></svg>