<svg xmlns="http://www.w3.org/2000/svg" viewBox="0 0 30 25">
  <defs/>
  <path fill="#FFF" d="M24.74 6.9c-2.91-.03-5.21 2.23-5.24 5.15-.06 2.39 1.98 5.15 5.04 5.18 2.94.03 5.26-2.23 5.29-5.16.03-2.74-2.33-5.14-5.09-5.17zm1.86 6.18c-.43.31-.86.63-1.29.95-.25.18-.49.36-.74.54-.08.05-.16.06-.24.02a.21.21 0 01-.12-.2v-.73-.42h-1.6c-.13 0-.2-.06-.2-.2v-.97-.92c0-.13.06-.19.19-.19h1.6v-.34-.81c0-.09.04-.15.11-.19.09-.05.17-.04.25.02.26.19.53.38.79.58.32.23.64.47.96.7.46.33.92.67 1.38 1 .15.11.15.28 0 .39-.37.25-.73.51-1.09.77z"/>
  <g fill="#1D6F7D">
    <path d="M18.07 12.09c0-.84.16-1.63.44-2.37-1.29-1.27-2.56-2.56-3.81-3.87-1.21-1.27-2.51-2.16-4.34-1.88-.34-.58-.6-1.14-.96-1.62-.9-1.24-3.11-1.7-4.54-.19-1.17 1.24-2.16 2.65-3.23 4 .5.58.86 1 1.19 1.39-.13 1.1-.26 2.17-.39 3.24.82.57 1.49 1.04 2.22 1.56.44-.14.88-.29 1.36-.45.06.2.17.38.17.57.02 1.18-.06 2.36.04 3.53.13 1.68-.13 3.17-1.55 4.27v3.41c1.15.45 2.28.22 3.66.16-.34-.67-.6-1.16-.96-1.87 1.22-1.34 2.49-2.74 3.92-4.31.42-.04 1.09-.11 1.97-.2.77.64 1.68 1.37 2.56 2.13.83.72 1.61 1.49 2.46 2.28-.16.55-.33 1.12-.5 1.72.24.15.4.34.57.34 1.1.03 2.2.01 3.3.01.33-.44.65-.8.9-1.21.59-.96.64-1.65-.22-2.39-.92-.8-1.17-1.65-1.02-2.58-1.95-1.16-3.24-3.26-3.24-5.67zM4.16 6.69c-.34-.3-.52-.45-.7-.61.17-.17.32-.4.53-.48.12-.04.47.16.47.27.02.21-.14.43-.3.82z"/>
    <path d="M12.8 18.34c-.9 1.71.39 3.79-1.66 4.99 1.56 1.2 3.25.23 4.59.88.83-.82.42-1.69.57-2.64-1.19-1.09-2.29-2.11-3.5-3.23zM4.97 13.59c-.72.43-1.29.77-1.85 1.1-2.45-.86-2.97-.32-2.59 2.78h4.43c.01-1.3.01-2.51.01-3.88z"/>
  </g>
</svg>
