<svg xmlns="http://www.w3.org/2000/svg" width="84" height="255"  xmlns:v="https://vecta.io/nano"><path fill="#f3b723" d="M30.44 243.29c-.2 11.67 16.61 11.77 16.52 0l.1-106.61c-.1-11.67 16.61-11.67 16.52 0v45.89l-.1 41.04c-.2 11.67 16.61 11.77 16.52 0l.2-136.28c-.3-21.76-12.26-34.91-26.6-39.36 5.54-.99 10.98-2.47 16.22-4.65C78.11-7.3 7.99-12.54 13.43 40.07c.4 1.19.1 2.47.3 3.66 5.34 2.18 10.88 3.66 16.42 4.55C16.1 52.92 4.53 65.98 4.14 87.34l-.1 95.24c0 8.5 9.99 8.6 9.99 0V153.1c0-4.94 3.66-9 8.21-9 10.19-.1 8.11 13.94 8.21 20.67l-.01 78.52zm-9-197.98c-5.74.1-3.56-19.68-2.08-23.54C25.7 3.28 53.19 1.4 61.89 18.9c3.86 6.53 2.57 14.34 3.07 21.56.1 4.25-6.72 6.13-15.03 6.72-5.04-1.09-10.19-1.09-15.23-.1-5.94-.39-11.08-1.18-13.26-1.77z"/><path fill="#f38a00" d="M42.11 114.83c29.07-.49 39.95-27.79 32.54-48.36-.2-6.13-.69-12.26-.59-18.39.1-3.56-1.78-6.33-3.66-9.1l-.59-.3c-.2 6.33 0 12.76.3 19.09-5.74-7.81-50.34-7.71-56.07.4-.1-6.03-.2-12.16-.59-18.1l-.59.3c-1.78 2.87-3.46 5.64-3.26 9.1.49 5.54.2 11.27.2 16.91-7.64 20.46 3.14 47.86 32.31 48.45h0z"/><path fill="#f8c060" d="M19.17 88.72l.2.3c4.15 7.61 12.46 12.96 23.93 12.86 11.57-.49 19.28-6.53 22.94-14.34h.1c7.32-13.35 3.26-41.34 3.36-42.13-5.74 2.27-11.67 3.76-17.8 4.55-2.87-.99-16.22-.69-18.99.3a78.02 78.02 0 0 1-19.28-4.55c-.1 1.29-1.48 26.21 2.87 38.37 0 .19 1.98 3.95 2.67 4.64h0z"/><path fill="#f38a00" d="M17.19 85.66l1.68 2.87c-.79-.3-1.58-.59-2.27-1.09l.59-1.78h0z"/><path fill="#fc9c02" d="M1.27 71.71c0 .1.1.1 0 .2v-.2z"/><path fill="#6b6b6f" d="M69.61 43.43v1.98c-8.5 3.26-17.6 5.04-26.7 5.24-.99.1-1.19 0-2.37 0-9.3 0-18.3-1.58-27-4.94l-.1-1.98c18.09 7.41 38.36 7.12 56.17-.3z"/><path d="M1.17 70.82c.4.89.2 1.19.2 1.29.89 3.46 2.77 6.23 5.93 8.11v-.2c0 .1.1.3.1.4 1.29.69 2.57 1.38 4.05 1.58-2.97-10.38-.99-21.76-1.98-32.44-.2-3.46 1.48-6.23 3.26-9.1C-2.59 41.95.58 59.85 1.17 70.82zm81.88-18.79c-.2-7.02-5.93-12.86-12.76-13.05 1.88 2.77 3.76 5.54 3.66 9.1-.3 10.48 1.58 21.26-.1 31.55 13.06-2.08 9.01-18.2 9.2-27.6z" fill="#f8c060"/><path d="M38.16,82.79c-10.58-7.81,1.88-24.33,12.36-16.22C61.2,74.38,48.64,91,38.16,82.79z"/><path d="M78.51 55.59h0c-.89 0-1.58-.69-1.58-1.58v-4.15c0-.89.69-1.58 1.58-1.58h0c.89 0 1.58.69 1.58 1.58v4.15c0 .89-.69 1.58-1.58 1.58zm0 16.02h0a1.52 1.52 0 0 1-1.48-1.48V58.66a1.52 1.52 0 0 1 1.48-1.48h0a1.52 1.52 0 0 1 1.48 1.48v11.57c0 .79-.69 1.38-1.48 1.38z" fill="#f38a00"/><path fill="#005f6f" d="M41.02 6.34c-12.16.3-18.59 6.33-22.45 14.44S16.4 41.15 16.4 41.15C25.6 45.41 37.66 46 39.74 46h2.37c2.18 0 14.14-.59 23.34-4.85 0 0 1.68-12.26-2.18-20.37S53.29 6.64 41.02 6.34h0z"/><path fill="#196f7d" d="M16.5 35.91C13.93 20.68 26.19 5.26 42.11 6.94c-.49.4-1.09.79-1.78 1.38 12.26.1 22.25 10.09 21.95 22.35-1.29-1.48-2.27-3.07-3.86-3.76-.49 3.86 2.97 11.08-.99 13.45-3.07-.89-1.09-6.23-1.78-8.7 1.98-1.98 3.36-7.32-1.19-5.44-1.58-5.24-3.96-9.99-9.79-11.77-1.68-1.38-.59-4.35-4.35-4.15.89 2.08.89 2.08.69 2.67-1.48-2.08-3.56-2.37-5.24-.49 1.98.69 1.98.69 2.47 1.29-7.02 1.19-11.37 6.33-12.36 13.15-5.83-1.68-2.47 5.14.3 6.72.1 1.48.89 2.67 1.78 3.76.79 9.49.59 6.43-9 3.66-1.78-1.98 0-5.93-1.09-8.31-.78.79-.58 2.17-1.37 3.16h0z"/><path fill="#fc9c02" d="M16.5 40.56c7.81 3.26 13.75 4.45 24.72 4.35 10.88-.1 16.61-1.19 24.43-4.45 3.76 9.5-52.91 10.09-49.15.1z"/><path d="M31.93 39.18c-6.63-.89-5.34-7.32-6.03-12.26.99-6.92 5.44-11.97 12.36-13.15-.49-.59-.49-.59-2.47-1.29 1.78-1.78 3.76-1.58 5.24.49.2-.49.2-.49-.69-2.67 3.76-.2 2.67 2.67 4.35 4.15 9.49 1.98 14.74 21.56 3.86 24.53.1.99-2.37 5.14-2.18 1.78-4.35 4.25-7.52 4.35-11.87.2.39 3.75-1.98-.79-2.57-1.78h0zm8.5-14.14c-5.34-11.37-18.3 4.25-6.23 7.32.69.1.69.4.69.99-.4 7.71 11.77 7.71 11.37 0 0-.69.1-.99.89-1.09 11.77-3.76-1.67-18.8-6.72-7.22h0z"/><path d="M25.99 26.91c.4 2.18.59 4.45.3 6.72-2.77-1.57-6.23-8.4-.3-6.72zm28.48 6.04c-.1-2.18-.59-4.65.1-6.72 5.44-1.89 2.48 5.33-.1 6.72zm-22.54 6.23c.59.99 2.87 5.54 2.57 1.88 4.25 4.15 7.52 4.05 11.87-.2.3.4-.3 1.09.2 1.29.49.1.89-.3 1.09-.79.2-.79.99-1.29.89-2.18 0-.1.3-.2.4-.3 7.22 5.74 2.47 5.83-3.76 6.03-4.45.1-8.7.2-10.29 0-9.9-.59-3.86-4.74-2.97-5.73h0zm8.5-14.14c5.04-11.57 18.49 3.46 6.72 7.22-.69.1-.89.4-.89 1.09.4 7.71-11.77 7.81-11.37 0 0-.59 0-.89-.69-.99-12.06-3.17.89-18.7 6.23-7.32h0z" fill="#eaeeeb"/><path d="M32.42 26.62c1.29 0 3.26-.99 1.48-2.18 4.95-.1.2 6.73-1.48 2.18zm13.25-2.48c4.55-.2 1.48 5.83-1.09 2.87-.3-.4-.59-.79.3-.79 1.29.1 2.47-1.28.79-2.08zm-7.81 5.74c.79.4 1.78.3 1.88 1.19-.69.99-1.48-.4-1.88-1.19zm4.65 0c-.2.79-1.19 2.18-1.78.99.2-.69 1.09-.89 1.78-.99zm2.08 5.84h-.79c.1-1.88-6.33-1.68-6.13.1h-.79c-.21-2.87 7.8-3.07 7.71-.1zm-18.3-4.65c-.4-.89-.49-1.68-.49-2.37 0-1.19-1.78-1.38-2.08-.3-.3.69.59 0 .49.49 0 1.29 1.09 1.58 2.08 2.18zm30.16-2.97c0-.49.89.2.49-.49-.2-1.19-2.08-.89-2.08.2 0 .79-.1 1.48-.49 2.37.99-.6 2.08-.89 2.08-2.08z"/></svg>