<svg xmlns="http://www.w3.org/2000/svg" width="600" height="600"  xmlns:v="https://vecta.io/nano"><circle fill="#e6e6e6" cx="300" cy="300" r="285"/><g fill="#c8c8c8"><path d="M220.9 573.7c25.1 7.2 51.6 11.2 79.1 11.2 157.4 0 285-127.6 285-285 0-83.1-35.6-157.8-92.2-209.9 118.3 259.4-52.1 528.4-271.9 483.7z"/><path d="M550.6 299.5c-.2 38-57.9 38-58 0 .1-38 57.8-38 58 0z"/></g><path fill="#a4a4a4" d="M521.5 270.4c-21.8-.6-36.4 25-25.1 43.5-8.9-28.5 17.8-45.8 41.7-38.3-4.7-3.2-10.4-5.2-16.6-5.2z"/><path fill="#c8c8c8" d="M337.7 229.1c-1.5 87.6-131.8 87.6-133.3 0 1.5-87.6 131.8-87.6 133.3 0z"/><path fill="#a4a4a4" d="M271 162.5c-50.1-1.4-83.7 57.5-57.8 99.8-19.8-65.6 40.9-105.6 95.7-87.9-10.7-7.5-23.7-11.9-37.9-11.9z"/><path fill="#c8c8c8" d="M445 141.8c.3 21.7-33.8 21.7-33.5 0-.3-21.7 33.8-21.7 33.5 0z"/><path fill="#a4a4a4" d="M428.2 125.1c-12.6-.4-21 14.4-14.5 25.1-5.3-16.1 10.6-26.7 24.1-22.1-2.7-1.9-6-3-9.6-3z"/><path fill="#c8c8c8" d="M210.4 453.9c-.2 38-57.9 38-58 0 .1-37.9 57.9-37.9 58 0z"/><path fill="#a4a4a4" d="M181.4 424.9c-21.8-.6-36.4 25-25.1 43.5-8.9-28.5 17.8-45.9 41.7-38.3-4.8-3.3-10.5-5.2-16.6-5.2z"/><path fill="#c8c8c8" d="M125.2 284.9c-.2 38-57.9 38-58 0 .1-38 57.9-38 58 0z"/><path fill="#a4a4a4" d="M96.2 255.9c-21.8-.6-36.4 25-25.1 43.5-8.9-28.5 17.8-45.9 41.7-38.3-4.8-3.3-10.5-5.2-16.6-5.2z"/><path fill="#bebebe" d="M550.6 299.5c-.1-11.5-5.4-19.4-12.8-24-2.1-.6-4.3-1.1-6.4-1.3-.5 18.2-2.2 36.1-5.1 53.4 12.6-1.9 24.2-11.2 24.3-28.1z"/><path fill="#9a9a9a" d="M531.4 274.2c2.1.3 4.3.7 6.4 1.3-2-1.2-4.1-2.2-6.4-2.9v1.6z"/><path fill="#c8c8c8" d="M373.8 417.6c-1.1 66.8-100.5 66.8-101.6 0 1.1-66.8 100.5-66.8 101.6 0z"/><path fill="#a4a4a4" d="M323 366.8c-38.2-1.1-63.8 43.8-44 76.1-14.2-51.9 29.2-79.2 73-67-8.3-5.7-18.3-9.1-29-9.1z"/></svg>