<svg xmlns="http://www.w3.org/2000/svg" viewBox="0 0 5.94 5.94"  xmlns:v="https://vecta.io/nano"><path fill="#998e73" d="M5.94 2.97a2.97 2.97 0 11-5.94 0 2.97 2.97 0 015.94 0z"/><path fill="#d0c696" d="M.54 1.27H5.4a3.02 3.02 0 0 0-.86-.81H1.39c-.33.21-.62.48-.85.81zM0 2.97a2.76 2.76 0 0 0 .06.57h5.83a2.62 2.62 0 0 0 .06-.57l-.01-.24H.01L0 2.97z"/><path fill="#bfb58c" d="M.01 2.72h5.91a2.92 2.92 0 0 0-.52-1.45H.54a2.93 2.93 0 0 0-.53 1.45zm.05.82c.09.48.3.92.6 1.29h4.63c.3-.37.51-.81.6-1.29H.06z"/></svg>