<svg xmlns="http://www.w3.org/2000/svg" width="32.35" height="32.35"  xmlns:v="https://vecta.io/nano"><path fill="#f9b24d" d="M32.35 16.18c0 8.93-7.24 16.18-16.18 16.18A16.19 16.19 0 0 1 0 16.18C0 7.24 7.24 0 16.18 0c8.93 0 16.17 7.24 16.17 16.18z"/><path fill="#ef8800" d="M20.44.57l-8.56.32s3.24 1.13 4.81.88 4.37.88 5.35.98c.54.05 1.44-.3 2.15-.62A15.71 15.71 0 0 0 20.44.57z"/><path d="M5.27 4.24l.43-.38-.43.38zM2.62 7.36l.3-.42-.3.42zm3.72-4.01l.43-.32c-.15.1-.29.21-.43.32zm1.19-.83l.38-.24c-.13.07-.25.16-.38.24zM3.41 6.25l.37-.45-.37.45zm22.67-2.86s-2.4 4.78-24.11 5.07c-.26.45-.49.92-.69 1.41C18.69 11.2 27.73 8.49 29.95 7.7c-1.02-1.66-2.34-3.12-3.87-4.31zM4.3 5.21l.4-.42-.4.42z" fill="#f94d00"/><path d="M26.08 3.39c-5.46.52-13.77-1.08-16.97-1.77a14 14 0 0 0-1.2.66c-.13.07-.25.16-.38.24a19.92 19.92 0 0 0-.76.5c-.15.1-.29.21-.43.32l-.64.52c-.14.13-.29.25-.43.38l-.57.55-.4.42a14.61 14.61 0 0 0-.52.59l-.37.45c-.17.22-.33.45-.5.69l-.3.42c-.23.36-.45.72-.66 1.1h0c21.73-.3 24.13-5.07 24.13-5.07zm3.28 9.2c.16.01 1.33.16 2.67.34-.28-1.39-.74-2.7-1.36-3.94-2.81.7-7.77 1.91-10.94 2.45-4.61.79-6.38.79-8.64 0s-4.42-.39-4.42-.39 2.06.1 6.77 2.16c4.72 2.06 15.52-.65 15.92-.62zm-16.6 2.09C6.38 13.04 2.59 11.46.95 10.7A16.26 16.26 0 0 0 0 16.18c0 .46.02.91.06 1.36 2.05-.47 6.37-1.16 11.82-.37 7.69 1.11 13.84-1.83 13.84-1.83s-4.05 1.63-12.96-.66zM1.16 22.2c.03.09.08.17.11.25-.04-.08-.06-.17-.1-.26l-.01.01z" fill="#ff7c14"/><path fill="#ab3900" d="M1.61 23.22l.12.21c-.04-.07-.07-.15-.1-.22l-.02.01z"/><path fill="#ff7c14" d="M14.99 22.6c2.48.8 7.15.72 10.4.54-4.71-1.47-11.46-3.04-16.48-1.71-2.67.71-4.79 1.01-6.29 1.13a22.67 22.67 0 0 1-1.26.07l.27.58c.04.07.07.15.1.22.16.33.33.66.52.97.01 0 .01 0 .02-.01 2.23-.73 9.33-2.88 12.72-1.79z"/><g fill="#ab3900"><path d="M3.32 22.48l-.51.05.51-.05zm.83-.1l-.54.07.54-.07zm21.24.76c-3.25.18-7.91.27-10.4-.54-3.39-1.09-10.49 1.06-12.72 1.79.4.67.82 1.32 1.31 1.92 2.41-.86 8.41-2.51 14.88-.54 3.23.98 6.03 1.91 8.25 2.67 1.38-1.19 2.55-2.62 3.47-4.21-.84.01-1.84-.13-3.02-.53l-1.77-.56zM7.41 21.79l-.78.17.78-.17z"/><path d="M8.9 21.42l-1.16.29 1.16-.29zm-2.59.6l-.87.16.87-.16zm24.12 1.78l-.11.2.12-.2h-.01zm-25.1-1.6l-.89.14.89-.14z"/></g><path fill="#f94d00" d="M32.35 16.18v-.14l-6.27 2.04c-2.66 1.16-11.81.6-18.22.08-3.99-.33-6.35.41-7.57 1.01a16.29 16.29 0 0 0 .9 3.03c.03.08.06.17.1.26.02.06.04.12.06.17h.01c.4-.01.89-.04 1.46-.09.16-.01.33-.03.51-.05l.29-.03c.17-.02.36-.04.54-.07.1-.01.19-.02.29-.04l.89-.14c.03-.01.07-.01.11-.02l.87-.16c.1-.02.21-.04.32-.07.25-.05.51-.11.78-.17.11-.03.22-.05.34-.08l1.16-.29c5.02-1.33 11.77.25 16.48 1.71l1.78.58c1.17.4 2.18.54 3.02.53h.01c.05-.08.08-.16.13-.24.04-.07.07-.13.11-.2a16.26 16.26 0 0 0 1.9-7.62z"/><path fill="#ff6005" d="M16.18 32.35c2.99 0 5.79-.81 8.19-2.23-1.22-.41-2.6-.76-3.88-.78-3.27-.07-4.32-1.77-6.47-.9-1.42.58-5.76.18-8.55-.15a16.07 16.07 0 0 0 10.71 4.06z"/><path opacity=".1" d="M32.35 16.18C32.35 8.93 27.58 2.79 21 .74c2.27 6.23 4.98 19.29-5.48 31.6.22.01.44.02.66.02a16.19 16.19 0 0 0 16.17-16.18z"/></svg>