<svg xmlns="http://www.w3.org/2000/svg" width="100" height="100"  xmlns:v="https://vecta.io/nano"><path fill="#d57400" d="M99.5 50c0 27.34-22.13 49.5-49.45 49.5C22.63 99.6.5 77.44.5 50 .5 22.66 22.63.5 49.95.5 77.37.5 99.5 22.66 99.5 50z"/><path fill="#d59500" d="M9.47 21.66h81.05c-3.79-5.39-8.67-9.98-14.26-13.57H23.73c-5.58 3.49-10.47 8.18-14.26 13.57z"/><path fill="#d0c696" d="M.5 50a49.16 49.16 0 0 0 .9 9.48h97.1c.7-2.99 1-6.19 1-9.48l-.2-4.09H.7L.5 50z"/><path fill="#c57b00" d="M.7 45.91h98.6c-.7-8.98-3.89-17.27-8.77-24.25H9.47C4.59 28.64 1.5 36.93.7 45.91z"/><path fill="#ffaa1f" d="M1.4 59.58C3 67.56 6.48 74.95 11.47 81.14h77.07c4.98-6.19 8.47-13.47 10.07-21.56H1.4h0z"/></svg>