<svg xmlns="http://www.w3.org/2000/svg" viewBox="0 0 10.94 10.98"  xmlns:v="https://vecta.io/nano"><path fill="#bfc0c1" d="M8.97 9.67C3.4 14.17-3.44 6 1.97 1.31c5.57-4.5 12.41 3.67 7 8.36z"/><path fill="#e8e8e8" d="M9.65 1.99C7.42-.76 2.96-.54.99 2.39c1.15.01 2.63.09 3.28.39 3.19.77 3.33-.55 6.45 1.25-.2-.73-.56-1.42-1.07-2.04z"/><path fill="#adadad" d="M6.44 6.83c-3.19.72-2.79.82-6.41-1.07.18 5.57 8.11 7.14 10.39 2.02-1.02-.14-3.02-.59-3.98-.95z"/><path opacity=".1" d="M9.08 9.57a5.47 5.47 0 0 0 1.64-5.54h0C10.18 1.93 8.18.27 6.1.08L4.34 10.82c1.62.35 3.41-.07 4.74-1.25z"/></svg>