<svg xmlns="http://www.w3.org/2000/svg" viewBox="0 0 9.07 9.07"  xmlns:v="https://vecta.io/nano"><path fill="#216970" d="M9.07 4.53c0 2.5-2.03 4.53-4.53 4.53C2.03 9.07 0 7.04 0 4.53 0 2.03 2.03 0 4.53 0c2.51 0 4.54 2.03 4.54 4.53z"/><path fill="#5dceae" d="M.82 1.93h7.42c-.34-.49-.79-.91-1.3-1.23H2.13c-.51.32-.96.74-1.31 1.23z"/><path fill="#d0c696" d="M0 4.53a4.14 4.14 0 0 0 .09.87h8.9c.05-.28.09-.57.09-.87 0-.12-.01-.25-.02-.37H.02L0 4.53z"/><path fill="#73e5ff" d="M.02 4.16h9.03c-.07-.82-.35-1.58-.8-2.22H.82c-.45.63-.73 1.39-.8 2.22z"/><path fill="#5dc1d1" d="M.09 5.4c.14.74.46 1.41.91 1.97h7.06a4.37 4.37 0 0 0 .92-1.97H.09h0z"/></svg>