<svg xmlns="http://www.w3.org/2000/svg" viewBox="0 0 72.94 11.41"  xmlns:v="https://vecta.io/nano"><path fill="#898989" d="M0 7.94L14.07.83l3.47.76 5.44 7.49 7.39-3.17 3.43.51 5.08 2.66 3.24-3.04 4.32 2.47 1.78-2.47 3.43-1.08 1.53 1.14 3.3 2.22 2.05-4.78L63.36 0l9.58 7.77v1.31 2.33H0z"/><path d="M14.07.83L4.32 8.67v2.74H0V7.94zM33.8 6.42l-2.61 2.57-8.21.09 7.39-3.17zm8.32-.38l-.89 1.73-.69.25-.64.91-3.02 2.48 2-2.33zm4.32 2.47l-.55 1.03-.13.98-.56.89 2.13-2.48.85-1.91 1.91-.81 1.56-1.25-3.43 1.08zM63.36 0v2.78l-7.06 8.63-1.19-3.23-1.18-1.57 2.35 1.57 2.25-4.64z" fill="#a0a0a0"/></svg>