<svg xmlns="http://www.w3.org/2000/svg" width="289.52" height="479.46"  xmlns:v="https://vecta.io/nano"><path fill="#8eacb6" d="M.01 6.35s29.28-14.3 50.2 0C71.13 20.64 80.54 43.11 72.7 68.64c0 0 30.86-7.15 47.07 15.32 16.22 22.46 17.26 53.61 3.14 74.03l1.05 9.7s39.22-2.55 26.67 43.4c0 0 67.86 30.25 10.2 82.33l128.69 26.05v31.65l-145.69 20.29s17 29.61-12.03 33.44-24.32-3.83-24.32-3.83 13.34 46.72-30.59 70.46C32.95 495.22.01 458.46.01 458.46V6.35z"/><path fill="#d4e0e3" d="M.01 102.95s19.68-9.61 33.73 0c14.06 9.61 20.39 24.71 15.12 41.87 0 0 20.74-4.81 31.64 10.29s11.6 36.03 2.11 49.76l.71 6.52s26.36-1.71 17.93 29.17c0 0 45.61 20.33 6.86 55.34l181.41 28.43v21.28l-188.63 9.31s8.83 14.85-8.83 20.6c-18.68 6.08-19.8-7.3-19.8-7.3s8.97 31.4-20.56 47.36S.01 406.83.01 406.83V102.95h0z"/><path opacity=".6" fill="#fff" d="M220.45 285.81c-6.31 0-11.42-4.99-11.42-11.15s5.11-11.15 11.42-11.15 11.43 5 11.43 11.15c-.01 6.16-5.12 11.15-11.43 11.15h0zm-86.58 177.73c-6.31 0-11.42-4.99-11.42-11.15s5.11-11.15 11.42-11.15 11.43 5 11.43 11.15c0 6.16-5.11 11.15-11.43 11.15zm60-170.78c-3.33 0-6.02-2.63-6.02-5.88s2.7-5.88 6.02-5.88 6.02 2.63 6.02 5.88-2.7 5.88-6.02 5.88zm-84.58 177.1c-3.33 0-6.02-2.63-6.02-5.88s2.69-5.88 6.02-5.88 6.02 2.63 6.02 5.88-2.7 5.88-6.02 5.88z"/></svg>