<svg xmlns="http://www.w3.org/2000/svg" width="32.63" height="48.64"  xmlns:v="https://vecta.io/nano"><path fill="#196f7d" d="M8.28 27.08h22.75v14.69H8.28z"/><path fill="#046271" d="M31.03 27.79H19.38v13.68h11.65v.3H8.28V27.08h22.75z"/><path fill="#196f7d" d="M1.93 38.43h6.35v3.34H1.93z"/><path d="M.41 41.77h32.1v6.87H.41zm6.26-16.26h25.96v1.57H6.67z" fill="#00152e"/><path fill="#004562" d="M28.29 28.54h2.17v2.73h-2.17z"/><path fill="#ffbc1f" d="M28.29 28.79h1.89v2.48h-1.89z"/><path fill="#004562" d="M8.7 28.67h2.17v2.73H8.7z"/><path fill="#ffbc1f" d="M8.7 28.92h1.89v2.48H8.7z"/><path fill="#004562" d="M11.7 28.67h2.16v2.73H11.7z"/><path fill="#ffbc1f" d="M11.7 28.92h1.89v2.48H11.7z"/><path fill="#004562" d="M24.7 28.54h2.17v2.73H24.7z"/><path fill="#ffbc1f" d="M24.7 28.79h1.89v2.48H24.7z"/><path fill="#fff" d="M14.96 1.3l-.09-.65-13.8 1.94.04.26H.93v13.64h.65V3.18z"/><path opacity=".7" fill="#e2e2e2" d="M16.44 1.22c-.57-.48-1.17-.88-1.8-1.23l-3.66 4.38C8.9 2.95 6.06 3.3 4.43 5.28c-1.63 1.96-1.46 4.8.28 6.57L.59 16.78c.45.56.96 1.08 1.52 1.55 4.72 3.96 11.76 3.33 15.72-1.39s3.33-11.76-1.39-15.72z"/><path fill="#c9c9c9" d="M7.84 8.12L.59 16.78c.45.56.96 1.08 1.52 1.55 4.72 3.96 11.76 3.33 15.72-1.39l.11-.14-10.1-8.68z"/><path fill="#e2e2e2" d="M25.61 23.29H15.06a2.22 2.22 0 0 0-2.22 2.22h14.98c0-1.23-.99-2.22-2.21-2.22z"/><path fill="#c9c9c9" d="M20.21 23.29h-5.15a2.22 2.22 0 0 0-2.22 2.22h7.37v-2.22z"/><path fill="#004682" d="M15.21 22.33h10.24v.95H15.21z"/><path fill="#e2e2e2" d="M22.54 22.33v-2.06a2.2 2.2 0 0 0-4.4 0v2.06h4.4z"/><path fill="#c9c9c9" d="M20.21 18.22l-1.1.22c-.59.39-.98 1.07-.98 1.83v2.06h2.08v-4.11z"/><path opacity=".2" d="M20.74 19.49c.31-.35.48-.77.54-1.21-.29-.14-.61-.22-.95-.22-1.16 0-2.11.9-2.19 2.04a2.25 2.25 0 0 0 2.6-.61z"/><path fill="#e2e2e2" d="M16.02 18.32l1.55 1.35c.92.8 2.31.7 3.11-.22s.7-2.31-.22-3.11l-1.55-1.35-2.89 3.33z"/><path fill="#c9c9c9" d="M18.29 17.15l-.57-.53-.46.27-1.24 1.43 1.55 1.35c.92.8 2.31.7 3.11-.22.03-.04.07-.08.1-.12l-2.49-2.18z"/><path d="M20.68 18.88a.57.57 0 1 1-.57-.57c.32 0 .57.25.57.57zm-1.7-3.83l-.12-.02-2.85 3.29.54.47c1.34-.8 2.47-2.68 2.85-3.36l-.42-.38z" fill="#004682"/><path fill="#fff" d="M20.44 18.88c0 .18-.14.32-.32.32s-.32-.14-.32-.32.14-.32.32-.32c.17 0 .32.14.32.32z"/><path fill="#004682" d="M14.65 0L.59 16.78l.41.48L15.28.38 14.65 0z"/><path fill="#f3b723" d="M2.75 2.82c0 .76-.62 1.38-1.38 1.38S0 3.58 0 2.82.62 1.44 1.38 1.44s1.37.62 1.37 1.38z"/></svg>