<svg xmlns="http://www.w3.org/2000/svg" xmlns:xlink="http://www.w3.org/1999/xlink" width="180" height="410" xmlns:v="https://vecta.io/nano"><path fill="#00a7c0" d="M81.35 196.34c-1.41-1.4-2.13-6.97-.61-12.17a13.66 13.66 0 0 1 1.28 0c-.12 0-.23-.01-.35-.01l-68.53.48a10.48 10.48 0 0 0-10.4 10.55s-.18 5.1-.08 9.81c.02-.8.08.75.15 0H80.7c-.02-2.9.21-5.8.65-8.66z"/><path opacity=".2" d="M82.02 184.17l.27.01c-.08-.01-.17-.01-.27-.01z"/><path fill="#00a7c0" d="M81.35 196.34c.62-4.04 1.7-8 3.25-11.76-.74-.21-1.52-.35-2.3-.4-.09 0-.18-.01-.27-.01-.43-.02-.86-.03-1.28 0-1.53 5.2-.81 10.78.6 12.17z"/><path fill="#0089a2" d="M82.3 184.18c-.09 0-.18-.01-.27-.01-.43-.02-.86-.03-1.28 0-1.52 5.2-.8 10.78.61 12.17.62-4.04 1.7-8 3.25-11.76a1.96 1.96 0 0 1 .06-.14c-.73-.17-1.53-.24-2.37-.26z"/><g fill="#009db6"><path d="M81.08 210.93c-.23-1.97-.37-3.95-.38-5.93H2.81c-.07.75-.12-.8-.15 0 .08 3.58.45 10.01 1.64 12.82 1.44 3.14 3.98 5.44 8.16 5.66.31.01.62.03.95.02.55-.05 9.82-.09 21.45-.15l43.41-.3 2.43-.04c-1.54-5.09-.95-10.54.38-12.08z"/><path d="M81.08 210.93c-1.33 1.54-1.93 6.99-.38 12.07l1.89-.05c.42-.04.84-.1 1.26-.19-1.37-3.81-2.29-7.79-2.77-11.83z"/></g><path fill="#007f98" d="M83.86 222.75c-1.38-3.81-2.3-7.78-2.77-11.82-1.33 1.54-1.93 6.99-.38 12.07l1.89-.05c.33-.01.58-.03.72-.04.19-.03.37-.05.56-.09-.01-.02-.02-.04-.02-.07z"/><path d="M88.08 231.57c6.8 11.12 18.29 19.49 34.45 21.29h0c-14.36-1.76-26.79-9.8-34.45-21.29zm33.78-75c-18.96 2.37-31.35 13.73-37.21 27.87-2.68 6.47-4 13.52-3.95 20.56l11.68-.08 29.82.08-.34-48.43z" fill="#fff"/><path opacity=".1" d="M4.3 217.82c-1.19-2.81-1.56-9.24-1.64-12.82-.1 3.38.3 9.9 1.64 12.82zm9.11 5.68a9.9 9.9 0 0 1-.95-.02l.95.02zm109.13 29.36L122.2 205h0l.33 47.86z"/><path fill="#e6e6e6" d="M122.2 205l-29.81-.08-11.69.08c.04 6.07 1.11 12.14 3.17 17.82 1.11 3.05 2.51 5.98 4.2 8.75 7.66 11.5 20.09 19.53 34.45 21.29L122.2 205z"/><path fill="#00a7c0" d="M116.39 157.66l.09 94.07 6.04 1.43-.67-96.29c-1.85-.05-3.67.32-5.46.79z"/><use xlink:href="#B" fill="#003444"/><path fill="#ccc" d="M88.01 18.38A15.93 15.93 0 0 0 72.07 2.5l-40.06.06c-8.78.02-15.9 7.16-15.89 15.94l.25 145.52c.01 8.77 7.16 15.89 15.93 15.88l40.06-.07c8.77-.02 15.9-7.16 15.88-15.93l-.23-145.52zM61.13 156.29l-21.5.03-.02-14.14 21.5-.03.02 14.14zm-.02-17.68l-21.51.04-.02-14.73 21.5-.04.03 14.73zm-.04-18.26l-21.5.04-.02-14.44 21.5-.03.02 14.43zm-21.53-17.93l-.02-14.15 21.5-.03.02 14.14-21.5.04zM61.02 84.7l-21.51.04-.02-14.73 21.5-.04.03 14.73zM39.48 66.47l-.03-17.97 21.5-.04.03 17.97-21.5.04zm21.47-21.54l-21.5.04L39.42 27l21.5-.04.03 17.97zm-.07-38.87l.03 17.38-21.5.03-.03-17.38 21.5-.03zM19.66 18.49A12.39 12.39 0 0 1 32.01 6.1l3.54-.01.03 17.38-15.91.03-.01-5.01zm.02 8.54L35.59 27l.03 17.97-15.9.03-.04-17.97zm15.95 21.48l.03 17.97-15.9.03-.04-17.97 15.91-.03zM19.75 70.04l15.91-.03.02 14.73-15.91.03-.02-14.73zm.03 18.26l15.91-.03.02 14.14-15.91.03-.02-14.14zm.02 17.67l15.91-.03.02 14.43-15.91.03-.02-14.43zm.05 17.98l15.9-.03.02 14.73-15.9.03-.02-14.73zm.03 18.26l15.9-.03.02 14.14-15.9.03-.02-14.14zm12.42 34.15c-6.83.01-12.38-5.53-12.39-12.35l-.01-4.12 15.91-.03.03 16.49-3.54.01zm7.37-.02l-.03-16.49 21.5-.03.03 16.49-21.5.03zM64.71 6.05l7.37-.01c6.82-.02 12.38 5.53 12.39 12.35l.01 5.01-19.74.02-.03-17.37zm19.78 20.88l.03 17.97-19.74.03-.03-17.97 19.74-.03zM64.78 48.46l19.74-.03.03 17.97-19.74.03-.03-17.97zm.04 21.51l19.73-.03.02 14.72-19.74.03-.01-14.72zm.03 18.26l19.74-.03.03 14.14-19.75.03-.02-14.14zm.03 17.68l19.74-.03.03 14.43-19.75.03-.02-14.43zm19.78 17.93l.03 14.73-19.74.03-.03-14.73 19.74-.03zm.02 18.27l.03 14.14-19.75.03-.02-14.14 19.74-.03zm-12.32 34.18l-7.37.01-.03-16.49 19.75-.03.01 4.13c.01 6.81-5.53 12.38-12.36 12.38z"/><use xlink:href="#B" y="224.08" fill="#003444"/><path fill="#ccc" d="M88.01 242.46a15.93 15.93 0 0 0-15.94-15.88l-40.06.06c-8.78.02-15.9 7.16-15.89 15.94l.25 145.52c.01 8.77 7.16 15.89 15.93 15.88l40.06-.07c8.77-.02 15.9-7.16 15.88-15.93l-.23-145.52zM61.13 380.37l-21.5.03-.02-14.14 21.5-.03.02 14.14zm-.02-17.68l-21.51.04-.02-14.73 21.5-.04.03 14.73zm-.04-18.26l-21.5.04-.02-14.44 21.5-.03.02 14.43zM39.54 326.5l-.02-14.15 21.5-.03.02 14.14-21.5.04zm21.48-17.72l-21.51.04-.02-14.73 21.5-.04.03 14.73zm-21.54-18.23l-.03-17.97 21.5-.04.03 17.97-21.5.04zm21.47-21.54l-21.5.04-.03-17.97 21.5-.04.03 17.97zm-.07-38.87l.03 17.38-21.5.03-.03-17.38 21.5-.03zm-41.22 12.43a12.39 12.39 0 0 1 12.35-12.39l3.54-.01.03 17.38-15.91.03-.01-5.01zm.02 8.54l15.91-.03.03 17.97-15.9.03-.04-17.97zm15.95 21.48l.03 17.97-15.9.03-.04-17.97 15.91-.03zm-15.88 21.53l15.91-.03.02 14.73-15.91.03-.02-14.73zm.03 18.26l15.91-.03.02 14.14-15.91.03-.02-14.14zm.02 17.67l15.91-.03.02 14.43-15.91.03-.02-14.43zm.05 17.98l15.9-.03.02 14.73-15.9.03-.02-14.73zm.03 18.26l15.9-.03.02 14.14-15.9.03-.02-14.14zm12.42 34.15c-6.83.01-12.38-5.53-12.39-12.35l-.01-4.12 15.91-.03.03 16.49-3.54.01zm7.37-.02l-.03-16.49 21.5-.03.03 16.49-21.5.03zm25.04-170.29l7.37-.01c6.82-.02 12.38 5.53 12.39 12.35l.01 5.01-19.74.02-.03-17.37zm19.78 20.88l.03 17.97-19.74.03-.03-17.97 19.74-.03zm-19.71 21.53l19.74-.03.03 17.97-19.74.03-.03-17.97zm.04 21.51l19.73-.03.02 14.72-19.74.03-.01-14.72zm.03 18.26l19.74-.03.03 14.14-19.75.03-.02-14.14zm.03 17.68l19.74-.03.03 14.43-19.75.03-.02-14.43zm19.78 17.93l.03 14.73-19.74.03-.03-14.73 19.74-.03zm.02 18.27l.03 14.14-19.75.03-.02-14.14 19.74-.03zm-12.32 34.18l-7.37.01-.03-16.49 19.75-.03.01 4.13c.01 6.81-5.53 12.38-12.36 12.38z"/><path d="M143.89 232.78c-8.36 0-15.16-12.54-15.16-27.96s6.8-27.97 15.16-27.97v1c-7.81 0-14.16 12.1-14.16 26.97s6.35 26.96 14.16 26.96v1zm18.32-8.77c-6.21 0-11.26-8.61-11.26-19.19s5.05-19.19 11.26-19.19v1c-5.66 0-10.26 8.16-10.26 18.19s4.6 18.19 10.26 18.19v1zm15.45-9.17c-3.78 0-6.85-4.5-6.85-10.02 0-5.53 3.07-10.02 6.85-10.02v1c-3.23 0-5.85 4.05-5.85 9.02s2.62 9.02 5.85 9.02v1z" fill="#ededed"/><defs ><path id="B" d="M32.8 180.58c-9.57 0-17.34-6.99-17.34-15.61l-.07-147.65c0-8.63 7.75-15.62 17.33-15.63l38.85-.02c9.57-.01 17.33 6.98 17.34 15.61l.07 147.65c.01 8.63-7.75 15.63-17.32 15.63l-38.86.02z"/></defs></svg>